<svg width="20" height="20" viewBox="0 0 20 20" fill="none" xmlns="http://www.w3.org/2000/svg">
<circle opacity="0.4" cx="10" cy="10" r="10" fill="#00BFFF"/>
<path d="M6.70449 11.246L4.22026 10.4431C4.22026 10.4431 3.92337 10.3237 4.01897 10.0528C4.03865 9.99689 4.07834 9.94935 4.1971 9.86765C4.74754 9.4871 14.3853 6.05122 14.3853 6.05122C14.3853 6.05122 14.6574 5.96027 14.8179 6.02076C14.8576 6.03295 14.8933 6.05538 14.9214 6.08576C14.9495 6.11614 14.969 6.15338 14.9778 6.19366C14.9951 6.26481 15.0024 6.33802 14.9993 6.41116C14.9986 6.47443 14.9908 6.53307 14.985 6.62503C14.9263 7.56441 13.1697 14.5753 13.1697 14.5753C13.1697 14.5753 13.0646 14.9856 12.6881 14.9996C12.5955 15.0026 12.5033 14.9871 12.417 14.9539C12.3306 14.9208 12.2519 14.8708 12.1855 14.8068C11.4465 14.1764 8.89258 12.4739 8.32823 12.0995C8.3155 12.0909 8.30478 12.0797 8.29679 12.0667C8.2888 12.0536 8.28373 12.039 8.28192 12.0238C8.27403 11.9844 8.31729 11.9355 8.31729 11.9355C8.31729 11.9355 12.7644 8.01471 12.8827 7.60312C12.8919 7.57123 12.8573 7.5555 12.8108 7.56946C12.5154 7.67724 7.39514 10.8844 6.83003 11.2384C6.78935 11.2506 6.74636 11.2532 6.70449 11.246Z" fill="#00BFFF"/>
</svg>
