<svg width="75" height="75" viewBox="0 0 75 75" fill="none" xmlns="http://www.w3.org/2000/svg">
<path d="M37.2179 10.0428C37.4322 9.97609 37.665 9.98739 37.8731 10.0764L68.4353 23.1506C68.7782 23.2973 69 23.631 69 24.0001C69 24.3691 68.7782 24.7028 68.4353 24.8496L37.8731 37.9237C37.6353 38.0254 37.3652 38.0254 37.1274 37.9237L6.56522 24.8496C6.22222 24.7028 6 24.3691 6 24.0001C6.00001 23.631 6.22223 23.2973 6.56522 23.1506L37.1274 10.0764L37.2179 10.0428ZM9.29607 24.0001L37.5 36.065L65.7034 24.0001L37.5 11.9346L9.29607 24.0001Z" fill="white"/>
<path d="M53.8551 47.7033C54.5725 48.2363 54.5863 48.2479 54.5863 48.2479L54.5853 48.2489L54.5837 48.2514C54.5823 48.2532 54.5806 48.2554 54.5786 48.2579C54.5745 48.263 54.5688 48.2698 54.5622 48.2779C54.5491 48.2942 54.531 48.3165 54.5078 48.3441C54.4615 48.3996 54.3949 48.477 54.3078 48.5733C54.1336 48.7661 53.8768 49.0348 53.5346 49.3536C52.8502 49.9912 51.8223 50.8314 50.4276 51.6683C47.6322 53.3457 43.3792 55 37.5013 55C31.6234 55 27.3765 53.3457 24.5873 51.6678C23.1959 50.8307 22.1716 49.9903 21.4896 49.3526C21.1485 49.0336 20.8925 48.7647 20.7189 48.5718C20.6323 48.4755 20.5661 48.3981 20.5199 48.3426C20.4968 48.3149 20.4787 48.2923 20.4656 48.2759C20.459 48.2678 20.4537 48.261 20.4497 48.2559C20.4477 48.2533 20.446 48.2512 20.4445 48.2494L20.4425 48.2469L20.4415 48.2459C20.3213 48.0904 20.2557 47.9002 20.2553 47.7053L20.2256 30.9006C20.2245 30.4044 20.635 30.0011 21.1424 30C21.6499 29.999 22.0623 30.4004 22.0634 30.8966L22.0921 47.3773C22.0943 47.3798 22.0966 47.3824 22.0988 47.3848C22.2401 47.5418 22.4596 47.773 22.7598 48.0538C23.3605 48.6156 24.2832 49.375 25.5503 50.1374C28.0789 51.6585 31.996 53.2028 37.5013 53.2028C43.0068 53.2028 46.9309 51.658 49.4666 50.1364C50.7373 49.3738 51.6637 48.6143 52.267 48.0523C52.5684 47.7714 52.789 47.5404 52.931 47.3833C52.9327 47.3815 52.934 47.3792 52.9356 47.3773L52.9331 30.8986C52.9331 30.4025 53.3442 30.0002 53.8515 30C54.359 29.9999 54.7708 30.4023 54.7709 30.8986L54.774 47.7033C54.774 47.8996 54.7082 48.0905 54.5868 48.2469L53.8551 47.7033Z" fill="white"/>
<path d="M12.0967 55.0803V26.9197C12.0967 26.4118 12.5516 26 13.1128 26C13.674 26 14.1289 26.4118 14.1289 26.9197V55.0803L14.1238 55.1747C14.0717 55.6384 13.6388 56 13.1128 56C12.5868 56 12.1539 55.6384 12.1018 55.1747L12.0967 55.0803Z" fill="white"/>
<path d="M17.3215 61.5003C17.3214 58.9367 15.2098 56.8584 12.6051 56.8583C10.0003 56.8583 7.88825 58.9366 7.88823 61.5003C7.88823 64.0638 10.0001 66.1417 12.6051 66.1417C15.21 66.1416 17.3215 64.0637 17.3215 61.5003ZM19.2097 61.5003C19.2097 65.0901 16.2527 67.9999 12.6051 68C8.95738 68 6 65.0902 6 61.5003C6.00002 57.9105 8.95729 55 12.6051 55C16.2528 55.0001 19.2097 57.9106 19.2097 61.5003Z" fill="white"/>
</svg>
