<svg width="75" height="75" viewBox="0 0 75 75" fill="none" xmlns="http://www.w3.org/2000/svg">
<path d="M7.72728 10.3134C8.03027 10.0104 8.5214 10.0104 8.8244 10.3134L13.7619 15.251C14.0649 15.554 14.0649 16.0451 13.7619 16.3481C13.4589 16.6511 12.9678 16.6511 12.6648 16.3481L9.0517 12.735V61.293H64.8511L61.238 57.6799C60.935 57.3769 60.935 56.8858 61.238 56.5828C61.541 56.2798 62.0321 56.2798 62.3351 56.5828L67.2727 61.5203C67.5757 61.8233 67.5757 62.3144 67.2727 62.6174L62.3351 67.555C62.0321 67.858 61.541 67.858 61.238 67.555C60.935 67.252 60.935 66.7609 61.238 66.4579L64.8511 62.8447H7.49997V12.735L3.88686 16.3481C3.58387 16.6511 3.09274 16.6511 2.78974 16.3481C2.48675 16.0451 2.48675 15.554 2.78974 15.251L7.72728 10.3134Z" fill="white"/>
<path d="M28.4486 31.0344C28.4486 30.4631 27.9855 30 27.4141 30H18.1038C17.5325 30 17.0693 30.4631 17.0693 31.0344V61.0345H28.4486V31.0344ZM30.0003 62.5862H15.5176V31.0344C15.5176 29.6061 16.6755 28.4482 18.1038 28.4482H27.4141C28.8425 28.4482 30.0003 29.6061 30.0003 31.0344V62.5862Z" fill="white"/>
<path d="M41.3793 22.7586C41.3793 22.1872 40.9161 21.7241 40.3448 21.7241H31.0344C30.4631 21.7241 30 22.1872 30 22.7586V61.0344H41.3793V22.7586ZM42.931 62.5862H28.4482V22.7586C28.4482 21.3302 29.6061 20.1724 31.0344 20.1724H40.3448C41.7731 20.1724 42.931 21.3302 42.931 22.7586V62.5862Z" fill="white"/>
<path d="M54.3099 47.0689C54.3099 46.4975 53.8468 46.0344 53.2755 46.0344H43.9651C43.3938 46.0344 42.9306 46.4975 42.9306 47.0689V61.0344H54.3099V47.0689ZM55.8617 62.5861H41.3789V47.0689C41.3789 45.6406 42.5368 44.4827 43.9651 44.4827H53.2755C54.7038 44.4827 55.8617 45.6406 55.8617 47.0689V62.5861Z" fill="white"/>
</svg>
