<svg preserveAspectRatio="none" width="100%" height="100%" overflow="visible" style="display: block;" viewBox="0 0 58.4483 53.7931" fill="none" xmlns="http://www.w3.org/2000/svg">
<g id="Group 1948755292">
<path id="Vector" d="M58.4483 23.8916C58.4483 10.2716 46.0183 0 29.5376 0C12.9737 0 0 10.4964 0 23.8952C0 31.9281 5.68719 37.6833 10.627 41.1661V52.9102C10.6279 53.0576 10.6655 53.2025 10.7364 53.3317C10.8073 53.461 10.9093 53.5706 11.0332 53.6507C11.1571 53.7307 11.2989 53.7787 11.446 53.7903C11.5931 53.802 11.7407 53.7768 11.8756 53.7172C12.1342 53.6022 18.1792 50.8573 23.351 45.2065C25.5915 45.6224 28.126 46.0223 30.425 46.0223C47.1855 46.0223 58.4483 37.1276 58.4483 23.8916ZM30.4232 44.2526C28.103 44.2526 25.4657 43.8084 23.1916 43.3748C23.0409 43.3476 22.8857 43.3592 22.7407 43.4085C22.5957 43.4577 22.4656 43.5429 22.3627 43.6562C18.7318 47.7478 14.4651 50.3476 12.3981 51.4679V40.7042C12.3981 40.5607 12.363 40.4193 12.2961 40.2922C12.2291 40.1652 12.1322 40.0564 12.0138 39.9751C7.34146 36.763 1.77116 31.3688 1.77116 23.8952C1.77116 11.4874 13.9674 1.76975 29.5376 1.76975C45.0105 1.76975 56.6771 11.2804 56.6771 23.8916C56.6771 36.071 46.1263 44.2526 30.4232 44.2526Z" fill="var(--fill-0, white)"/>
</g>
</svg>
