<svg preserveAspectRatio="none" width="100%" height="100%" overflow="visible" style="display: block;" viewBox="0 0 52.7586 62.069" fill="none" xmlns="http://www.w3.org/2000/svg">
<path id="Vector" d="M32.1137 60.9194C32.1137 61.2243 31.9929 61.5167 31.7778 61.7323C31.5627 61.9478 31.271 62.069 30.9668 62.069H21.7918C21.4876 62.069 21.1959 61.9478 20.9808 61.7323C20.7658 61.5167 20.6449 61.2243 20.6449 60.9194C20.6449 60.6145 20.7658 60.322 20.9808 60.1065C21.1959 59.8909 21.4876 59.7697 21.7918 59.7697H30.9668C31.271 59.7697 31.5627 59.8909 31.7778 60.1065C31.9929 60.322 32.1137 60.6145 32.1137 60.9194ZM26.3793 27.5805C26.833 27.5805 27.2764 27.4457 27.6537 27.193C28.0309 26.9404 28.3249 26.5813 28.4985 26.1612C28.6721 25.741 28.7175 25.2787 28.629 24.8327C28.5405 24.3867 28.322 23.977 28.0012 23.6555C27.6805 23.3339 27.2717 23.115 26.8268 23.0262C26.3819 22.9375 25.9207 22.9831 25.5015 23.1571C25.0824 23.3311 24.7242 23.6258 24.4721 24.0039C24.2201 24.382 24.0856 24.8265 24.0856 25.2813C24.0856 25.8911 24.3272 26.4759 24.7574 26.9071C25.1875 27.3383 25.771 27.5805 26.3793 27.5805ZM52.6772 41.0885L49.1305 57.0681C49.0063 57.6405 48.7375 58.1712 48.3499 58.6095C47.9623 59.0479 47.4689 59.3791 46.917 59.5714C46.5485 59.7013 46.1608 59.7683 45.7702 59.7697C44.9962 59.7692 44.2453 59.5058 43.6398 59.0225L35.5113 52.872H17.2473L9.12166 59.0225C8.51624 59.5058 7.7653 59.7692 6.99134 59.7697C6.60068 59.7683 6.21302 59.7013 5.84446 59.5714C5.29254 59.3791 4.79916 59.0479 4.41158 58.6095C4.024 58.1712 3.75521 57.6405 3.63098 57.0681L0.0813957 41.0885C-0.032307 40.5739 -0.0268181 40.04 0.097441 39.5278C0.2217 39.0156 0.461423 38.5388 0.798195 38.134L9.21341 28.0087C10.1596 12.6815 21.2069 3.09659 24.2719 0.722634C24.875 0.254204 25.6163 0 26.3793 0C27.1423 0 27.8836 0.254204 28.4867 0.722634C31.5517 3.09659 42.599 12.6815 43.5452 28.0087L51.9604 38.134C52.2972 38.5388 52.5369 39.0156 52.6612 39.5278C52.7854 40.04 52.7909 40.5739 52.6772 41.0885ZM17.5225 50.5728H35.2361C51.0573 23.1229 31.2535 5.7522 27.0846 2.5304C26.8831 2.37286 26.6349 2.28729 26.3793 2.28729C26.1237 2.28729 25.8755 2.37286 25.674 2.5304C21.5051 5.7522 1.70136 23.1229 17.5225 50.5728ZM15.3664 51.4149C11.2176 44.1235 9.44279 37.5017 9.17614 31.6214L2.55865 39.594C2.44642 39.7291 2.3666 39.8883 2.32535 40.0592C2.28409 40.2301 2.28249 40.4082 2.32068 40.5798L5.86453 56.5681C5.90646 56.7591 5.99631 56.9362 6.12558 57.0827C6.25484 57.2291 6.41925 57.3401 6.60325 57.4052C6.78725 57.4702 6.98476 57.4871 7.1771 57.4543C7.36943 57.4215 7.55024 57.34 7.7024 57.2176L7.72821 57.1975L15.3664 51.4149ZM50.2 39.594L43.5825 31.6214C43.3273 37.5017 41.5525 44.1235 37.4037 51.4149L45.0419 57.1975L45.0677 57.2176C45.2199 57.34 45.4007 57.4215 45.593 57.4543C45.7853 57.4871 45.9828 57.4702 46.1668 57.4052C46.3508 57.3401 46.5152 57.2291 46.6445 57.0827C46.7738 56.9362 46.8636 56.7591 46.9056 56.5681L50.4494 40.5798C50.4861 40.4073 50.4826 40.2287 50.4394 40.0577C50.3961 39.8868 50.3142 39.7281 50.2 39.594Z" fill="var(--fill-0, white)"/>
</svg>
