<svg preserveAspectRatio="none" width="100%" height="100%" overflow="visible" style="display: block;" viewBox="0 0 55.345 62.5875" fill="none" xmlns="http://www.w3.org/2000/svg">
<path id="Vector" d="M24.5981 31.2923C24.5981 31.5667 24.4901 31.8298 24.2979 32.0238C24.1057 32.2178 23.845 32.3268 23.5732 32.3268H11.2742C11.0024 32.3268 10.7417 32.2178 10.5495 32.0238C10.3573 31.8298 10.2493 31.5667 10.2493 31.2923C10.2493 31.018 10.3573 30.7549 10.5495 30.5609C10.7417 30.3669 11.0024 30.2579 11.2742 30.2579H23.5732C23.845 30.2579 24.1057 30.3669 24.2979 30.5609C24.4901 30.7549 24.5981 31.018 24.5981 31.2923ZM23.5732 21.9823H11.2742C11.0024 21.9823 10.7417 22.0913 10.5495 22.2853C10.3573 22.4793 10.2493 22.7424 10.2493 23.0167C10.2493 23.2911 10.3573 23.5542 10.5495 23.7482C10.7417 23.9422 11.0024 24.0512 11.2742 24.0512H23.5732C23.845 24.0512 24.1057 23.9422 24.2979 23.7482C24.4901 23.5542 24.5981 23.2911 24.5981 23.0167C24.5981 22.7424 24.4901 22.4793 24.2979 22.2853C24.1057 22.0913 23.845 21.9823 23.5732 21.9823ZM51.2458 45.6408L51.2456 61.5515C51.2458 61.7332 51.1987 61.9118 51.1088 62.0693C51.019 62.2267 50.8896 62.3575 50.7338 62.4485C50.5779 62.5395 50.4011 62.5874 50.221 62.5875C50.041 62.5875 49.8641 62.5397 49.7082 62.4489L43.0463 58.6059L36.3843 62.4489C36.2284 62.5397 36.0515 62.5875 35.8715 62.5875C35.6915 62.5874 35.5146 62.5395 35.3588 62.4485C35.2029 62.3575 35.0736 62.2267 34.9837 62.0693C34.8939 61.9118 34.8467 61.7332 34.847 61.5515V54.3103H3.07473C2.25926 54.3103 1.47719 53.9834 0.900569 53.4014C0.323944 52.8194 0 52.0301 0 51.207L0.000200271 3.10335C0.000200271 2.28029 0.324145 1.49094 0.900769 0.908949C1.47739 0.326959 2.25946 0 3.07493 0H48.171C48.9865 0 49.7686 0.326959 50.3452 0.908949C50.9218 1.49094 51.2458 2.28029 51.2458 3.10335V27.1552C52.5353 28.3176 53.567 29.7419 54.2734 31.3347C54.9799 32.9275 55.345 34.6529 55.345 36.398C55.345 38.1431 54.9799 39.8685 54.2734 41.4613C53.567 43.0541 52.5353 44.4783 51.2458 45.6408ZM43.0465 26.0535C41.0194 26.0535 39.0378 26.6602 37.3524 27.7968C35.6669 28.9335 34.3533 30.5491 33.5775 32.4393C32.8018 34.3295 32.5988 36.4095 32.9943 38.4161C33.3898 40.4227 34.3659 42.266 35.7992 43.7127C37.2326 45.1594 39.0588 46.1446 41.047 46.5437C43.0351 46.9429 45.0959 46.738 46.9686 45.9551C48.8414 45.1721 50.4421 43.8462 51.5683 42.1451C52.6945 40.4439 53.2956 38.4439 53.2956 36.398C53.2956 33.6545 52.2158 31.0233 50.2937 29.0833C48.3716 27.1434 45.7647 26.0535 43.0465 26.0535ZM34.847 52.2414L34.8472 45.6408C32.5992 43.588 31.1815 40.7694 30.8664 37.7262C30.5512 34.683 31.3608 31.6296 33.1396 29.1519C34.9185 26.6743 37.5413 24.947 40.5046 24.3016C43.468 23.6563 46.5631 24.1383 49.1959 25.6552V3.10335C49.1959 2.829 49.088 2.56588 48.8957 2.37188C48.7035 2.17789 48.4428 2.0689 48.171 2.0689H3.07493C2.80311 2.0689 2.54242 2.17789 2.35021 2.37188C2.158 2.56588 2.05002 2.829 2.05002 3.10335L2.04982 51.207C2.04982 51.4814 2.1578 51.7445 2.35001 51.9385C2.54222 52.1325 2.80291 52.2414 3.07473 52.2414H34.847ZM49.1959 47.1408C47.3279 48.2351 45.2064 48.8115 43.0465 48.8115C40.8866 48.8115 38.765 48.2351 36.897 47.1408L36.8968 59.7697L42.5338 56.5163C42.6896 56.4255 42.8664 56.3777 43.0463 56.3777C43.2262 56.3777 43.4029 56.4255 43.5587 56.5163L49.1957 59.7697L49.1959 47.1408Z" fill="var(--fill-0, white)"/>
</svg>
