<svg preserveAspectRatio="none" width="100%" height="100%" overflow="visible" style="display: block;" viewBox="0 0 49.6552 62.069" fill="none" xmlns="http://www.w3.org/2000/svg">
<g id="Group 1948755292">
<path id="Vector (Stroke)" d="M49.6552 58.1897C49.6552 59.2185 49.2467 60.2054 48.5192 60.933C47.7917 61.6605 46.8047 62.069 45.7759 62.069H3.87931C2.85045 62.069 1.86352 61.6605 1.13601 60.933C0.408501 60.2054 0 59.2185 0 58.1897V3.87931C0 2.85045 0.4085 1.86352 1.13601 1.13601C1.86352 0.4085 2.85045 6.53182e-08 3.87931 0H31.8103C32.0161 0 32.2134 0.0818017 32.3589 0.227303L49.4279 17.2963C49.5734 17.4418 49.6552 17.6391 49.6552 17.8448V58.1897ZM32.5862 14.7414C32.5862 15.3587 32.8316 15.9505 33.2681 16.3871C33.7046 16.8236 34.2965 17.069 34.9138 17.069H47.0063L32.5862 2.64884V14.7414ZM1.55172 58.1897C1.55172 58.807 1.79713 59.3988 2.23363 59.8353C2.67014 60.2718 3.26199 60.5172 3.87931 60.5172H45.7759C46.3932 60.5172 46.985 60.2718 47.4215 59.8353C47.858 59.3988 48.1035 58.807 48.1035 58.1897V18.6207H34.9138C33.8849 18.6207 32.898 18.2122 32.1705 17.4847C31.443 16.7572 31.0345 15.7702 31.0345 14.7414V1.55172H3.87931C3.262 1.55172 2.67014 1.79713 2.23363 2.23363C1.79713 2.67014 1.55172 3.262 1.55172 3.87931V58.1897Z" fill="var(--fill-0, white)"/>
<g id="Group">
<path id="Vector (Stroke)_2" d="M12.778 46.7406V32.0877C12.778 30.9072 13.7346 29.9495 14.9146 29.9495C14.9347 29.9495 14.9546 29.951 14.9742 29.9525H34.7395C35.9184 29.9525 36.8761 30.9076 36.8762 32.0892V46.7406C36.8762 47.3073 36.651 47.8507 36.2503 48.2514C35.8496 48.6522 35.3062 48.8773 34.7395 48.8773H14.9146C14.348 48.8773 13.8045 48.6521 13.4038 48.2514C13.0032 47.8507 12.778 47.3073 12.778 46.7406ZM14.3297 46.7406C14.3297 46.8958 14.3913 47.0446 14.5009 47.1543C14.6106 47.264 14.7595 47.3255 14.9146 47.3256H34.7395C34.8947 47.3256 35.0435 47.264 35.1532 47.1543C35.2629 47.0446 35.3245 46.8958 35.3245 46.7406V32.0892C35.3244 31.7657 35.0626 31.5042 34.7395 31.5042H14.9146C14.9046 31.5042 14.8947 31.5026 14.8848 31.5022C14.5767 31.5178 14.3298 31.7731 14.3297 32.0877V46.7406Z" fill="var(--fill-0, white)"/>
<path id="Vector (Stroke)_3" d="M31.4998 30.7289V27.6194C31.4641 25.8717 30.7446 24.2078 29.496 22.9844C28.2474 21.761 26.5692 21.0756 24.8211 21.0755C23.073 21.0755 21.3944 21.761 20.1457 22.9844C18.8972 24.2078 18.1781 25.8717 18.1424 27.6194V30.7289C18.1424 31.1573 17.795 31.5047 17.3666 31.5047C16.9381 31.5047 16.5907 31.1573 16.5907 30.7289V27.5875C16.6347 25.4339 17.5211 23.3832 19.0597 21.8757C20.5984 20.3681 22.6669 19.5238 24.8211 19.5238C26.9751 19.5238 29.0433 20.3682 30.582 21.8757C32.1206 23.3832 33.007 25.4339 33.051 27.5875C33.0511 27.5928 33.0515 27.5984 33.0515 27.6037V30.7289C33.0515 31.1573 32.7041 31.5047 32.2756 31.5047C31.8472 31.5047 31.4998 31.1573 31.4998 30.7289Z" fill="var(--fill-0, white)"/>
<path id="Vector (Stroke)_4" d="M26.936 39.4139C26.9359 38.2458 25.9891 37.299 24.821 37.299C23.653 37.299 22.7061 38.2459 22.7061 39.4139C22.7061 40.582 23.653 41.5288 24.821 41.5288C25.9891 41.5288 26.936 40.582 26.936 39.4139ZM28.4877 39.4139C28.4877 41.439 26.8461 43.0805 24.821 43.0805C22.796 43.0805 21.1544 41.4389 21.1544 39.4139C21.1544 37.3889 22.796 35.7473 24.821 35.7472C26.8461 35.7472 28.4876 37.3889 28.4877 39.4139Z" fill="var(--fill-0, white)"/>
</g>
</g>
</svg>
