<svg preserveAspectRatio="none" width="100%" height="100%" overflow="visible" style="display: block;" viewBox="0 0 27.4138 17.069" fill="none" xmlns="http://www.w3.org/2000/svg">
<g id="RU">
<path d="M2.064 1.93234V7.68334C2.79787 7.86737 3.48587 7.95938 4.12801 7.95938C6.42134 7.95938 7.56801 6.93187 7.56801 4.87685C7.56801 2.91384 6.55894 1.93234 4.54081 1.93234H2.064ZM0 16.0108V1.24222C0 0.506089 0.336356 0.138025 1.00907 0.138025H4.58667C6.08499 0.138025 7.28517 0.544429 8.18721 1.35724C9.15041 2.21605 9.63201 3.38159 9.63201 4.85384C9.63201 7.93638 7.95023 9.47765 4.58667 9.47765L9.95308 15.3667C10.1824 15.612 10.2971 15.9188 10.2971 16.2868C10.2971 16.8083 9.9913 17.069 9.37975 17.069C9.01281 17.069 8.69939 16.9156 8.43948 16.6089L2.10987 9.27061H2.064V16.0568C2.064 16.7316 1.71236 17.069 1.00907 17.069C0.336356 17.069 0 16.7162 0 16.0108Z" fill="var(--fill-0, white)"/>
<path d="M21.0613 17.069C19.1654 17.069 17.6365 16.5629 16.4746 15.5507C15.2668 14.4925 14.6628 13.0203 14.6628 11.1339V1.05818C14.6628 0.352728 14.9992 0 15.6719 0C16.3752 0 16.7268 0.352728 16.7268 1.05818V11.1339C16.7268 12.4375 17.1167 13.4573 17.8964 14.1935C18.6915 14.9143 19.7464 15.2747 21.0613 15.2747C22.3302 15.2747 23.3699 14.8989 24.1802 14.1475C24.9905 13.396 25.3957 12.3915 25.3957 11.1339V1.05818C25.3957 0.352728 25.7167 0 26.3589 0C27.0621 0 27.4138 0.352728 27.4138 1.05818V11.1339C27.4138 12.9896 26.8099 14.4542 25.6021 15.5277C24.4554 16.5552 22.9418 17.069 21.0613 17.069Z" fill="var(--fill-0, white)"/>
</g>
</svg>
