<svg preserveAspectRatio="none" width="100%" height="100%" overflow="visible" style="display: block;" viewBox="0 0 67.7586 46.0345" fill="none" xmlns="http://www.w3.org/2000/svg">
<g id="Union">
<path d="M21.1681 40.2347C21.1838 39.0921 22.3578 39.2743 23.1519 39.2775L42.8951 39.2723C43.4333 39.2708 43.9528 39.2588 44.4925 39.3006C45.3836 39.3693 46.3223 41.2017 43.4919 41.1884L23.4983 41.1919C22.6442 41.1927 21.1513 41.4693 21.1681 40.2347Z" fill="var(--fill-0, white)"/>
<path d="M28.6756 35.2787C30.111 35.2531 32.2893 34.7196 32.6787 36.2878C32.5429 36.8462 32.4236 37.0409 31.8849 37.2611C31.1079 37.3716 29.971 37.1836 29.1986 37.2657C27.7718 37.4174 27.3884 35.6949 28.6756 35.2787Z" fill="var(--fill-0, white)"/>
<path d="M21.9828 35.2787C22.7009 35.258 24.887 35.1644 25.4309 35.4183C26.4238 35.8817 25.9727 37.0218 25.0921 37.2611C24.3439 37.2641 22.2662 37.3907 21.6969 37.1245C20.7568 36.6845 21.1054 35.5152 21.9828 35.2787Z" fill="var(--fill-0, white)"/>
<path fill-rule="evenodd" clip-rule="evenodd" d="M42.9131 27.062C44.7911 26.8666 46.4738 28.2167 46.6744 30.08C46.8748 31.9432 45.5173 33.6159 43.6401 33.8182C41.7578 34.021 40.0671 32.6694 39.866 30.8013C39.6651 28.9332 41.0301 27.258 42.9131 27.062ZM43.1444 28.8887C42.2878 28.9531 41.6427 29.6893 41.6969 30.5401C41.7515 31.3909 42.4857 32.0402 43.3437 31.9961C43.9079 31.9672 44.4129 31.6394 44.6657 31.1381C44.9186 30.6368 44.8805 30.0391 44.5657 29.5737C44.2508 29.1082 43.7077 28.8466 43.1444 28.8887Z" fill="var(--fill-0, white)"/>
<path fill-rule="evenodd" clip-rule="evenodd" d="M25.2971 0.0363183C30.4862 -0.361984 36.0428 2.56479 39.3103 6.41017C39.8935 7.09651 40.4835 8.07001 40.9873 8.82847C47.3877 3.95344 56.1017 8.88731 56.3881 16.6335C62.6308 16.6163 67.7688 21.4532 67.7586 27.6652C67.7475 34.3694 62.414 38.6095 55.9767 38.5931L50.6903 38.5896L50.6932 41.8227C50.6957 45.7316 50.2097 46.0113 46.005 46.0112H41.869L20.2349 46.0342C17.306 46.0621 17.1955 43.7823 17.1953 41.5499L17.1971 38.5896L13.4193 38.5908C10.6674 38.5906 8.53281 38.7539 5.98274 37.4093C-2.88941 32.7314 -1.63208 20.0769 8.01999 17.074C8.05229 7.81932 15.9387 0.108934 25.2971 0.0363183ZM48.8267 25.775C48.778 24.082 46.1821 24.5596 44.9556 24.5601L22.7109 24.5613C19.0801 24.5466 19.0304 24.0663 19.0315 27.5568L19.0309 42.9522C19.0395 44.7953 21.4786 44.2155 22.952 44.2139L45.1549 44.2133C49.4282 44.225 48.8455 44.5812 48.8453 40.6891V29.0271C48.8462 27.9424 48.8577 26.8597 48.8267 25.775ZM38.9605 9.21653C36.004 4.39887 30.5744 1.59276 24.7724 1.88205C16.9635 2.55266 10.6038 8.06488 9.93696 16.0349C9.61291 19.9099 10.1238 17.7159 6.70385 19.5932C-0.795327 23.7097 0.869368 34.774 8.79108 36.5392C10.2841 36.8719 12.2702 36.786 13.8261 36.786L17.1971 36.7842L17.1965 28.9274C17.196 26.8037 16.6316 23.2017 19.6393 22.7922C20.4139 22.7036 21.3181 22.7404 22.106 22.7409L42.9707 22.7438L45.7685 22.7409C47.1986 22.7407 48.7091 22.5484 49.7896 23.6814C51.0796 25.0341 50.6919 27.6355 50.6908 29.4244L50.6903 36.7842C51.9716 36.7859 55.8736 36.8185 57.1499 36.7664C68.3215 36.3107 69.006 19.5899 57.3742 18.5023C55.5966 18.336 54.5132 19.0308 54.5938 16.5931C54.4072 10.4778 47.2636 6.43853 42.1361 10.2775C39.8424 11.9946 40.555 11.5301 38.9605 9.21653Z" fill="var(--fill-0, white)"/>
</g>
</svg>
