<svg width="75" height="75" viewBox="0 0 75 75" fill="none" xmlns="http://www.w3.org/2000/svg">
<path d="M66.6558 44.8364C66.6558 43.2081 66.009 41.6463 64.8576 40.4949C63.8906 39.528 62.634 38.9187 61.2919 38.7477V50.9246C62.634 50.7536 63.8906 50.1448 64.8576 49.1779C66.009 48.0265 66.6558 46.4647 66.6558 44.8364ZM38.109 54.3276C37.031 54.3276 35.9971 54.7559 35.2349 55.5182C34.6582 56.0949 34.2731 56.8272 34.1196 57.6164H42.0984C41.945 56.8272 41.5599 56.0949 40.9831 55.5182C40.2209 54.7559 39.187 54.3276 38.109 54.3276ZM9.5693 44.8364C9.5693 46.4647 10.2161 48.0265 11.3675 49.1779C12.3345 50.1448 13.5911 50.7536 14.9332 50.9246V38.7477C13.591 38.9187 12.3345 39.528 11.3675 40.4949C10.2161 41.6463 9.5693 43.2081 9.5693 44.8364ZM68.2075 44.8364C68.2075 46.8763 67.3971 48.8326 65.9547 50.275C64.6874 51.5423 63.0234 52.3209 61.2546 52.4915C61.084 54.1861 60.3343 55.7792 59.1194 56.9941C57.7291 58.3844 55.8435 59.1662 53.8773 59.1671H42.9688C42.9624 59.1673 42.956 59.1681 42.9496 59.1681H33.2685C33.0627 59.1681 32.8654 59.0863 32.7199 58.9408C32.5744 58.7954 32.4926 58.598 32.4926 58.3923C32.4926 56.9028 33.0846 55.4743 34.1378 54.421C35.191 53.3678 36.6195 52.7759 38.109 52.7759C39.5985 52.7759 41.027 53.3678 42.0802 54.421C42.9487 55.2895 43.5024 56.4129 43.6704 57.6154H53.8768L54.1672 57.6078C55.6162 57.5353 56.991 56.9277 58.0218 55.897C59.1212 54.7976 59.7393 53.3067 59.7402 51.752V37.9208C59.7402 32.1848 57.4615 26.6838 53.4055 22.6279C49.3495 18.5719 43.8486 16.2932 38.1125 16.2932C32.3765 16.2932 26.8756 18.5719 22.8196 22.6279C18.7636 26.6838 16.4849 32.1848 16.4849 37.9208V51.752C16.4848 51.9577 16.403 52.1551 16.2576 52.3006C16.1121 52.446 15.9147 52.5278 15.709 52.5279C13.6692 52.5279 11.7128 51.7174 10.2704 50.275C8.82801 48.8326 8.01758 46.8763 8.01758 44.8364C8.01758 42.7966 8.82801 40.8402 10.2704 39.3978C11.5318 38.1364 13.1862 37.3582 14.9458 37.1829C15.1329 31.3032 17.5493 25.7035 21.722 21.5308C26.069 17.1837 31.965 14.7415 38.1125 14.7415C44.2601 14.7415 50.1561 17.1837 54.5031 21.5308C58.6757 25.7034 61.0916 31.3032 61.2788 37.1829C63.0386 37.3581 64.6932 38.1363 65.9547 39.3978C67.3971 40.8402 68.2075 42.7966 68.2075 44.8364Z" fill="white"/>
</svg>
