<svg preserveAspectRatio="none" width="100%" height="100%" overflow="visible" style="display: block;" viewBox="0 0 64.9374 57.696" fill="none" xmlns="http://www.w3.org/2000/svg">
<path id="Vector 572 (Stroke)" d="M5.16478 0.227245C5.46777 -0.0757483 5.9589 -0.0757483 6.2619 0.227245L11.1994 5.16478C11.5024 5.46777 11.5024 5.9589 11.1994 6.2619C10.8964 6.56489 10.4053 6.56489 10.1023 6.2619L6.4892 2.64878V51.2068H62.2886L58.6755 47.5937C58.3725 47.2907 58.3725 46.7996 58.6755 46.4966C58.9785 46.1936 59.4696 46.1936 59.7726 46.4966L64.7102 51.4341C65.0132 51.7371 65.0132 52.2283 64.7102 52.5313L59.7726 57.4688C59.4696 57.7718 58.9785 57.7718 58.6755 57.4688C58.3725 57.1658 58.3725 56.6747 58.6755 56.3717L62.2886 52.7586H4.93747V2.64878L1.32436 6.2619C1.02137 6.56489 0.530238 6.56489 0.227245 6.2619C-0.0757482 5.9589 -0.0757482 5.46777 0.227245 5.16478L5.16478 0.227245Z" fill="var(--fill-0, white)"/>
</svg>
