<svg preserveAspectRatio="none" width="100%" height="100%" overflow="visible" style="display: block;" viewBox="0 0 60.1899 44.4267" fill="none" xmlns="http://www.w3.org/2000/svg">
<g id="Group">
<path id="Vector (Stroke)" d="M58.6382 30.095C58.6382 28.4666 57.9914 26.9049 56.84 25.7535C55.873 24.7865 54.6165 24.1772 53.2744 24.0063V36.1832C54.6164 36.0122 55.873 35.4034 56.84 34.4365C57.9914 33.2851 58.6382 31.7233 58.6382 30.095ZM30.0914 39.5861C29.0135 39.5862 27.9795 40.0145 27.2173 40.7767C26.6406 41.3535 26.2555 42.0858 26.102 42.875H34.0809C33.9274 42.0857 33.5423 41.3535 32.9656 40.7767C32.2033 40.0144 31.1694 39.5861 30.0914 39.5861ZM1.55172 30.095C1.55173 31.7233 2.19855 33.2851 3.34995 34.4365C4.31688 35.4034 5.57349 36.0122 6.91558 36.1832V24.0063C5.57347 24.1772 4.3169 24.7865 3.34995 25.7535C2.19855 26.9049 1.55172 28.4666 1.55172 30.095ZM60.1899 30.095C60.1899 32.1348 59.3795 34.0912 57.9371 35.5336C56.6698 36.8008 55.0058 37.5795 53.237 37.75C53.0665 39.4446 52.3167 41.0377 51.1018 42.2527C49.7115 43.643 47.8259 44.4247 45.8597 44.4257H34.9512C34.9448 44.4258 34.9384 44.4267 34.932 44.4267H25.2509C25.0452 44.4266 24.8478 44.3448 24.7023 44.1994C24.5569 44.0539 24.475 43.8565 24.475 43.6508C24.475 42.1613 25.067 40.7328 26.1202 39.6796C27.1734 38.6263 28.6019 38.0344 30.0914 38.0344C31.581 38.0344 33.0094 38.6263 34.0627 39.6796C34.9311 40.548 35.4848 41.6715 35.6528 42.874H45.8592L46.1497 42.8664C47.5987 42.7938 48.9734 42.1862 50.0042 41.1555C51.1036 40.0562 51.7217 38.5653 51.7226 37.0105V23.1794C51.7226 17.4434 49.4439 11.9424 45.3879 7.88642C41.3319 3.83046 35.831 1.55172 30.095 1.55172C24.3589 1.55172 18.858 3.83046 14.802 7.88642C10.746 11.9424 8.46734 17.4434 8.4673 23.1794V37.0105C8.46727 37.2163 8.38547 37.4136 8.24 37.5591C8.09453 37.7046 7.89716 37.7864 7.69144 37.7864C5.65161 37.7864 3.69522 36.9759 2.25283 35.5336C0.810432 34.0912 2.09018e-06 32.1348 0 30.095C0 28.0551 0.81043 26.0987 2.25283 24.6564C3.51423 23.395 5.1686 22.6168 6.92821 22.4414C7.11535 16.5618 9.53177 10.962 13.7044 6.7893C18.0514 2.44229 23.9474 0 30.095 0C36.2426 0 42.1386 2.44229 46.4856 6.7893C50.6582 10.962 53.0741 16.5618 53.2612 22.4414C55.021 22.6167 56.6756 23.3949 57.9371 24.6564C59.3795 26.0987 60.1899 28.0551 60.1899 30.095Z" fill="var(--fill-0, white)"/>
</g>
</svg>
