<svg preserveAspectRatio="none" width="100%" height="100%" overflow="visible" style="display: block;" viewBox="0 0 60.0001 60.0474" fill="none" xmlns="http://www.w3.org/2000/svg">
<path id="Vector (Stroke)" d="M7.46873 40.3372C7.77172 40.0342 8.26285 40.0342 8.56585 40.3372L13.5034 45.2747C13.8064 45.5777 13.8064 46.0688 13.5034 46.3718C13.2004 46.6748 12.7093 46.6748 12.4063 46.3718L8.79315 42.7587V53.5582H22.696L19.0829 49.945C18.7799 49.6421 18.7799 49.1509 19.0829 48.8479C19.3859 48.5449 19.877 48.5449 20.18 48.8479L25.1176 53.7855C25.4206 54.0885 25.4206 54.5796 25.1176 54.8826L20.18 59.8201C19.877 60.1231 19.3859 60.1231 19.0829 59.8201C18.7799 59.5171 18.7799 59.026 19.0829 58.723L22.696 55.1099H8.01729C7.58879 55.1099 7.24142 54.7625 7.24142 54.334V42.7587L3.62831 46.3718C3.32532 46.6748 2.83419 46.6748 2.53119 46.3718C2.2282 46.0688 2.2282 45.5777 2.53119 45.2747L7.46873 40.3372ZM48.2126 27.5688C48.4067 27.2302 48.8224 27.0886 49.1829 27.238L53.3835 28.9786C53.7438 29.1279 53.9375 29.5214 53.8356 29.8979L53.1239 32.523C53.6814 32.9846 54.1938 33.4976 54.6554 34.055L57.281 33.3433C57.6576 33.2412 58.052 33.4348 58.2013 33.7954L59.9409 37.996C60.0903 38.3565 59.9487 38.7722 59.6101 38.9663L57.2507 40.3185C57.2851 40.6783 57.3048 41.0394 57.3057 41.401V41.4035C57.3054 41.7657 57.2859 42.1269 57.2517 42.487L59.6101 43.8397C59.9486 44.0338 60.0903 44.4495 59.9409 44.81L58.2003 49.0106C58.0509 49.371 57.6571 49.5648 57.2805 49.4627L54.6286 48.7434C54.1723 49.2934 53.6661 49.7997 53.1163 50.2562L53.8356 52.9086C53.9375 53.2851 53.7439 53.6791 53.3835 53.8284L49.1829 55.568C48.8224 55.7173 48.4067 55.5757 48.2126 55.2372L46.8604 52.8793C46.4999 52.9136 46.1385 52.9328 45.7759 52.9328H45.7754C45.4129 52.9325 45.0515 52.913 44.6914 52.8788L43.3392 55.2372C43.1451 55.5757 42.7294 55.7174 42.3689 55.568L38.1683 53.8274C37.8078 53.678 37.6141 53.2842 37.7162 52.9076L38.435 50.2557C37.8851 49.7994 37.3787 49.2932 36.9222 48.7434L34.2703 49.4627C33.8938 49.5646 33.4998 49.371 33.3505 49.0106L31.6109 44.81C31.4616 44.4495 31.6032 44.0338 31.9417 43.8397L34.2991 42.4875C34.2647 42.127 34.2461 41.7656 34.2461 41.403C34.2461 41.0401 34.2647 40.6785 34.2991 40.318L31.9417 38.9663C31.6032 38.7722 31.4615 38.3565 31.6109 37.996L33.3515 33.7954L33.3823 33.7297C33.5501 33.4119 33.9183 33.2476 34.2713 33.3433L36.9227 34.0621C37.379 33.5121 37.8852 33.0057 38.435 32.5493L37.7162 29.8974C37.6143 29.5208 37.8079 29.1269 38.1683 28.9776L42.3689 27.238L42.4371 27.2132C42.7805 27.1069 43.1572 27.2514 43.3392 27.5688L44.6909 29.9262C45.0514 29.8918 45.413 29.8732 45.7759 29.8732H45.7779C46.1393 29.8741 46.5003 29.8934 46.8599 29.9277L48.2126 27.5688ZM50.6897 41.403C50.6897 38.6548 48.5719 36.4892 46.0345 36.4892C43.4972 36.4892 41.3794 38.6548 41.3794 41.403C41.3794 44.1512 43.4972 46.3168 46.0345 46.3168C48.5719 46.3168 50.6897 44.1512 50.6897 41.403ZM19.5658 5.26631C19.7727 4.97236 20.1588 4.85662 20.4967 4.99657L25.4247 7.03826C25.7851 7.18761 25.9788 7.58151 25.8768 7.95808L25.0191 11.1196C25.7153 11.6884 26.353 12.3252 26.9219 13.0214L30.0834 12.1647L30.1541 12.1485C30.5083 12.0869 30.8631 12.2783 31.0032 12.6163L33.0444 17.5442C33.1937 17.9047 33.052 18.32 32.7135 18.514L29.8717 20.1426C29.9173 20.5892 29.9413 21.038 29.9425 21.4872V21.4897C29.9421 21.9396 29.9187 22.3882 29.8733 22.8353L32.7135 24.4643C33.052 24.6585 33.1937 25.0737 33.0444 25.4342L31.0027 30.3621C30.8533 30.7226 30.4595 30.9158 30.0829 30.8137L26.8895 29.9474C26.3267 30.6348 25.6972 31.2644 25.01 31.8275L25.8763 35.0208C25.9784 35.3974 25.7851 35.7913 25.4247 35.9406L20.4967 37.9818C20.1363 38.1311 19.721 37.9894 19.5269 37.651L17.8979 34.8107C17.4506 34.8563 17.0019 34.8799 16.5518 34.8799H16.5513C16.101 34.8795 15.6522 34.8561 15.2051 34.8107L13.5766 37.651C13.3825 37.9895 12.9673 38.1311 12.6068 37.9818L7.67886 35.9401C7.31836 35.7908 7.12515 35.3969 7.22728 35.0203L8.09305 31.827C7.40572 31.2641 6.77599 30.6346 6.213 29.9474L3.02015 30.8137C2.64356 30.9158 2.24972 30.7225 2.10033 30.3621L0.059144 25.4342C-0.0901317 25.0737 0.0515171 24.6584 0.389997 24.4643L3.22977 22.8353C3.18418 22.388 3.16108 21.9393 3.16108 21.4892C3.16108 21.0387 3.18416 20.5898 3.22977 20.1426L0.389997 18.514C0.0515118 18.3199 -0.0901326 17.9047 0.059144 17.5442L2.10083 12.6163C2.2502 12.2558 2.64404 12.0626 3.02065 12.1647L6.21351 13.0305C6.77629 12.3432 7.4059 11.7134 8.09305 11.1504L7.22728 7.95758C7.12516 7.58099 7.31842 7.18715 7.67886 7.03776L12.6068 4.99657L12.675 4.97182C13.0183 4.86567 13.3947 5.01012 13.5766 5.32743L15.2051 8.1672C15.6524 8.12159 16.1013 8.09851 16.5518 8.09851H16.5538C17.0028 8.09963 17.4514 8.12317 17.8979 8.16872L19.5269 5.32743L19.5658 5.26631ZM24.3104 21.4892C24.3104 17.2042 20.8367 13.7306 16.5518 13.7306C12.2668 13.7306 8.79315 17.2042 8.79315 21.4892C8.79315 25.7742 12.2668 29.2478 16.5518 29.2478C20.8367 29.2478 24.3104 25.7742 24.3104 21.4892ZM39.5614 0.227245C39.8644 -0.0757482 40.3556 -0.0757482 40.6585 0.227245C40.9615 0.530238 40.9615 1.02137 40.6585 1.32436L37.0454 4.93747H51.7242C52.1527 4.93747 52.5 5.28484 52.5 5.71334V17.2886L56.1132 13.6755C56.4161 13.3725 56.9073 13.3725 57.2103 13.6755C57.5133 13.9785 57.5133 14.4696 57.2103 14.7726L52.2727 19.7102C51.9697 20.0132 51.4786 20.0132 51.1756 19.7102L46.2381 14.7726C45.9351 14.4696 45.9351 13.9785 46.2381 13.6755C46.5411 13.3725 47.0322 13.3725 47.3352 13.6755L50.9483 17.2886V6.4892H37.0454L40.6585 10.1023C40.9615 10.4053 40.9615 10.8964 40.6585 11.1994C40.3556 11.5024 39.8644 11.5024 39.5614 11.1994L34.6239 6.2619C34.3209 5.9589 34.3209 5.46777 34.6239 5.16478L39.5614 0.227245ZM35.7978 41.403C35.7978 41.8696 35.8309 42.3343 35.8968 42.7971C35.9415 43.1115 35.7903 43.4215 35.5149 43.5795L33.305 44.8459L34.5234 47.7862L37.0086 47.1123L37.0656 47.0987C37.354 47.0435 37.6513 47.1563 37.8304 47.3932C38.3885 48.1318 39.0464 48.7896 39.7852 49.3475C40.0381 49.5384 40.1495 49.864 40.0665 50.1698L39.3922 52.655L42.3325 53.8729L43.5993 51.664L43.6307 51.614C43.796 51.3707 44.0867 51.2404 44.3813 51.2821C44.8438 51.3476 45.3086 51.3802 45.7759 51.3806C46.2426 51.3806 46.7072 51.348 47.17 51.2821L47.2291 51.276C47.5227 51.2568 47.8043 51.4058 47.9525 51.664L49.2188 53.8734L52.1591 52.655L51.4853 50.1703C51.4024 49.8647 51.5135 49.5394 51.7661 49.3485C52.5048 48.7904 53.1625 48.1325 53.7204 47.3937L53.7578 47.3477C53.952 47.1274 54.256 47.0346 54.5427 47.1123L57.0279 47.7862L58.2458 44.8459L56.0369 43.5795C55.7618 43.4217 55.6107 43.1122 55.655 42.7981C55.7204 42.3357 55.7535 41.8712 55.754 41.405L55.7469 41.0545C55.734 40.7045 55.7026 40.3553 55.6535 40.0084C55.609 39.6941 55.7605 39.3843 56.0359 39.2264L58.2458 37.9591L57.0279 35.0193L54.57 35.6866C54.2639 35.7696 53.938 35.658 53.7472 35.4047C53.185 34.6585 52.5209 33.9949 51.7747 33.4327C51.5214 33.2419 51.4099 32.916 51.4928 32.6099L52.1591 30.151L49.2193 28.9326L47.9525 31.143C47.7946 31.4184 47.4848 31.5699 47.1705 31.5254C46.708 31.4599 46.2415 31.4261 45.7744 31.4249C45.3078 31.425 44.8436 31.4581 44.3818 31.5239C44.0674 31.5687 43.7574 31.4174 43.5993 31.142L42.3325 28.9321L39.3922 30.1505L40.0665 32.6356C40.1494 32.9413 40.0383 33.2665 39.7857 33.4575C39.0471 34.0156 38.3893 34.6735 37.8314 35.4123C37.6405 35.6651 37.3149 35.7766 37.0091 35.6936L34.5234 35.0193L33.3055 37.9596L35.5149 39.2264C35.7903 39.3845 35.9416 39.6945 35.8968 40.0089C35.8309 40.4712 35.7978 40.9358 35.7978 41.403ZM52.2414 41.403C52.2414 44.9394 49.4961 47.8685 46.0345 47.8685C42.5729 47.8685 39.8276 44.9394 39.8276 41.403C39.8276 37.8666 42.5729 34.9375 46.0345 34.9375C49.4961 34.9375 52.2414 37.8666 52.2414 41.403ZM4.7128 21.4892C4.7128 22.0429 4.75181 22.5943 4.82999 23.1435C4.87475 23.4579 4.72313 23.7679 4.44761 23.9259L1.75331 25.4705L3.27271 29.1377L6.3019 28.3164L6.35949 28.3027C6.64783 28.2476 6.94523 28.3603 7.12424 28.5972C7.78643 29.4737 8.56709 30.2543 9.44374 30.9162C9.69641 31.1071 9.80741 31.4324 9.72459 31.7381L8.90276 34.7672L12.5699 36.2866L14.1151 33.5934L14.1464 33.5428C14.3117 33.2997 14.602 33.1694 14.8965 33.211C15.4454 33.2887 15.9972 33.3272 16.5518 33.3277C17.1055 33.3277 17.6568 33.2892 18.206 33.211C18.5205 33.1662 18.8305 33.3178 18.9885 33.5934L20.5331 36.2871L24.2003 34.7678L23.379 31.7391C23.296 31.4333 23.4071 31.1077 23.6598 30.9167C24.5362 30.2545 25.3169 29.4739 25.9788 28.5972L26.0162 28.5518C26.2103 28.3316 26.514 28.2387 26.8006 28.3164L29.8298 29.1377L31.3492 25.4705L28.6559 23.9259C28.3807 23.768 28.2291 23.4587 28.2735 23.1445C28.3512 22.5957 28.3901 22.0446 28.3907 21.4912L28.3827 21.0755C28.3673 20.6603 28.3303 20.246 28.272 19.8344C28.2275 19.5201 28.379 19.2099 28.6544 19.052L31.3492 17.5068L29.8303 13.8402L26.8324 14.6539C26.5263 14.7369 26.2004 14.6254 26.0096 14.3721C25.3426 13.4867 24.5553 12.6988 23.6699 12.0319C23.4167 11.8411 23.3047 11.5155 23.3875 11.2095L24.2003 8.21064L20.5336 6.69125L18.989 9.38656C18.8311 9.66199 18.5209 9.81346 18.2065 9.76893C17.6578 9.69122 17.1044 9.65163 16.5503 9.65023C15.9965 9.6503 15.4456 9.68932 14.8975 9.76742C14.583 9.81223 14.2731 9.66059 14.1151 9.38504L12.5699 6.69074L8.90276 8.21014L9.72459 11.2393C9.8075 11.5451 9.69648 11.8707 9.44374 12.0617C8.5673 12.7239 7.78666 13.5045 7.12474 14.3812C6.93382 14.6338 6.60859 14.7448 6.30291 14.662L3.27321 13.8402L1.75382 17.5073L4.44761 19.0525C4.72316 19.2105 4.8748 19.5205 4.82999 19.8349C4.75182 20.3836 4.7128 20.9349 4.7128 21.4892ZM25.8621 21.4892C25.8621 26.6312 21.6937 30.7995 16.5518 30.7995C11.4098 30.7995 7.24142 26.6312 7.24142 21.4892C7.24142 16.3472 11.4098 12.1789 16.5518 12.1789C21.6937 12.1789 25.8621 16.3472 25.8621 21.4892Z" fill="var(--fill-0, white)"/>
</svg>
