<svg preserveAspectRatio="none" width="100%" height="100%" overflow="visible" style="display: block;" viewBox="0 0 63 58" fill="none" xmlns="http://www.w3.org/2000/svg">
<g id="graduation-cap--graduation-cap-education">
<path id="Rectangle 645 (Stroke)" d="M31.2179 0.0428355C31.4322 -0.0239119 31.665 -0.0126068 31.8731 0.0764226L62.4353 13.1506C62.7782 13.2973 63 13.631 63 14.0001C63 14.3691 62.7782 14.7028 62.4353 14.8496L31.8731 27.9237C31.6353 28.0254 31.3652 28.0254 31.1274 27.9237L0.56522 14.8496C0.222217 14.7028 2.42429e-07 14.3691 0 14.0001C1.11703e-05 13.631 0.222227 13.2973 0.56522 13.1506L31.1274 0.0764226L31.2179 0.0428355ZM3.29607 14.0001L31.5 26.065L59.7034 14.0001L31.5 1.93456L3.29607 14.0001Z" fill="var(--fill-0, white)"/>
<path id="Ellipse 346 (Stroke)" d="M47.8551 37.7032C48.5725 38.2362 48.5863 38.2478 48.5863 38.2478L48.5853 38.2488L48.5837 38.2513C48.5823 38.2531 48.5806 38.2553 48.5786 38.2578C48.5745 38.263 48.5688 38.2697 48.5622 38.2779C48.5491 38.2942 48.531 38.3164 48.5078 38.3441C48.4615 38.3995 48.3949 38.4769 48.3078 38.5733C48.1336 38.766 47.8768 39.0347 47.5346 39.3535C46.8502 39.9911 45.8223 40.8313 44.4276 41.6683C41.6322 43.3457 37.3792 45 31.5013 45C25.6234 44.9999 21.3765 43.3457 18.5873 41.6678C17.1959 40.8307 16.1716 39.9903 15.4896 39.3525C15.1485 39.0335 14.8925 38.7647 14.7189 38.5718C14.6323 38.4755 14.5661 38.398 14.5199 38.3426C14.4968 38.3148 14.4787 38.2922 14.4656 38.2759C14.459 38.2677 14.4537 38.261 14.4497 38.2558C14.4477 38.2533 14.446 38.2511 14.4445 38.2493L14.4425 38.2468L14.4415 38.2458C14.3213 38.0903 14.2557 37.9001 14.2553 37.7052L14.2256 20.9006C14.2245 20.4043 14.635 20.0011 15.1424 20C15.6499 19.9989 16.0623 20.4003 16.0634 20.8966L16.0921 37.3773C16.0943 37.3797 16.0966 37.3823 16.0988 37.3848C16.2401 37.5418 16.4596 37.773 16.7598 38.0537C17.3605 38.6156 18.2832 39.375 19.5503 40.1373C22.0789 41.6585 25.996 43.2027 31.5013 43.2027C37.0068 43.2027 40.9309 41.6579 43.4666 40.1363C44.7373 39.3738 45.6637 38.6143 46.267 38.0522C46.5684 37.7714 46.789 37.5404 46.931 37.3833C46.9327 37.3814 46.934 37.3791 46.9356 37.3773L46.9331 20.8986C46.9331 20.4025 47.3442 20.0002 47.8515 20C48.359 19.9998 48.7708 20.4023 48.7709 20.8986L48.774 37.7032C48.774 37.8996 48.7082 38.0904 48.5868 38.2468L47.8551 37.7032Z" fill="var(--fill-0, white)"/>
<path id="Ellipse 347 (Stroke)" d="M6.09668 45.0803V16.9197C6.09668 16.4117 6.55162 16 7.11281 16C7.674 16 8.12894 16.4117 8.12894 16.9197V45.0803L8.12383 45.1747C8.07168 45.6384 7.63884 46 7.11281 46C6.58678 46 6.15394 45.6384 6.10178 45.1747L6.09668 45.0803Z" fill="var(--fill-0, white)"/>
<path id="Vector (Stroke)" d="M11.3215 51.5002C11.3214 48.9367 9.20984 46.8584 6.6051 46.8582C4.00025 46.8582 1.88825 48.9366 1.88823 51.5002C1.88823 54.0638 4.00013 56.1417 6.6051 56.1417C9.20996 56.1416 11.3215 54.0637 11.3215 51.5002ZM13.2097 51.5002C13.2097 55.0901 10.2527 57.9999 6.6051 58C2.95738 58 0 55.0902 0 51.5002C2.23887e-05 47.9105 2.95729 45 6.6051 45C10.2528 45.0001 13.2097 47.9105 13.2097 51.5002Z" fill="var(--fill-0, white)"/>
</g>
</svg>
