<svg preserveAspectRatio="none" width="100%" height="100%" overflow="visible" style="display: block;" viewBox="0 0 50.5603 56.1581" fill="none" xmlns="http://www.w3.org/2000/svg">
<path id="Union" fill-rule="evenodd" clip-rule="evenodd" d="M25.2802 0C26.4075 0 27.5149 0.296616 28.4912 0.860217L28.4907 0.860722L37.3954 5.94878C37.7549 5.9465 38.1052 6.13126 38.2981 6.46451L47.3453 11.6339L47.3493 11.6364C48.1886 12.121 48.9048 12.7887 49.4476 13.5867C49.5438 13.6643 49.6284 13.7597 49.6941 13.8731C49.7529 13.9749 49.7914 14.083 49.8128 14.1923C50.3017 15.1154 50.5593 16.1448 50.5603 17.1917V38.7456C50.5592 39.8718 50.2617 40.9781 49.6981 41.9531C49.1345 42.9281 48.3246 43.7378 47.3493 44.3009L47.3453 44.3034L38.2966 49.4733C38.1175 49.7814 37.785 49.9891 37.403 49.9891C37.4005 49.9891 37.398 49.9886 37.3954 49.9886L28.4872 55.0791L28.4867 55.0786C27.7095 55.5265 26.8495 55.805 25.9626 55.9C25.7804 56.0603 25.542 56.1581 25.2802 56.1581C25.0183 56.1581 24.7795 56.0604 24.5973 55.9C23.7103 55.8049 22.8503 55.5266 22.0732 55.0786L13.1644 49.9886C13.162 49.9886 13.1597 49.9891 13.1573 49.9891C12.7752 49.9891 12.4424 49.7815 12.2633 49.4733L3.21508 44.3034L3.21104 44.3009C2.23578 43.7378 1.42584 42.9281 0.862237 41.9531C0.298625 40.9781 0.00116986 39.8718 0 38.7456V17.1917L0.00353583 16.9806C0.0365609 16.0067 0.291067 15.0532 0.74707 14.1923C0.768473 14.083 0.807395 13.9749 0.866278 13.8731C0.93183 13.7598 1.01615 13.6642 1.11227 13.5867C1.65506 12.7886 2.37168 12.1211 3.21104 11.6364L3.21508 11.6339L12.2618 6.464C12.4546 6.13101 12.8052 5.94668 13.1644 5.94878L22.0691 0.860722C23.0454 0.297121 24.1529 1.29835e-07 25.2802 0ZM2.27303 15.8814C2.13887 16.3041 2.06943 16.7466 2.06897 17.1937V27.3714L13.6751 34.0768C13.9949 34.2616 14.1917 34.6035 14.1918 34.9729V48.1924L23.0996 53.2829L23.1036 53.285C23.4622 53.492 23.8469 53.6455 24.2457 53.7431V28.5917L2.27303 15.8814ZM26.3147 28.5917V53.7431C26.7134 53.6455 27.0982 53.492 27.4567 53.285L27.4608 53.2829L36.3685 48.1924V34.9729L36.3711 34.9037C36.394 34.5612 36.5855 34.2501 36.8853 34.0768L48.4914 27.3714V17.1937C48.4909 16.7465 48.421 16.3042 48.2868 15.8814L26.3147 28.5917ZM2.06897 38.7436L2.07149 38.8866C2.0957 39.6003 2.29524 40.298 2.65339 40.9176C3.03463 41.5772 3.58222 42.1251 4.24148 42.5067L12.1228 47.0104V35.5694L2.06897 29.7606V38.7436ZM38.4375 35.5694V47.0104L46.3189 42.5067C46.9781 42.1251 47.5257 41.5772 47.907 40.9176C48.2888 40.257 48.4904 39.5076 48.4914 38.7446V29.7606L38.4375 35.5694ZM25.7979 14.8828C25.4777 15.0678 25.0826 15.0678 24.7624 14.8828L13.2947 8.25667L4.24148 13.4306C3.91456 13.6198 3.61528 13.8502 3.34995 14.1145L25.2802 26.8006L47.2099 14.1145C46.9446 13.8503 46.6457 13.6198 46.3189 13.4306L37.2651 8.25667L25.7979 14.8828ZM25.2802 2.06897C24.516 2.06897 23.7654 2.2703 23.1036 2.65238L23.0996 2.6544L15.3743 7.06863L25.2802 12.7916L35.1855 7.06863L27.4608 2.6544L27.4567 2.65238C26.7949 2.2703 26.0443 2.06897 25.2802 2.06897Z" fill="var(--fill-0, white)"/>
</svg>
