<svg width="75" height="75" viewBox="0 0 75 75" fill="none" xmlns="http://www.w3.org/2000/svg">
<path d="M24.8049 54.7028C24.8206 53.5602 25.9945 53.7424 26.7887 53.7457L46.5318 53.7405C47.07 53.739 47.5895 53.7269 48.1292 53.7687C49.0203 53.8374 49.959 55.6698 47.1286 55.6565L27.135 55.66C26.2809 55.6609 24.788 55.9375 24.8049 54.7028Z" fill="white"/>
<path d="M32.3124 49.7469C33.7477 49.7212 35.926 49.1877 36.3154 50.7559C36.1796 51.3144 36.0603 51.509 35.5216 51.7292C34.7446 51.8397 33.6078 51.6518 32.8353 51.7339C31.4086 51.8855 31.0251 50.1631 32.3124 49.7469Z" fill="white"/>
<path d="M25.6195 49.7469C26.3376 49.7261 28.5237 49.6326 29.0676 49.8864C30.0605 50.3498 29.6095 51.49 28.7289 51.7292C27.9806 51.7323 25.9029 51.8588 25.3336 51.5926C24.3935 51.1526 24.7421 49.9833 25.6195 49.7469Z" fill="white"/>
<path fill-rule="evenodd" clip-rule="evenodd" d="M46.5499 41.5302C48.4278 41.3347 50.1105 42.6848 50.3112 44.5481C50.5115 46.4114 49.154 48.084 47.2768 48.2863C45.3945 48.4891 43.7038 47.1376 43.5027 45.2695C43.3018 43.4014 44.6668 41.7262 46.5499 41.5302ZM46.7811 43.3569C45.9245 43.4212 45.2794 44.1574 45.3337 45.0083C45.3883 45.8591 46.1224 46.5084 46.9804 46.4642C47.5446 46.4353 48.0496 46.1075 48.3024 45.6062C48.5553 45.1049 48.5172 44.5072 48.2024 44.0419C47.8875 43.5764 47.3444 43.3147 46.7811 43.3569Z" fill="white"/>
<path fill-rule="evenodd" clip-rule="evenodd" d="M28.9338 14.5045C34.1229 14.1062 39.6796 17.0329 42.947 20.8783C43.5302 21.5646 44.1202 22.5382 44.624 23.2966C51.0244 18.4216 59.7384 23.3554 60.0248 31.1016C66.2676 31.0845 71.4055 35.9214 71.3953 42.1333C71.3842 48.8375 66.0508 53.0776 59.6134 53.0612L54.327 53.0578L54.3299 56.2908C54.3324 60.1998 53.8464 60.4795 49.6418 60.4793H45.5057L23.8717 60.5024C20.9427 60.5302 20.8322 58.2504 20.832 56.0181L20.8338 53.0578L17.0561 53.0589C14.3041 53.0587 12.1695 53.222 9.61946 51.8774C0.747309 47.1995 2.00463 34.545 11.6567 31.5421C11.689 22.2875 19.5755 14.5771 28.9338 14.5045ZM52.4635 40.2432C52.4148 38.5501 49.8188 39.0277 48.5923 39.0283L26.3476 39.0294C22.7169 39.0147 22.6671 38.5344 22.6682 42.0249L22.6677 57.4204C22.6763 59.2635 25.1153 58.6837 26.5888 58.682L48.7916 58.6814C53.0649 58.6931 52.4822 59.0493 52.4821 55.1572V43.4953C52.4829 42.4106 52.4945 41.3278 52.4635 40.2432ZM42.5972 23.6847C39.6407 18.867 34.2111 16.0609 28.4091 16.3502C20.6003 17.0208 14.2406 22.533 13.5737 30.5031C13.2496 34.378 13.7605 32.184 10.3406 34.0613C2.84139 38.1779 4.50609 49.2422 12.4278 51.0073C13.9208 51.3401 15.907 51.2541 17.4628 51.2541L20.8338 51.2524L20.8332 43.3955C20.8327 41.2718 20.2684 37.6699 23.2761 37.2604C24.0506 37.1718 24.9549 37.2085 25.7427 37.2091L46.6074 37.2119L49.4053 37.2091C50.8353 37.2089 52.3458 37.0165 53.4263 38.1495C54.7164 39.5022 54.3286 42.1037 54.3276 43.8925L54.327 51.2524C55.6083 51.2541 59.5104 51.2867 60.7866 51.2345C71.9582 50.7789 72.6427 34.058 61.0109 32.9704C59.2333 32.8042 58.1499 33.4989 58.2305 31.0612C58.0439 24.946 50.9003 20.9067 45.7728 24.7456C43.4791 26.4627 44.1917 25.9983 42.5972 23.6847Z" fill="white"/>
</svg>
