<svg preserveAspectRatio="none" width="100%" height="100%" overflow="visible" style="display: block;" viewBox="0 0 16 15.9998" fill="none" xmlns="http://www.w3.org/2000/svg">
<path id="draw" d="M7.29297 0.292893C7.68349 -0.0976311 8.31651 -0.0976311 8.70703 0.292893L15.707 7.29289C15.7548 7.34071 15.7976 7.39346 15.835 7.45012C15.8597 7.48761 15.8812 7.52654 15.9004 7.56633C15.9222 7.61152 15.9412 7.6583 15.9561 7.70696C15.9623 7.72724 15.9668 7.74791 15.9717 7.76848C15.9893 7.84284 16 7.92017 16 7.99992C16 8.08292 15.9878 8.16305 15.9688 8.24016C15.9646 8.25709 15.9611 8.2742 15.9561 8.29094C15.9412 8.33994 15.9223 8.38705 15.9004 8.43254C15.8804 8.47421 15.8572 8.51451 15.8311 8.55364C15.8185 8.57248 15.8048 8.59041 15.791 8.60832C15.7649 8.64213 15.738 8.67596 15.707 8.70696L8.70703 15.707C8.31652 16.0974 7.68348 16.0974 7.29297 15.707C6.90246 15.3164 6.90248 14.6834 7.29297 14.2929L12.5859 8.99992H1C0.44774 8.99992 4.07147e-05 8.55217 0 7.99992C0 7.44764 0.447715 6.99992 1 6.99992H12.5859L7.29297 1.70696C6.90246 1.31644 6.90248 0.683421 7.29297 0.292893Z" fill="var(--fill-0, white)"/>
</svg>
