<svg width="75" height="75" viewBox="0 0 75 75" fill="none" xmlns="http://www.w3.org/2000/svg">
<path d="M14.9687 48.0721C15.2717 47.7691 15.7629 47.7691 16.0658 48.0721L21.0034 53.0096C21.3064 53.3126 21.3064 53.8037 21.0034 54.1067C20.7004 54.4097 20.2093 54.4097 19.9063 54.1067L16.2931 50.4936V61.293H30.196L26.5829 57.6799C26.2799 57.3769 26.2799 56.8858 26.5829 56.5828C26.8859 56.2798 27.377 56.2798 27.68 56.5828L32.6176 61.5203C32.9206 61.8233 32.9206 62.3145 32.6176 62.6174L27.68 67.555C27.377 67.858 26.8859 67.858 26.5829 67.555C26.2799 67.252 26.2799 66.7609 26.5829 66.4579L30.196 62.8447H15.5173C15.0888 62.8447 14.7414 62.4974 14.7414 62.0689V50.4936L11.1283 54.1067C10.8253 54.4097 10.3342 54.4097 10.0312 54.1067C9.7282 53.8037 9.7282 53.3126 10.0312 53.0096L14.9687 48.0721ZM55.7126 35.3037C55.9067 34.9651 56.3224 34.8234 56.6829 34.9728L60.8835 36.7135C61.2438 36.8628 61.4375 37.2563 61.3356 37.6328L60.6239 40.2579C61.1814 40.7194 61.6938 41.2324 62.1554 41.7899L64.781 41.0782C65.1576 40.976 65.552 41.1697 65.7013 41.5303L67.4409 45.7308C67.5903 46.0914 67.4487 46.5071 67.1101 46.7012L64.7507 48.0534C64.7851 48.4131 64.8048 48.7742 64.8057 49.1358V49.1384C64.8054 49.5006 64.7859 49.8617 64.7517 50.2218L67.1101 51.5745C67.4486 51.7687 67.5903 52.1844 67.4409 52.5449L65.7003 56.7454C65.5509 57.1059 65.1571 57.2997 64.7805 57.1975L62.1286 56.4782C61.6723 57.0282 61.1661 57.5346 60.6163 57.9911L61.3356 60.6434C61.4375 61.02 61.2439 61.414 60.8835 61.5633L56.6829 63.3029C56.3224 63.4522 55.9067 63.3105 55.7126 62.972L54.3604 60.6141C53.9999 60.6485 53.6385 60.6677 53.2759 60.6677H53.2754C52.9129 60.6674 52.5515 60.6479 52.1914 60.6136L50.8392 62.972C50.6451 63.3106 50.2294 63.4523 49.8689 63.3029L45.6683 61.5623C45.3078 61.4129 45.1141 61.019 45.2162 60.6424L45.935 57.9906C45.3851 57.5342 44.8787 57.0281 44.4222 56.4782L41.7703 57.1975C41.3938 57.2995 40.9998 57.1059 40.8505 56.7454L39.1109 52.5449C38.9615 52.1844 39.1032 51.7687 39.4417 51.5745L41.7991 50.2223C41.7647 49.8619 41.7461 49.5004 41.7461 49.1379C41.7461 48.7749 41.7647 48.4133 41.7991 48.0529L39.4417 46.7012C39.1032 46.507 38.9615 46.0914 39.1109 45.7308L40.8515 41.5303L40.8823 41.4646C41.0501 41.1467 41.4183 40.9824 41.7713 41.0782L44.4227 41.797C44.879 41.247 45.3852 40.7406 45.935 40.2841L45.2162 37.6323C45.1143 37.2557 45.3079 36.8617 45.6683 36.7124L49.8689 34.9728L49.9371 34.9481C50.2805 34.8417 50.6572 34.9863 50.8392 35.3037L52.1909 37.6611C52.5514 37.6267 52.913 37.608 53.2759 37.608H53.2779C53.6393 37.6089 54.0003 37.6282 54.3599 37.6626L55.7126 35.3037ZM58.1897 49.1379C58.1897 46.3896 56.0719 44.2241 53.5345 44.2241C50.9972 44.2241 48.8794 46.3896 48.8794 49.1379C48.8794 51.8861 50.9972 54.0516 53.5345 54.0516C56.0719 54.0516 58.1897 51.8861 58.1897 49.1379ZM27.0658 13.0012C27.2727 12.7072 27.6588 12.5915 27.9967 12.7314L32.9247 14.7731C33.2851 14.9225 33.4788 15.3164 33.3768 15.6929L32.5191 18.8545C33.2153 19.4233 33.853 20.0601 34.4219 20.7563L37.5834 19.8996L37.6541 19.8834C38.0083 19.8217 38.3631 20.0132 38.5032 20.3512L40.5444 25.2791C40.6937 25.6396 40.552 26.0548 40.2135 26.2489L37.3717 27.8774C37.4173 28.3241 37.4413 28.7728 37.4425 29.222V29.2246C37.4421 29.6745 37.4187 30.1231 37.3733 30.5702L40.2135 32.1992C40.552 32.3933 40.6937 32.8085 40.5444 33.169L38.5027 38.097C38.3533 38.4575 37.9595 38.6507 37.5829 38.5485L34.3895 37.6823C33.8267 38.3696 33.1972 38.9993 32.51 39.5623L33.3763 42.7557C33.4784 43.1323 33.2851 43.5261 32.9247 43.6755L27.9967 45.7167C27.6362 45.866 27.221 45.7243 27.0269 45.3858L25.3979 42.5456C24.9506 42.5912 24.5019 42.6148 24.0518 42.6148H24.0513C23.601 42.6144 23.1522 42.591 22.7051 42.5456L21.0766 45.3858C20.8825 45.7243 20.4673 45.866 20.1068 45.7167L15.1789 43.675C14.8184 43.5256 14.6251 43.1318 14.7273 42.7552L15.5931 39.5618C14.9057 38.999 14.276 38.3695 13.713 37.6823L10.5201 38.5485C10.1436 38.6507 9.74972 38.4574 9.60033 38.097L7.55914 33.169C7.40987 32.8085 7.55152 32.3933 7.89 32.1992L10.7298 30.5702C10.6842 30.1229 10.6611 29.6742 10.6611 29.2241C10.6611 28.7736 10.6842 28.3247 10.7298 27.8774L7.89 26.2489C7.55151 26.0548 7.40987 25.6396 7.55914 25.2791L9.60083 20.3512C9.7502 19.9907 10.144 19.7974 10.5207 19.8996L13.7135 20.7653C14.2763 20.078 14.9059 19.4483 15.5931 18.8853L14.7273 15.6924C14.6252 15.3159 14.8184 14.922 15.1789 14.7726L20.1068 12.7314L20.175 12.7067C20.5183 12.6005 20.8947 12.745 21.0766 13.0623L22.7051 15.9021C23.1524 15.8565 23.6013 15.8334 24.0518 15.8334H24.0538C24.5028 15.8345 24.9514 15.858 25.3979 15.9036L27.0269 13.0623L27.0658 13.0012ZM31.8104 29.2241C31.8104 24.9391 28.3367 21.4654 24.0518 21.4654C19.7668 21.4654 16.2931 24.9391 16.2931 29.2241C16.2931 33.509 19.7668 36.9827 24.0518 36.9827C28.3367 36.9827 31.8104 33.509 31.8104 29.2241ZM47.0614 7.96211C47.3644 7.65912 47.8556 7.65912 48.1585 7.96211C48.4615 8.2651 48.4615 8.75623 48.1585 9.05923L44.5454 12.6723H59.2242C59.6527 12.6723 60 13.0197 60 13.4482V25.0235L63.6132 21.4104C63.9161 21.1074 64.4073 21.1074 64.7103 21.4104C65.0133 21.7134 65.0133 22.2045 64.7103 22.5075L59.7727 27.445C59.4697 27.748 58.9786 27.748 58.6756 27.445L53.7381 22.5075C53.4351 22.2045 53.4351 21.7134 53.7381 21.4104C54.0411 21.1074 54.5322 21.1074 54.8352 21.4104L58.4483 25.0235V14.2241H44.5454L48.1585 17.8372C48.4615 18.1402 48.4615 18.6313 48.1585 18.9343C47.8556 19.2373 47.3644 19.2373 47.0614 18.9343L42.1239 13.9968C41.8209 13.6938 41.8209 13.2026 42.1239 12.8996L47.0614 7.96211ZM43.2978 49.1379C43.2978 49.6045 43.3309 50.0691 43.3968 50.532C43.4416 50.8463 43.2903 51.1564 43.0149 51.3144L40.805 52.5807L42.0234 55.521L44.5086 54.8472L44.5656 54.8336C44.854 54.7783 45.1513 54.8911 45.3304 55.1281C45.8885 55.8667 46.5464 56.5245 47.2852 57.0824C47.5381 57.2733 47.6495 57.5989 47.5665 57.9047L46.8922 60.3899L49.8325 61.6077L51.0993 59.3988L51.1307 59.3488C51.296 59.1055 51.5867 58.9752 51.8813 59.017C52.3438 59.0825 52.8086 59.115 53.2759 59.1155C53.7426 59.1155 54.2072 59.0829 54.67 59.017L54.7291 59.0109C55.0227 58.9917 55.3043 59.1407 55.4525 59.3988L56.7188 61.6082L59.6591 60.3899L58.9853 57.9052C58.9024 57.5996 59.0135 57.2743 59.2661 57.0834C60.0048 56.5253 60.6625 55.8674 61.2204 55.1286L61.2578 55.0826C61.452 54.8623 61.756 54.7695 62.0427 54.8472L64.5279 55.521L65.7458 52.5807L63.5369 51.3144C63.2618 51.1565 63.1107 50.8471 63.155 50.533C63.2205 50.0706 63.2535 49.6061 63.254 49.1399L63.2469 48.7893C63.234 48.4393 63.2026 48.0902 63.1535 47.7432C63.109 47.4289 63.2605 47.1192 63.5359 46.9613L65.7458 45.694L64.5279 42.7542L62.07 43.4214C61.7639 43.5044 61.438 43.3929 61.2472 43.1396C60.685 42.3934 60.0209 41.7297 59.2747 41.1676C59.0214 40.9768 58.9099 40.6508 58.9928 40.3447L59.6591 37.8858L56.7193 36.6675L55.4525 38.8779C55.2946 39.1532 54.9848 39.3048 54.6705 39.2603C54.208 39.1947 53.7415 39.1609 53.2744 39.1597C52.8078 39.1598 52.3436 39.1929 51.8818 39.2587C51.5674 39.3035 51.2574 39.1523 51.0993 38.8769L49.8325 36.667L46.8922 37.8853L47.5665 40.3705C47.6494 40.6762 47.5383 41.0014 47.2857 41.1923C46.5471 41.7504 45.8893 42.4083 45.3314 43.1471C45.1405 43.4 44.8149 43.5114 44.5091 43.4285L42.0234 42.7542L40.8055 45.6945L43.0149 46.9613C43.2903 47.1194 43.4416 47.4293 43.3968 47.7437C43.3309 48.2061 43.2978 48.6707 43.2978 49.1379ZM59.7414 49.1379C59.7414 52.6743 56.9961 55.6034 53.5345 55.6034C50.0729 55.6034 47.3276 52.6743 47.3276 49.1379C47.3276 45.6015 50.0729 42.6723 53.5345 42.6723C56.9961 42.6723 59.7414 45.6015 59.7414 49.1379ZM12.2128 29.2241C12.2128 29.7778 12.2518 30.3291 12.33 30.8783C12.3748 31.1928 12.2231 31.5028 11.9476 31.6608L9.25331 33.2054L10.7727 36.8726L13.8019 36.0512L13.8595 36.0376C14.1478 35.9825 14.4452 36.0952 14.6242 36.3321C15.2864 37.2085 16.0671 37.9892 16.9437 38.6511C17.1964 38.842 17.3074 39.1672 17.2246 39.4729L16.4028 42.5021L20.0699 44.0215L21.6151 41.3282L21.6464 41.2777C21.8117 41.0345 22.102 40.9042 22.3965 40.9458C22.9454 41.0236 23.4972 41.062 24.0518 41.0625C24.6055 41.0625 25.1568 41.024 25.706 40.9458C26.0205 40.9011 26.3305 41.0527 26.4885 41.3282L28.0331 44.022L31.7003 42.5026L30.879 39.4739C30.796 39.1682 30.9071 38.8425 31.1598 38.6516C32.0362 37.9894 32.8169 37.2087 33.4788 36.3321L33.5162 36.2866C33.7103 36.0664 34.014 35.9736 34.3006 36.0512L37.3298 36.8726L38.8492 33.2054L36.1559 31.6608C35.8807 31.5029 35.7291 31.1935 35.7736 30.8793C35.8512 30.3305 35.8901 29.7794 35.8907 29.2261L35.8827 28.8104C35.8673 28.3951 35.8303 27.9809 35.772 27.5693C35.7275 27.255 35.879 26.9447 36.1544 26.7869L38.8492 25.2417L37.3303 21.5751L34.3324 22.3888C34.0263 22.4718 33.7004 22.3603 33.5096 22.1069C32.8426 21.2216 32.0553 20.4337 31.1699 19.7667C30.9167 19.576 30.8047 19.2504 30.8875 18.9444L31.7003 15.9455L28.0336 14.4261L26.489 17.1214C26.3311 17.3969 26.0209 17.5483 25.7065 17.5038C25.1578 17.4261 24.6044 17.3865 24.0503 17.3851C23.4965 17.3852 22.9456 17.4242 22.3975 17.5023C22.083 17.5471 21.7731 17.3955 21.6151 17.1199L20.0699 14.4256L16.4028 15.945L17.2246 18.9742C17.3075 19.2799 17.1965 19.6056 16.9437 19.7965C16.0673 20.4587 15.2867 21.2394 14.6247 22.116C14.4338 22.3687 14.1086 22.4797 13.8029 22.3969L10.7732 21.5751L9.25382 25.2422L11.9476 26.7874C12.2232 26.9454 12.3748 27.2553 12.33 27.5698C12.2518 28.1184 12.2128 28.6698 12.2128 29.2241ZM33.3621 29.2241C33.3621 34.366 29.1937 38.5344 24.0518 38.5344C18.9098 38.5344 14.7414 34.366 14.7414 29.2241C14.7414 24.0821 18.9098 19.9137 24.0518 19.9137C29.1937 19.9137 33.3621 24.0821 33.3621 29.2241Z" fill="white"/>
</svg>
