<svg width="50" height="63" viewBox="0 0 50 63" fill="none" xmlns="http://www.w3.org/2000/svg">
<path d="M49.6552 58.1897C49.6552 59.2185 49.2467 60.2054 48.5192 60.933C47.7917 61.6605 46.8047 62.069 45.7759 62.069H3.87931C2.85045 62.069 1.86352 61.6605 1.13601 60.933C0.408501 60.2054 0 59.2185 0 58.1897V3.87931C0 2.85045 0.4085 1.86352 1.13601 1.13601C1.86352 0.4085 2.85045 6.53182e-08 3.87931 0H31.8103C32.0161 0 32.2134 0.0818017 32.3589 0.227303L49.4279 17.2963C49.5734 17.4418 49.6552 17.6391 49.6552 17.8448V58.1897ZM32.5862 14.7414C32.5862 15.3587 32.8316 15.9505 33.2681 16.3871C33.7046 16.8236 34.2965 17.069 34.9138 17.069H47.0063L32.5862 2.64884V14.7414ZM1.55172 58.1897C1.55172 58.807 1.79713 59.3988 2.23363 59.8353C2.67014 60.2718 3.26199 60.5172 3.87931 60.5172H45.7759C46.3932 60.5172 46.985 60.2718 47.4215 59.8353C47.858 59.3988 48.1035 58.807 48.1035 58.1897V18.6207H34.9138C33.8849 18.6207 32.898 18.2122 32.1705 17.4847C31.443 16.7572 31.0345 15.7702 31.0345 14.7414V1.55172H3.87931C3.262 1.55172 2.67014 1.79713 2.23363 2.23363C1.79713 2.67014 1.55172 3.262 1.55172 3.87931V58.1897Z" fill="white"/>
<path d="M12.7783 46.7409V32.0879C12.7784 30.9074 13.7349 29.9497 14.915 29.9497C14.935 29.9497 14.9549 29.9512 14.9746 29.9527H34.7399C35.9188 29.9527 36.8764 30.9078 36.8765 32.0894V46.7409C36.8765 47.3075 36.6514 47.851 36.2507 48.2517C35.85 48.6524 35.3066 48.8775 34.7399 48.8775H14.915C14.3483 48.8775 13.8049 48.6524 13.4042 48.2517C13.0035 47.851 12.7783 47.3075 12.7783 46.7409ZM14.33 46.7409C14.33 46.896 14.3916 47.0448 14.5013 47.1545C14.611 47.2642 14.7598 47.3258 14.915 47.3258H34.7399C34.895 47.3258 35.0438 47.2643 35.1536 47.1545C35.2632 47.0448 35.3248 46.896 35.3248 46.7409V32.0894C35.3247 31.7659 35.0629 31.5045 34.7399 31.5045H14.915C14.905 31.5045 14.8951 31.5028 14.8852 31.5024C14.577 31.518 14.3301 31.7734 14.33 32.0879V46.7409Z" fill="white"/>
<path d="M31.4999 30.729V27.6195C31.4642 25.8718 30.7447 24.2079 29.4961 22.9845C28.2475 21.7611 26.5693 21.0757 24.8212 21.0756C23.0731 21.0756 21.3945 21.7611 20.1458 22.9845C18.8973 24.2079 18.1782 25.8719 18.1425 27.6195V30.729C18.1425 31.1574 17.7952 31.5048 17.3667 31.5048C16.9382 31.5048 16.5909 31.1574 16.5908 30.729V27.5876C16.6348 25.434 17.5212 23.3833 19.0598 21.8758C20.5985 20.3682 22.6671 19.5239 24.8212 19.5239C26.9753 19.5239 29.0435 20.3683 30.5821 21.8758C32.1207 23.3833 33.0071 25.434 33.0511 27.5876C33.0512 27.5929 33.0516 27.5985 33.0516 27.6038V30.729C33.0516 31.1574 32.7042 31.5048 32.2758 31.5048C31.8473 31.5048 31.4999 31.1574 31.4999 30.729Z" fill="white"/>
<path d="M26.9359 39.4142C26.9358 38.2462 25.989 37.2993 24.821 37.2993C23.6529 37.2993 22.7061 38.2462 22.706 39.4142C22.706 40.5823 23.6529 41.5291 24.821 41.5291C25.989 41.5291 26.9359 40.5823 26.9359 39.4142ZM28.4876 39.4142C28.4876 41.4393 26.846 43.0809 24.821 43.0809C22.7959 43.0808 21.1543 41.4393 21.1543 39.4142C21.1543 37.3892 22.7959 35.7476 24.821 35.7476C26.846 35.7476 28.4876 37.3892 28.4876 39.4142Z" fill="white"/>
</svg>
