<svg width="75" height="75" viewBox="0 0 75 75" fill="none" xmlns="http://www.w3.org/2000/svg">
<path d="M66.7237 38.3745C66.7237 24.7545 54.2937 14.4829 37.813 14.4829C21.2491 14.4829 8.27539 24.9793 8.27539 38.3781C8.27539 46.411 13.9626 52.1662 18.9023 55.6491V67.3931C18.9033 67.5405 18.9409 67.6854 19.0118 67.8147C19.0827 67.9439 19.1847 68.0535 19.3086 68.1336C19.4324 68.2136 19.5743 68.2616 19.7214 68.2732C19.8684 68.2849 20.0161 68.2597 20.151 68.2001C20.4096 68.0851 26.4546 65.3402 31.6264 59.6894C33.8669 60.1053 36.4014 60.5053 38.7004 60.5053C55.4609 60.5053 66.7237 51.6105 66.7237 38.3745ZM38.6986 58.7355C36.3784 58.7355 33.7411 58.2913 31.467 57.8577C31.3162 57.8306 31.1611 57.8421 31.0161 57.8914C30.8711 57.9406 30.741 58.0258 30.6381 58.1391C27.0072 62.2308 22.7405 64.8305 20.6735 65.9508V55.1872C20.6735 55.0436 20.6384 54.9022 20.5715 54.7752C20.5045 54.6481 20.4076 54.5393 20.2892 54.458C15.6168 51.2459 10.0466 45.8517 10.0466 38.3781C10.0466 25.9704 22.2428 16.2527 37.813 16.2527C53.2859 16.2527 64.9525 25.7633 64.9525 38.3745C64.9525 50.554 54.4017 58.7355 38.6986 58.7355Z" fill="white"/>
<path d="M26.4107 31.9323V37.6833C27.1446 37.8674 27.8326 37.9594 28.4747 37.9594C30.768 37.9594 31.9147 36.9319 31.9147 34.8768C31.9147 32.9138 30.9056 31.9323 28.8875 31.9323H26.4107ZM24.3467 46.0108V31.2422C24.3467 30.5061 24.683 30.138 25.3557 30.138H28.9334C30.4317 30.138 31.6318 30.5444 32.5339 31.3572C33.4971 32.2161 33.9787 33.3816 33.9787 34.8538C33.9787 37.9364 32.2969 39.4776 28.9334 39.4776L34.2998 45.3667C34.5291 45.612 34.6438 45.9188 34.6438 46.2868C34.6438 46.8083 34.338 47.069 33.7264 47.069C33.3595 47.069 33.0461 46.9156 32.7862 46.6089L26.4565 39.2706H26.4107V46.0568C26.4107 46.7316 26.059 47.069 25.3557 47.069C24.683 47.069 24.3467 46.7162 24.3467 46.0108Z" fill="white"/>
<path d="M45.4079 47.069C43.5121 47.069 41.9832 46.5629 40.8213 45.5507C39.6134 44.4925 39.0095 43.0203 39.0095 41.1339V31.0582C39.0095 30.3527 39.3459 30 40.0186 30C40.7219 30 41.0735 30.3527 41.0735 31.0582V41.1339C41.0735 42.4375 41.4634 43.4573 42.2431 44.1935C43.0382 44.9143 44.0931 45.2747 45.4079 45.2747C46.6769 45.2747 47.7166 44.8989 48.5269 44.1475C49.3372 43.396 49.7423 42.3915 49.7423 41.1339V31.0582C49.7423 30.3527 50.0634 30 50.7055 30C51.4088 30 51.7605 30.3527 51.7605 31.0582V41.1339C51.7605 42.9896 51.1566 44.4542 49.9487 45.5277C48.8021 46.5552 47.2885 47.069 45.4079 47.069Z" fill="white"/>
</svg>
