<svg width="75" height="75" viewBox="0 0 75 75" fill="none" xmlns="http://www.w3.org/2000/svg">
<path d="M35.4604 37.2406C35.4604 37.5149 35.3524 37.778 35.1602 37.972C34.968 38.166 34.7073 38.275 34.4355 38.275H22.1365C21.8647 38.275 21.604 38.166 21.4118 37.972C21.2196 37.778 21.1116 37.5149 21.1116 37.2406C21.1116 36.9662 21.2196 36.7031 21.4118 36.5091C21.604 36.3151 21.8647 36.2061 22.1365 36.2061H34.4355C34.7073 36.2061 34.968 36.3151 35.1602 36.5091C35.3524 36.7031 35.4604 36.9662 35.4604 37.2406ZM34.4355 27.9305H22.1365C21.8647 27.9305 21.604 28.0395 21.4118 28.2335C21.2196 28.4275 21.1116 28.6906 21.1116 28.965C21.1116 29.2393 21.2196 29.5024 21.4118 29.6964C21.604 29.8904 21.8647 29.9994 22.1365 29.9994H34.4355C34.7073 29.9994 34.968 29.8904 35.1602 29.6964C35.3524 29.5024 35.4604 29.2393 35.4604 28.965C35.4604 28.6906 35.3524 28.4275 35.1602 28.2335C34.968 28.0395 34.7073 27.9305 34.4355 27.9305ZM62.1081 51.589L62.1079 67.4997C62.1081 67.6814 62.061 67.86 61.9711 68.0175C61.8813 68.175 61.7519 68.3058 61.5961 68.3967C61.4402 68.4877 61.2634 68.5356 61.0833 68.5357C60.9033 68.5358 60.7264 68.488 60.5705 68.3971L53.9086 64.5541L47.2466 68.3971C47.0907 68.488 46.9138 68.5358 46.7338 68.5357C46.5538 68.5356 46.3769 68.4877 46.2211 68.3967C46.0652 68.3058 45.9359 68.175 45.846 68.0175C45.7562 67.86 45.709 67.6814 45.7093 67.4997V60.2586H13.937C13.1216 60.2586 12.3395 59.9316 11.7629 59.3496C11.1862 58.7676 10.8623 57.9783 10.8623 57.1552L10.8625 9.05159C10.8625 8.22853 11.1864 7.43918 11.7631 6.85719C12.3397 6.2752 13.1218 5.94824 13.9372 5.94824H59.0333C59.8488 5.94824 60.6309 6.2752 61.2075 6.85719C61.7841 7.43918 62.1081 8.22853 62.1081 9.05159V33.1034C63.3976 34.2659 64.4293 35.6902 65.1358 37.2829C65.8422 38.8757 66.2073 40.6011 66.2073 42.3462C66.2073 44.0913 65.8422 45.8167 65.1358 47.4095C64.4293 49.0023 63.3976 50.4266 62.1081 51.589ZM53.9088 32.0017C51.8817 32.0017 49.9001 32.6084 48.2147 33.7451C46.5292 34.8818 45.2156 36.4974 44.4398 38.3876C43.6641 40.2778 43.4611 42.3577 43.8566 44.3643C44.2521 46.371 45.2282 48.2142 46.6616 49.6609C48.0949 51.1076 49.9211 52.0928 51.9093 52.492C53.8974 52.8911 55.9582 52.6863 57.8309 51.9033C59.7037 51.1204 61.3044 49.7945 62.4306 48.0933C63.5568 46.3922 64.1579 44.3922 64.1579 42.3462C64.1579 39.6027 63.0781 36.9715 61.156 35.0316C59.2339 33.0916 56.627 32.0017 53.9088 32.0017ZM45.7093 58.1897L45.7095 51.589C43.4615 49.5362 42.0438 46.7177 41.7287 43.6745C41.4135 40.6313 42.2231 37.5778 44.0019 35.1002C45.7808 32.6225 48.4036 30.8952 51.3669 30.2499C54.3303 29.6045 57.4254 30.0865 60.0582 31.6035V9.05159C60.0582 8.77724 59.9503 8.51412 59.758 8.32013C59.5658 8.12613 59.3051 8.01714 59.0333 8.01714H13.9372C13.6654 8.01714 13.4047 8.12613 13.2125 8.32013C13.0203 8.51412 12.9123 8.77724 12.9123 9.05159L12.9121 57.1552C12.9121 57.4296 13.0201 57.6927 13.2123 57.8867C13.4045 58.0807 13.6652 58.1897 13.937 58.1897H45.7093ZM60.0582 53.089C58.1902 54.1833 56.0687 54.7597 53.9088 54.7597C51.7489 54.7597 49.6273 54.1833 47.7593 53.089L47.7591 65.7179L53.3961 62.4646C53.5519 62.3738 53.7287 62.326 53.9086 62.326C54.0885 62.326 54.2652 62.3738 54.421 62.4646L60.058 65.7179L60.0582 53.089Z" fill="white"/>
</svg>
