<svg width="75" height="75" viewBox="0 0 75 75" fill="none" xmlns="http://www.w3.org/2000/svg">
<path fill-rule="evenodd" clip-rule="evenodd" d="M37.1767 9.82764C38.3039 9.82764 39.4114 10.1243 40.3877 10.6879L40.3872 10.6884L49.2919 15.7764C49.6514 15.7741 50.0017 15.9589 50.1946 16.2921L59.2417 21.4615L59.2458 21.4641C60.0851 21.9486 60.8013 22.6163 61.3441 23.4143C61.4403 23.4919 61.5249 23.5873 61.5905 23.7007C61.6494 23.8025 61.6878 23.9106 61.7093 24.02C62.1982 24.943 62.4558 25.9724 62.4568 27.0193V48.5733C62.4557 49.6995 62.1582 50.8057 61.5946 51.7808C61.031 52.7557 60.221 53.5655 59.2458 54.1286L59.2417 54.1311L50.1931 59.301C50.014 59.6091 49.6815 59.8167 49.2995 59.8167C49.297 59.8167 49.2944 59.8162 49.2919 59.8162L40.3837 64.9068L40.3831 64.9063C39.606 65.3542 38.746 65.6326 37.8591 65.7276C37.6769 65.8879 37.4384 65.9857 37.1767 65.9857C36.9147 65.9857 36.676 65.8881 36.4937 65.7276C35.6068 65.6326 34.7468 65.3542 33.9697 64.9063L25.0609 59.8162C25.0585 59.8162 25.0562 59.8167 25.0538 59.8167C24.6717 59.8167 24.3389 59.6091 24.1598 59.301L15.1116 54.1311L15.1075 54.1286C14.1323 53.5655 13.3223 52.7557 12.7587 51.7808C12.1951 50.8057 11.8977 49.6995 11.8965 48.5733V27.0193L11.9 26.8082C11.933 25.8344 12.1876 24.8808 12.6436 24.02C12.665 23.9106 12.7039 23.8026 12.7628 23.7007C12.8283 23.5874 12.9126 23.4919 13.0088 23.4143C13.5515 22.6162 14.2682 21.9487 15.1075 21.4641L15.1116 21.4615L24.1582 16.2916C24.3511 15.9587 24.7017 15.7743 25.0609 15.7764L33.9656 10.6884C34.9419 10.1248 36.0494 9.82764 37.1767 9.82764ZM14.1695 25.7091C14.0353 26.1318 13.9659 26.5742 13.9654 27.0214V37.199L25.5716 43.9044C25.8914 44.0893 26.0882 44.4312 26.0883 44.8005V58.02L34.9961 63.1106L35.0001 63.1126C35.3587 63.3196 35.7434 63.4731 36.1422 63.5707V38.4194L14.1695 25.7091ZM38.2111 38.4194V63.5707C38.6099 63.4731 38.9946 63.3196 39.3532 63.1126L39.3573 63.1106L48.265 58.02V44.8005L48.2675 44.7313C48.2905 44.3889 48.482 44.0777 48.7818 43.9044L60.3879 37.199V27.0214C60.3874 26.5742 60.3175 26.1318 60.1833 25.7091L38.2111 38.4194ZM13.9654 48.5712L13.968 48.7142C13.9922 49.428 14.1917 50.1257 14.5499 50.7453C14.9311 51.4048 15.4787 51.9528 16.138 52.3344L24.0193 56.838V45.3971L13.9654 39.5882V48.5712ZM50.334 45.3971V56.838L58.2153 52.3344C58.8746 51.9528 59.4222 51.4048 59.8034 50.7453C60.1853 50.0847 60.3869 49.3353 60.3879 48.5723V39.5882L50.334 45.3971ZM37.6944 24.7105C37.3742 24.8954 36.9791 24.8954 36.6589 24.7105L25.1912 18.0843L16.138 23.2582C15.811 23.4475 15.5118 23.6778 15.2464 23.9422L37.1767 36.6282L59.1064 23.9422C58.8411 23.6779 58.5422 23.4474 58.2153 23.2582L49.1616 18.0843L37.6944 24.7105ZM37.1767 11.8966C36.4125 11.8966 35.6619 12.0979 35.0001 12.48L34.9961 12.482L27.2708 16.8963L37.1767 22.6193L47.082 16.8963L39.3573 12.482L39.3532 12.48C38.6914 12.0979 37.9408 11.8966 37.1767 11.8966Z" fill="white"/>
</svg>
