<svg preserveAspectRatio="none" width="100%" height="100%" overflow="visible" style="display: block;" viewBox="0 0 150 25.4177" fill="none" xmlns="http://www.w3.org/2000/svg">
<g id="Group 1">
<g id="Group">
<path id="Vector" d="M29.9246 12.0473C31.0317 10.759 31.9312 8.98323 31.9312 7.17265C31.9312 6.44146 31.8274 5.71027 31.6198 5.01389C31.2047 3.41223 30.236 2.12394 28.8521 1.21865C27.6412 0.417825 26.1535 0 24.4237 0H15.4631L14.7366 3.48187H24.3891C25.427 3.48187 26.2573 3.69078 26.8455 4.10861L26.9147 4.17825C27.572 4.59607 28.0218 5.18799 28.2293 5.954L28.2639 6.05846C28.3677 6.44146 28.4369 6.82447 28.4369 7.20747C28.4369 8.32167 27.4336 9.85369 26.4649 10.5849L24.8043 11.8384L26.3611 13.2659C26.7071 13.5793 27.0185 13.9623 27.226 14.3453L27.2606 14.3801C27.7104 15.1461 27.9526 16.0514 27.9526 16.9219C27.9526 19.6726 25.7038 21.9358 22.9706 21.9358C22.7976 21.9358 22.3133 21.9358 21.8289 21.9358C21.2754 21.9358 20.7564 21.9358 20.5489 21.9358H10.8964L10.1698 25.4177H20.5489C20.7564 25.4177 21.2754 25.4177 21.8289 25.4177C22.3479 25.4177 22.8322 25.4177 23.0052 25.4177C27.6412 25.4177 31.4468 21.6224 31.4468 16.9219C31.4468 15.4247 31.0317 13.9275 30.2706 12.6044C30.1322 12.3955 30.0284 12.2214 29.9246 12.0473Z" fill="url(#paint0_linear_8113_4298)"/>
<path id="Vector_2" d="M13.7695 18.4527H11.8667C10.4828 18.4527 9.23734 17.443 8.96056 16.0851L8.6146 14.5182H12.9392L12.2127 11.0364H7.5421C6.15823 11.0364 4.91274 10.0266 4.63597 8.66869L4.29 6.96257H14.1847C15.5685 6.96257 16.814 7.97231 17.0908 9.33024L17.4368 10.9667H20.9656L20.4813 8.59905C19.8585 5.60464 17.2292 3.44588 14.1847 3.44588H0L1.24548 9.36506C1.69524 11.4542 3.11371 13.1255 4.94734 13.9263L5.57008 16.7814C6.19282 19.7759 8.82218 21.9346 11.8321 21.9346H14.4615L13.7695 18.4527Z" fill="url(#paint1_linear_8113_4298)"/>
</g>
<g id="Union">
<path d="M46.1153 15.0032V20.5721H42.5999V5.28477H54.0792V8.12385H46.1153V12.1641H53.1461V15.0032H46.1153Z" fill="var(--fill-0, white)"/>
<path fill-rule="evenodd" clip-rule="evenodd" d="M62.8244 19.1121V20.5721H65.9926V13.8675C65.9926 12.0767 65.5007 10.7591 64.517 9.91465C63.5333 9.07021 62.1517 8.64799 60.3723 8.64799C59.4465 8.64799 58.5351 8.77174 57.6381 9.01925C56.7412 9.26676 55.9745 9.61619 55.3379 10.0675L56.5531 12.448C56.9727 12.1131 57.479 11.8511 58.0721 11.6618C58.6797 11.458 59.2946 11.356 59.9166 11.356C60.828 11.356 61.5007 11.5599 61.9347 11.9675C62.3832 12.3752 62.6074 12.943 62.6074 13.671H59.9166C58.7304 13.671 57.7683 13.8239 57.0305 14.1296C56.2927 14.4208 55.7502 14.8285 55.403 15.3526C55.0703 15.8767 54.9039 16.4882 54.9039 17.1871C54.9039 17.8568 55.0775 18.461 55.4247 18.9997C55.7719 19.5384 56.271 19.9679 56.922 20.2882C57.573 20.594 58.3542 20.7468 59.2656 20.7468C60.2927 20.7468 61.1318 20.5503 61.7828 20.1572C62.2223 19.8918 62.5695 19.5434 62.8244 19.1121ZM62.6074 16.8595V15.6583H60.2855C59.4899 15.6583 58.9401 15.7894 58.6363 16.0514C58.347 16.3135 58.2023 16.6411 58.2023 17.0342C58.2023 17.471 58.3687 17.8204 58.7014 18.0825C59.0486 18.33 59.5188 18.4537 60.1119 18.4537C60.6761 18.4537 61.1824 18.3227 61.6309 18.0606C62.0794 17.784 62.4049 17.3836 62.6074 16.8595Z" fill="var(--fill-0, white)"/>
<path d="M69.6622 20.3974C70.5881 20.6304 71.5501 20.7468 72.5483 20.7468C73.7201 20.7468 74.7111 20.5867 75.5212 20.2664C76.3458 19.9461 76.9751 19.5093 77.4091 18.956C77.8431 18.3882 78.0601 17.7403 78.0601 17.0124C78.0601 16.3426 77.9299 15.8039 77.6695 15.3963C77.4091 14.974 77.0691 14.6465 76.6496 14.4135C76.2445 14.166 75.7888 13.9767 75.2825 13.8457C74.7762 13.7147 74.2698 13.62 73.7635 13.5618C73.2716 13.489 72.8159 13.4089 72.3964 13.3216C71.9769 13.2342 71.6369 13.1177 71.3765 12.9721C71.1306 12.8265 71.0076 12.6081 71.0076 12.317C71.0076 11.9966 71.1812 11.7346 71.5284 11.5307C71.8756 11.3269 72.4253 11.225 73.1776 11.225C73.7129 11.225 74.2626 11.2905 74.8268 11.4216C75.4055 11.538 75.9769 11.7637 76.5411 12.0986L77.6695 9.67442C77.1198 9.33956 76.4326 9.08477 75.608 8.91006C74.7834 8.73534 73.9733 8.64799 73.1776 8.64799C72.0492 8.64799 71.0799 8.81542 70.2698 9.15029C69.4597 9.47059 68.8376 9.91465 68.4036 10.4825C67.9841 11.0503 67.7743 11.7055 67.7743 12.448C67.7743 13.1177 67.8973 13.6637 68.1432 14.0859C68.4036 14.5081 68.7436 14.843 69.1631 15.0905C69.5827 15.338 70.0456 15.5273 70.5519 15.6583C71.0582 15.7748 71.5573 15.8694 72.0492 15.9422C72.5555 16.015 73.0185 16.0878 73.438 16.1606C73.8575 16.2334 74.1903 16.3426 74.4362 16.4882C74.6966 16.6193 74.8268 16.8231 74.8268 17.0997C74.8268 17.4346 74.6604 17.6967 74.3277 17.8859C74.0094 18.0752 73.4597 18.1698 72.6785 18.1698C71.9696 18.1698 71.2463 18.0679 70.5085 17.8641C69.7852 17.6457 69.1559 17.3691 68.6206 17.0342L67.4922 19.4802C68.0275 19.8442 68.7508 20.1499 69.6622 20.3974Z" fill="var(--fill-0, white)"/>
<path d="M81.7111 19.6986C82.4778 20.3974 83.5483 20.7468 84.9227 20.7468C85.4435 20.7468 85.9426 20.6886 86.42 20.5721C86.9118 20.4411 87.3314 20.2518 87.6786 20.0043L86.7672 17.602C86.391 17.8932 85.9353 18.0388 85.4001 18.0388C84.9516 18.0388 84.5972 17.9078 84.3368 17.6457C84.0764 17.3691 83.9462 16.9832 83.9462 16.4882V11.7055H86.854V9.08477H83.9462V6.22385H80.561V9.08477H78.7599V11.7055H80.561V16.5319C80.561 17.9296 80.9444 18.9852 81.7111 19.6986Z" fill="var(--fill-0, white)"/>
<path fill-rule="evenodd" clip-rule="evenodd" d="M93.3963 20.0917C94.1341 20.5285 95.0166 20.7468 96.0437 20.7468C97.1431 20.7468 98.1269 20.4993 98.9949 20.0043C99.8773 19.4947 100.572 18.7886 101.078 17.8859C101.599 16.9832 101.859 15.9204 101.859 14.6974C101.859 13.4599 101.599 12.3898 101.078 11.4871C100.572 10.5844 99.8773 9.88554 98.9949 9.39052C98.1269 8.8955 97.1431 8.64799 96.0437 8.64799C95.06 8.64799 94.1992 8.86638 93.4614 9.30316C93.1154 9.50802 92.8043 9.76252 92.5283 10.0667V4.36752H89.1431V20.5721H92.3764V19.2154C92.6684 19.5699 93.0083 19.862 93.3963 20.0917ZM96.9551 17.5583C96.5211 17.8204 96.022 17.9514 95.4578 17.9514C94.8936 17.9514 94.3873 17.8204 93.9388 17.5583C93.4903 17.2963 93.1359 16.925 92.8755 16.4445C92.6151 15.9495 92.4849 15.3671 92.4849 14.6974C92.4849 14.0131 92.6151 13.4307 92.8755 12.9503C93.1359 12.4698 93.4903 12.0986 93.9388 11.8365C94.3873 11.5744 94.8936 11.4434 95.4578 11.4434C96.022 11.4434 96.5211 11.5744 96.9551 11.8365C97.4035 12.0986 97.758 12.4698 98.0184 12.9503C98.2932 13.4307 98.4307 14.0131 98.4307 14.6974C98.4307 15.3671 98.2932 15.9495 98.0184 16.4445C97.758 16.925 97.4035 17.2963 96.9551 17.5583Z" fill="var(--fill-0, white)"/>
<path fill-rule="evenodd" clip-rule="evenodd" d="M105.925 19.9606C106.894 20.4848 108.001 20.7468 109.245 20.7468C110.474 20.7468 111.574 20.4848 112.543 19.9606C113.512 19.4365 114.272 18.7231 114.822 17.8204C115.371 16.9032 115.646 15.8622 115.646 14.6974C115.646 13.5035 115.371 12.4553 114.822 11.5526C114.272 10.6499 113.512 9.94377 112.543 9.43419C111.574 8.91006 110.474 8.64799 109.245 8.64799C108.001 8.64799 106.894 8.91006 105.925 9.43419C104.97 9.94377 104.21 10.6572 103.646 11.5744C103.097 12.4771 102.822 13.5181 102.822 14.6974C102.822 15.8622 103.097 16.9032 103.646 17.8204C104.21 18.7231 104.97 19.4365 105.925 19.9606ZM110.764 17.5583C110.315 17.8204 109.809 17.9514 109.245 17.9514C108.681 17.9514 108.174 17.8204 107.726 17.5583C107.277 17.2963 106.916 16.925 106.641 16.4445C106.38 15.9495 106.25 15.3671 106.25 14.6974C106.25 14.0131 106.38 13.4307 106.641 12.9503C106.916 12.4698 107.277 12.0986 107.726 11.8365C108.174 11.5744 108.681 11.4434 109.245 11.4434C109.809 11.4434 110.315 11.5744 110.764 11.8365C111.212 12.0986 111.567 12.4698 111.827 12.9503C112.088 13.4307 112.218 14.0131 112.218 14.6974C112.218 15.3671 112.088 15.9495 111.827 16.4445C111.567 16.925 111.212 17.2963 110.764 17.5583Z" fill="var(--fill-0, white)"/>
<path fill-rule="evenodd" clip-rule="evenodd" d="M124.444 19.1121V20.5721H127.612V13.8675C127.612 12.0767 127.12 10.7591 126.136 9.91465C125.152 9.07021 123.771 8.64799 121.991 8.64799C121.066 8.64799 120.154 8.77174 119.257 9.01925C118.36 9.26676 117.594 9.61619 116.957 10.0675L118.172 12.448C118.592 12.1131 119.098 11.8511 119.691 11.6618C120.299 11.458 120.914 11.356 121.536 11.356C122.447 11.356 123.12 11.5599 123.554 11.9675C124.002 12.3752 124.227 12.943 124.227 13.671H121.536C120.349 13.671 119.387 13.8239 118.65 14.1296C117.912 14.4208 117.369 14.8285 117.022 15.3526C116.689 15.8767 116.523 16.4882 116.523 17.1871C116.523 17.8568 116.697 18.461 117.044 18.9997C117.391 19.5384 117.89 19.9679 118.541 20.2882C119.192 20.594 119.973 20.7468 120.885 20.7468C121.912 20.7468 122.751 20.5503 123.402 20.1572C123.841 19.8918 124.189 19.5434 124.444 19.1121ZM124.227 16.8595V15.6583H121.905C121.109 15.6583 120.559 15.7894 120.255 16.0514C119.966 16.3135 119.821 16.6411 119.821 17.0342C119.821 17.471 119.988 17.8204 120.321 18.0825C120.668 18.33 121.138 18.4537 121.731 18.4537C122.295 18.4537 122.802 18.3227 123.25 18.0606C123.699 17.784 124.024 17.3836 124.227 16.8595Z" fill="var(--fill-0, white)"/>
<path d="M132.602 8.8227H129.368V20.5721H132.754V15.025C132.754 13.9039 133.036 13.0813 133.6 12.5572C134.178 12.0185 134.931 11.7491 135.857 11.7491C135.987 11.7491 136.11 11.7564 136.226 11.771C136.341 11.771 136.471 11.7783 136.616 11.7928V8.64799C135.517 8.64799 134.584 8.86638 133.817 9.30316C133.326 9.57362 132.921 9.92771 132.602 10.3654V8.8227Z" fill="var(--fill-0, white)"/>
<path fill-rule="evenodd" clip-rule="evenodd" d="M140.148 20.0043C141.031 20.4993 142.022 20.7468 143.121 20.7468C144.148 20.7468 145.023 20.5285 145.747 20.0917C146.135 19.862 146.475 19.5699 146.767 19.2154V20.5721H150V4.36752H146.615V10.0479C146.346 9.75204 146.042 9.50379 145.703 9.30316C144.966 8.86638 144.105 8.64799 143.121 8.64799C142.022 8.64799 141.031 8.8955 140.148 9.39052C139.266 9.88554 138.564 10.5844 138.043 11.4871C137.537 12.3898 137.284 13.4599 137.284 14.6974C137.284 15.9204 137.537 16.9832 138.043 17.8859C138.564 18.7886 139.266 19.4947 140.148 20.0043ZM145.204 17.5583C144.756 17.8204 144.257 17.9514 143.707 17.9514C143.143 17.9514 142.637 17.8204 142.188 17.5583C141.74 17.2963 141.378 16.925 141.103 16.4445C140.843 15.9495 140.712 15.3671 140.712 14.6974C140.712 14.0131 140.843 13.4307 141.103 12.9503C141.378 12.4698 141.74 12.0986 142.188 11.8365C142.637 11.5744 143.143 11.4434 143.707 11.4434C144.257 11.4434 144.756 11.5744 145.204 11.8365C145.653 12.0986 146.007 12.4698 146.268 12.9503C146.542 13.4307 146.68 14.0131 146.68 14.6974C146.68 15.3671 146.542 15.9495 146.268 16.4445C146.007 16.925 145.653 17.2963 145.204 17.5583Z" fill="var(--fill-0, white)"/>
</g>
</g>
<defs>
<linearGradient id="paint0_linear_8113_4298" x1="29.0437" y1="22.7994" x2="10.8189" y2="4.69067" gradientUnits="userSpaceOnUse">
<stop stop-color="#00EFFD"/>
<stop offset="0.25" stop-color="#0BB2F2"/>
<stop offset="0.5" stop-color="#1483EA"/>
<stop offset="0.7" stop-color="#1A62E5"/>
<stop offset="0.88" stop-color="#1E4DE1"/>
<stop offset="1" stop-color="#1F46E0"/>
</linearGradient>
<linearGradient id="paint1_linear_8113_4298" x1="18.1837" y1="20.0301" x2="5.41151" y2="3.2211" gradientUnits="userSpaceOnUse">
<stop stop-color="#00EFFD"/>
<stop offset="0.25" stop-color="#0BB2F2"/>
<stop offset="0.5" stop-color="#1483EA"/>
<stop offset="0.7" stop-color="#1A62E5"/>
<stop offset="0.88" stop-color="#1E4DE1"/>
<stop offset="1" stop-color="#1F46E0"/>
</linearGradient>
</defs>
</svg>
