<svg preserveAspectRatio="none" width="100%" height="100%" overflow="visible" style="display: block;" viewBox="0 0 59.4828 47.5862" fill="none" xmlns="http://www.w3.org/2000/svg">
<path id="Vector" d="M3.07669 18.6216H10.2556V37.2417H5.12782C4.85583 37.2417 4.59497 37.3507 4.40264 37.5447C4.21031 37.7387 4.10226 38.0018 4.10226 38.2761C4.10226 38.5505 4.21031 38.8136 4.40264 39.0076C4.59497 39.2016 4.85583 39.3106 5.12782 39.3106H54.3549C54.6269 39.3106 54.8878 39.2016 55.0801 39.0076C55.2724 38.8136 55.3805 38.5505 55.3805 38.2761C55.3805 38.0018 55.2724 37.7387 55.0801 37.5447C54.8878 37.3507 54.6269 37.2417 54.3549 37.2417H49.2271V18.6216H56.4061C56.6297 18.6221 56.8474 18.5488 57.0259 18.413C57.2045 18.2772 57.3341 18.0862 57.3951 17.8692C57.4561 17.6521 57.4451 17.421 57.3637 17.2108C57.2824 17.0007 57.1351 16.8232 56.9445 16.7052L30.2798 0.154027C30.118 0.0533282 29.9315 0 29.7414 0C29.5512 0 29.3648 0.0533282 29.203 0.154027L2.53827 16.7052C2.34762 16.8232 2.2004 17.0007 2.11905 17.2108C2.0377 17.421 2.02667 17.6521 2.08765 17.8692C2.14863 18.0862 2.27827 18.2772 2.45682 18.413C2.63538 18.5488 2.85305 18.6221 3.07669 18.6216ZM12.3068 18.6216H22.5624V37.2417H12.3068V18.6216ZM34.8692 18.6216V37.2417H24.6136V18.6216H34.8692ZM47.176 37.2417H36.9203V18.6216H47.176V37.2417ZM29.7414 2.25138L52.7833 16.5527H6.6995L29.7414 2.25138ZM59.4828 46.5518C59.4828 46.8261 59.3747 47.0892 59.1824 47.2832C58.99 47.4772 58.7292 47.5862 58.4572 47.5862H1.02556C0.753568 47.5862 0.492712 47.4772 0.300381 47.2832C0.10805 47.0892 0 46.8261 0 46.5518C0 46.2774 0.10805 46.0143 0.300381 45.8203C0.492712 45.6263 0.753568 45.5173 1.02556 45.5173H58.4572C58.7292 45.5173 58.99 45.6263 59.1824 45.8203C59.3747 46.0143 59.4828 46.2774 59.4828 46.5518Z" fill="var(--fill-0, white)"/>
</svg>
