<svg preserveAspectRatio="none" width="100%" height="100%" overflow="visible" style="display: block;" viewBox="0 0 13.3333 13.3332" fill="none" xmlns="http://www.w3.org/2000/svg">
<path id="draw" d="M6.07747 0.244078C6.40291 -0.0813592 6.93042 -0.0813592 7.25586 0.244078L13.0892 6.07741C13.129 6.11726 13.1647 6.16122 13.1958 6.20843C13.2164 6.23967 13.2344 6.27212 13.2503 6.30528C13.2685 6.34293 13.2843 6.38192 13.2967 6.42246C13.3019 6.43937 13.3057 6.45659 13.3097 6.47373C13.3244 6.5357 13.3333 6.60014 13.3333 6.6666C13.3333 6.73577 13.3232 6.80254 13.3073 6.8668C13.3038 6.88091 13.3009 6.89517 13.2967 6.90912C13.2843 6.94995 13.2686 6.98921 13.2503 7.02712C13.2336 7.06184 13.2143 7.09542 13.1925 7.12803C13.1821 7.14374 13.1707 7.15867 13.1592 7.1736C13.1375 7.20177 13.115 7.22997 13.0892 7.2558L7.25586 13.0891C6.93043 13.4145 6.4029 13.4145 6.07747 13.0891C5.75205 12.7637 5.75207 12.2362 6.07747 11.9107L10.4883 7.49994H0.833333C0.373117 7.49994 3.39289e-05 7.12681 0 6.6666C0 6.20637 0.373096 5.83327 0.833333 5.83327H10.4883L6.07747 1.42246C5.75205 1.09704 5.75207 0.569517 6.07747 0.244078Z" fill="var(--fill-0, white)"/>
</svg>
