<svg preserveAspectRatio="none" width="100%" height="100%" overflow="visible" style="display: block;" viewBox="0 0 19.9997 19.9997" fill="none" xmlns="http://www.w3.org/2000/svg">
<path id="draw" fill-rule="evenodd" clip-rule="evenodd" d="M9 0C13.9706 0 18 4.02944 18 9C18 11.125 17.2618 13.0766 16.0303 14.6162L19.707 18.293C20.0971 18.6835 20.0974 19.3166 19.707 19.707C19.3166 20.0974 18.6835 20.0971 18.293 19.707L14.6162 16.0303C13.0766 17.2618 11.125 18 9 18C4.02944 18 0 13.9706 0 9C0 4.02944 4.02944 0 9 0ZM9 2C5.13401 2 2 5.13401 2 9C2 12.866 5.13401 16 9 16C10.89 16 12.6038 15.2497 13.8633 14.0322C13.8877 14.0012 13.9148 13.9719 13.9434 13.9434C13.9719 13.9148 14.0013 13.8877 14.0322 13.8633C15.2497 12.6038 16 10.89 16 9C16 5.13401 12.866 2 9 2Z" fill="var(--fill-0, white)"/>
</svg>
