<svg preserveAspectRatio="none" width="100%" height="100%" overflow="visible" style="display: block;" viewBox="0 0 14.7342 14.7274" fill="none" xmlns="http://www.w3.org/2000/svg">
<path id="draw" d="M13.0204 0.292893C13.411 -0.0976311 14.044 -0.0976311 14.4345 0.292893C14.8249 0.683424 14.825 1.31646 14.4345 1.70696L8.78117 7.36028L14.4413 13.0204C14.8319 13.411 14.8319 14.044 14.4413 14.4345C14.0508 14.8249 13.4178 14.825 13.0273 14.4345L7.36711 8.77434L1.70696 14.4345C1.31646 14.825 0.683424 14.8249 0.292893 14.4345C-0.0976311 14.044 -0.0976311 13.411 0.292893 13.0204L5.95305 7.36028L0.299729 1.70696C-0.0907544 1.31647 -0.090673 0.683427 0.299729 0.292893C0.690253 -0.0976311 1.32327 -0.0976311 1.71379 0.292893L7.36711 5.94621L13.0204 0.292893Z" fill="var(--fill-0, white)"/>
</svg>
