<svg preserveAspectRatio="none" width="100%" height="100%" overflow="visible" style="display: block;" viewBox="0 0 50.6897 57.931" fill="none" xmlns="http://www.w3.org/2000/svg">
<g id="Group">
<path id="Vector" d="M2.71552 57.931H47.9741C49.5473 57.931 50.6897 56.7887 50.6897 55.2155V4.52586C50.6897 2.95267 49.5473 1.81034 47.9741 1.81034H40.7328C40.4927 1.81034 40.2625 1.90571 40.0927 2.07546C39.923 2.24522 39.8276 2.47545 39.8276 2.71552C39.8276 2.95558 39.923 3.18582 40.0927 3.35557C40.2625 3.52532 40.4927 3.62069 40.7328 3.62069H47.9741C48.5408 3.62069 48.8793 3.95922 48.8793 4.52586V55.2155C48.8793 55.7822 48.5408 56.1207 47.9741 56.1207H2.71552C2.14888 56.1207 1.81034 55.7822 1.81034 55.2155V4.52586C1.81034 3.95922 2.14888 3.62069 2.71552 3.62069H9.9569C10.197 3.62069 10.4272 3.52532 10.5969 3.35557C10.7667 3.18582 10.8621 2.95558 10.8621 2.71552C10.8621 2.47545 10.7667 2.24522 10.5969 2.07546C10.4272 1.90571 10.197 1.81034 9.9569 1.81034H2.71552C1.14233 1.81034 0 2.95267 0 4.52586V55.2155C0 56.7887 1.14233 57.931 2.71552 57.931Z" fill="var(--fill-0, white)"/>
<path id="Vector_2" d="M9.9569 9.05172C10.197 9.05172 10.4272 8.95636 10.5969 8.78661C10.7667 8.61685 10.8621 8.38662 10.8621 8.14655C10.8621 7.90649 10.7667 7.67625 10.5969 7.5065C10.4272 7.33675 10.197 7.24138 9.9569 7.24138H6.33621C6.09614 7.24138 5.86591 7.33675 5.69615 7.5065C5.5264 7.67625 5.43103 7.90649 5.43103 8.14655V51.5948C5.43103 51.8349 5.5264 52.0651 5.69615 52.2349C5.86591 52.4046 6.09614 52.5 6.33621 52.5H44.3534C44.5935 52.5 44.8237 52.4046 44.9935 52.2349C45.1633 52.0651 45.2586 51.8349 45.2586 51.5948V8.14655C45.2586 7.90649 45.1633 7.67625 44.9935 7.5065C44.8237 7.33675 44.5935 7.24138 44.3534 7.24138H40.7328C40.4927 7.24138 40.2625 7.33675 40.0927 7.5065C39.923 7.67625 39.8276 7.90649 39.8276 8.14655C39.8276 8.38662 39.923 8.61685 40.0927 8.78661C40.2625 8.95636 40.4927 9.05172 40.7328 9.05172H43.4483V50.6897H7.24138V9.05172H9.9569Z" fill="var(--fill-0, white)"/>
<path id="Vector_3" d="M16.2931 12.6724H34.3966C36.5961 12.6724 38.0172 11.2513 38.0172 9.05172V0.905172C38.0172 0.665106 37.9219 0.434872 37.7521 0.265119C37.5824 0.0953661 37.3521 0 37.1121 0L13.5776 0C13.3375 0 13.1073 0.0953661 12.9375 0.265119C12.7678 0.434872 12.6724 0.665106 12.6724 0.905172V9.05172C12.6724 11.2513 14.0935 12.6724 16.2931 12.6724ZM14.4828 1.81034H36.2069V9.05172C36.2069 10.2538 35.5968 10.8621 34.3966 10.8621H16.2931C15.0928 10.8621 14.4828 10.2538 14.4828 9.05172V1.81034ZM15.3879 28.9655H35.3017C35.5418 28.9655 35.772 28.8702 35.9418 28.7004C36.1115 28.5306 36.2069 28.3004 36.2069 28.0603C36.2069 27.8203 36.1115 27.59 35.9418 27.4203C35.772 27.2505 35.5418 27.1552 35.3017 27.1552H15.3879C15.1479 27.1552 14.9176 27.2505 14.7479 27.4203C14.5781 27.59 14.4828 27.8203 14.4828 28.0603C14.4828 28.3004 14.5781 28.5306 14.7479 28.7004C14.9176 28.8702 15.1479 28.9655 15.3879 28.9655ZM15.3879 21.7241H35.3017C35.5418 21.7241 35.772 21.6288 35.9418 21.459C36.1115 21.2893 36.2069 21.059 36.2069 20.819C36.2069 20.5789 36.1115 20.3487 35.9418 20.1789C35.772 20.0092 35.5418 19.9138 35.3017 19.9138H15.3879C15.1479 19.9138 14.9176 20.0092 14.7479 20.1789C14.5781 20.3487 14.4828 20.5789 14.4828 20.819C14.4828 21.059 14.5781 21.2893 14.7479 21.459C14.9176 21.6288 15.1479 21.7241 15.3879 21.7241ZM15.3879 36.2069H35.3017C35.5418 36.2069 35.772 36.1115 35.9418 35.9418C36.1115 35.772 36.2069 35.5418 36.2069 35.3017C36.2069 35.0617 36.1115 34.8314 35.9418 34.6617C35.772 34.4919 35.5418 34.3966 35.3017 34.3966H15.3879C15.1479 34.3966 14.9176 34.4919 14.7479 34.6617C14.5781 34.8314 14.4828 35.0617 14.4828 35.3017C14.4828 35.5418 14.5781 35.772 14.7479 35.9418C14.9176 36.1115 15.1479 36.2069 15.3879 36.2069ZM15.3879 43.4483H35.3017C35.5418 43.4483 35.772 43.3529 35.9418 43.1832C36.1115 43.0134 36.2069 42.7832 36.2069 42.5431C36.2069 42.303 36.1115 42.0728 35.9418 41.903C35.772 41.7333 35.5418 41.6379 35.3017 41.6379H15.3879C15.1479 41.6379 14.9176 41.7333 14.7479 41.903C14.5781 42.0728 14.4828 42.303 14.4828 42.5431C14.4828 42.7832 14.5781 43.0134 14.7479 43.1832C14.9176 43.3529 15.1479 43.4483 15.3879 43.4483Z" fill="var(--fill-0, white)"/>
</g>
</svg>
