<svg preserveAspectRatio="none" width="100%" height="100%" overflow="visible" style="display: block;" viewBox="0 0 55.345 56.3793" fill="none" xmlns="http://www.w3.org/2000/svg">
<g id="Group 1948755295">
<path id="Vector (Stroke)" d="M12.3691 25.2283C12.369 24.6055 11.8661 24.1007 11.2456 24.1007H2.87102C2.25057 24.1007 1.7476 24.6055 1.74757 25.2283V53.4977C1.74757 54.1204 2.25056 54.6253 2.87102 54.6253H11.2456C11.8661 54.6253 12.3691 54.1204 12.3691 53.4977V25.2283ZM30.5314 1.75402C30.1135 1.75404 29.7301 1.9869 29.5362 2.35844L17.0515 26.2805C16.556 27.23 15.5762 27.825 14.5082 27.825H14.1166V49.6593H17.8663C18.1748 49.6593 18.4816 49.7092 18.7742 49.8071L25.5812 52.0843C25.6957 52.1226 25.8155 52.1425 25.9362 52.1425H45.9743C46.2173 52.1425 46.4538 52.0632 46.6482 51.9169L49.4655 49.7959C49.9617 49.4222 50.0624 48.7157 49.6903 48.2175L48.3762 46.4586C47.4249 45.1854 47.6817 43.3793 48.9501 42.4245L50.7026 41.1055C51.1988 40.7318 51.2991 40.0253 50.9269 39.5272L49.526 37.6518C48.625 36.4459 48.802 34.7467 49.9322 33.7542L52.1678 31.7912C52.5921 31.4186 52.6755 30.7879 52.3629 30.3171L50.5319 27.5608C49.7728 26.4179 49.9227 24.8958 50.8903 23.9245L53.2684 21.5382C53.707 21.0978 53.7071 20.3835 53.2684 19.9432L50.3179 16.9823C50.1072 16.7708 49.821 16.652 49.5231 16.652H36.8288C34.961 16.652 33.5902 14.8901 34.0431 13.0715L35.6663 6.55605C35.7484 6.22664 35.6782 5.87727 35.4752 5.60563L32.9338 2.20525C32.7216 1.92133 32.3887 1.75404 32.0351 1.75402H30.5314ZM4.94772 50.5363V48.0536C4.94772 47.5692 5.33893 47.1766 5.82151 47.1766C6.30407 47.1766 6.6953 47.5692 6.6953 48.0536V50.5363C6.6953 51.0207 6.30407 51.4133 5.82151 51.4133C5.33893 51.4133 4.94772 51.0207 4.94772 50.5363ZM14.1166 26.071H14.5082C14.9261 26.071 15.3095 25.8382 15.5034 25.4666L27.988 1.54456C28.4836 0.595037 29.4634 1.98076e-05 30.5314 0H32.0351C32.9387 1.38003e-05 33.7896 0.427034 34.3318 1.15255L36.8731 4.55341C37.3919 5.2476 37.5714 6.13952 37.3617 6.98134L35.7385 13.4968C35.5613 14.2084 36.0979 14.8979 36.8288 14.8979H49.5231C50.2845 14.8979 51.015 15.2013 51.5535 15.7417L54.504 18.7031C55.6251 19.8284 55.6251 21.653 54.504 22.7783L52.1264 25.1647C51.7478 25.5447 51.689 26.1401 51.986 26.5873L53.8169 29.3442C54.616 30.5474 54.4028 32.1588 53.3186 33.1111L51.0829 35.0746C50.6408 35.463 50.5714 36.1277 50.924 36.5996L52.3253 38.4745C53.2767 39.7476 53.0193 41.5537 51.7509 42.5086L49.999 43.8276C49.5026 44.2012 49.4019 44.9082 49.7742 45.4064L51.0883 47.1648C52.0397 48.438 51.7824 50.2446 50.5139 51.1995L47.6965 53.32C47.1996 53.694 46.5954 53.8965 45.9743 53.8966H25.9362C25.6276 53.8966 25.321 53.8462 25.0283 53.7483L18.2218 51.4711C18.1073 51.4328 17.987 51.4133 17.8663 51.4133H14.1166V53.4977C14.1166 55.0892 12.8312 56.3793 11.2456 56.3793H2.87102C1.2854 56.3793 0 55.0892 0 53.4977V25.2283C2.36762e-05 23.6368 1.28541 22.3467 2.87102 22.3467H11.2456C12.8312 22.3467 14.1166 23.6368 14.1166 25.2283V26.071Z" fill="var(--fill-0, white)"/>
</g>
</svg>
