<svg preserveAspectRatio="none" width="100%" height="100%" overflow="visible" style="display: block;" viewBox="0 0 11.0507 11.0455" fill="none" xmlns="http://www.w3.org/2000/svg">
<path id="draw" d="M9.76532 0.21967C10.0582 -0.0732233 10.533 -0.0732233 10.8259 0.21967C11.1187 0.512568 11.1187 0.987342 10.8259 1.28022L6.58588 5.52021L10.831 9.76532C11.1239 10.0582 11.1239 10.533 10.831 10.8259C10.5381 11.1187 10.0633 11.1187 9.77045 10.8259L5.52533 6.58075L1.28022 10.8259C0.987342 11.1187 0.512568 11.1187 0.21967 10.8259C-0.0732233 10.533 -0.0732233 10.0582 0.21967 9.76532L4.46479 5.52021L0.224797 1.28022C-0.0680658 0.987354 -0.0680048 0.51257 0.224797 0.21967C0.51769 -0.0732233 0.99245 -0.0732233 1.28534 0.21967L5.52533 4.45966L9.76532 0.21967Z" fill="var(--fill-0, white)"/>
</svg>
