<svg preserveAspectRatio="none" width="100%" height="100%" overflow="visible" style="display: block;" viewBox="0 0 169 150" fill="none" xmlns="http://www.w3.org/2000/svg">
<path id="&#226;&#128;&#156;" d="M99.3359 150V99.7854C99.3359 72.3176 104.711 49.7854 115.462 32.1888C126.642 14.5923 144.489 3.86266 169 0V26.3948C154.379 28.1116 144.059 33.691 138.038 43.133C132.018 52.5751 129.008 67.5966 129.008 88.1974L109.656 85.6223H168.355V150H99.3359ZM0 150V99.7854C0 72.3176 5.37532 49.7854 16.126 32.1888C27.3066 14.5923 45.1527 3.86266 69.6641 0V26.3948C55.0433 28.1116 44.7226 33.691 38.7023 43.133C32.6819 52.5751 29.6718 67.5966 29.6718 88.1974L10.3206 85.6223H69.0191V150H0Z" fill="var(--fill-0, #D9D9D9)" fill-opacity="0.1"/>
</svg>
