<svg preserveAspectRatio="none" width="100%" height="100%" overflow="visible" style="display: block;" viewBox="0 0 348 309" fill="none" xmlns="http://www.w3.org/2000/svg">
<path id="&#226;&#128;&#156;" d="M204.55 309V205.558C204.55 148.974 215.618 102.558 237.756 66.309C260.779 30.0601 297.527 7.95708 348 0V54.3733C317.893 57.9098 296.641 69.4034 284.244 88.854C271.847 108.305 265.649 139.249 265.649 181.687L225.801 176.382H346.672V309H204.55ZM0 309V205.558C0 148.974 11.0687 102.558 33.2061 66.309C56.229 30.0601 92.9771 7.95708 143.45 0V54.3733C113.344 57.9098 92.0916 69.4034 79.6946 88.854C67.2977 108.305 61.0992 139.249 61.0992 181.687L21.2519 176.382H142.122V309H0Z" fill="var(--fill-0, #D9D9D9)" fill-opacity="0.1"/>
</svg>
