<svg preserveAspectRatio="none" width="100%" height="100%" overflow="visible" style="display: block;" viewBox="0 0 39 31" fill="none" xmlns="http://www.w3.org/2000/svg">
<g id="logo (6) 2" clip-path="url(#clip0_907_21834)">
<path id="Vector" d="M36.2598 14.7036C37.6012 13.1526 38.691 11.0147 38.691 8.83494C38.691 7.95465 38.5653 7.07436 38.3138 6.23599C37.8107 4.30773 36.637 2.75674 34.9603 1.66686C33.4931 0.702731 31.6906 0.199707 29.5947 0.199707H18.7378L17.8575 4.39157H29.5528C30.8103 4.39157 31.8164 4.64308 32.529 5.14611L32.6128 5.22994C33.4093 5.73297 33.9542 6.44558 34.2057 7.36779L34.2477 7.49355C34.3734 7.95465 34.4573 8.41576 34.4573 8.87686C34.4573 10.2183 33.2416 12.0627 32.0679 12.943L30.0558 14.452L31.9421 16.1707C32.3613 16.548 32.7386 17.0091 32.9901 17.4702L33.032 17.5121C33.577 18.4343 33.8704 19.5242 33.8704 20.5722C33.8704 23.8837 31.1457 26.6084 27.8341 26.6084C27.6245 26.6084 27.0377 26.6084 26.4508 26.6084C25.7801 26.6084 25.1513 26.6084 24.8998 26.6084H13.2045L12.3242 30.8003H24.8998C25.1513 30.8003 25.7801 30.8003 26.4508 30.8003C27.0796 30.8003 27.6664 30.8003 27.876 30.8003C33.4931 30.8003 38.1042 26.2312 38.1042 20.5722C38.1042 18.7697 37.6012 16.9672 36.6789 15.3743C36.5113 15.1227 36.3855 14.9131 36.2598 14.7036Z" fill="url(#paint0_linear_907_21834)"/>
<path id="Vector_2" d="M16.6836 22.4168H14.3781C12.7013 22.4168 11.1923 21.2011 10.8569 19.5663L10.4377 17.68H15.6776L14.7973 13.4881H9.13826C7.46151 13.4881 5.95245 12.2725 5.6171 10.6376L5.19791 8.58364H17.1866C18.8634 8.58364 20.3725 9.79928 20.7078 11.4341L21.127 13.4043H25.4027L24.8158 10.5538C24.0613 6.94881 20.8755 4.34985 17.1866 4.34985H0L1.50907 11.476C2.05401 13.9911 3.77268 16.0032 5.99436 16.9674L6.7489 20.4047C7.50343 24.0097 10.6892 26.6086 14.3362 26.6086H17.522L16.6836 22.4168Z" fill="url(#paint1_linear_907_21834)"/>
</g>
<defs>
<linearGradient id="paint0_linear_907_21834" x1="35.1925" y1="27.6481" x2="13.251" y2="5.70656" gradientUnits="userSpaceOnUse">
<stop stop-color="#00EFFD"/>
<stop offset="0.0109202" stop-color="#00ECFD"/>
<stop offset="0.2676" stop-color="#0BB2F2"/>
<stop offset="0.5038" stop-color="#1483EA"/>
<stop offset="0.7121" stop-color="#1A62E5"/>
<stop offset="0.8846" stop-color="#1E4DE1"/>
<stop offset="1" stop-color="#1F46E0"/>
</linearGradient>
<linearGradient id="paint1_linear_907_21834" x1="22.032" y1="24.3157" x2="6.68202" y2="3.98468" gradientUnits="userSpaceOnUse">
<stop stop-color="#00EFFD"/>
<stop offset="0.0109202" stop-color="#00ECFD"/>
<stop offset="0.2676" stop-color="#0BB2F2"/>
<stop offset="0.5038" stop-color="#1483EA"/>
<stop offset="0.7121" stop-color="#1A62E5"/>
<stop offset="0.8846" stop-color="#1E4DE1"/>
<stop offset="1" stop-color="#1F46E0"/>
</linearGradient>
<clipPath id="clip0_907_21834">
<rect width="39" height="31" fill="white"/>
</clipPath>
</defs>
</svg>
