<svg preserveAspectRatio="none" width="100%" height="100%" overflow="visible" style="display: block;" viewBox="0 0 12.2785 12.2728" fill="none" xmlns="http://www.w3.org/2000/svg">
<path id="draw" d="M10.8504 0.244078C11.1758 -0.0813592 11.7033 -0.0813592 12.0287 0.244078C12.3541 0.56952 12.3542 1.09705 12.0287 1.42246L7.31765 6.13356L12.0344 10.8504C12.3599 11.1758 12.3599 11.7033 12.0344 12.0287C11.709 12.3541 11.1815 12.3541 10.8561 12.0287L6.13926 7.31195L1.42246 12.0287C1.09705 12.3542 0.56952 12.3541 0.244078 12.0287C-0.0813592 11.7033 -0.0813592 11.1758 0.244078 10.8504L4.96087 6.13356L0.249774 1.42246C-0.0756287 1.09706 -0.0755609 0.569523 0.249774 0.244078C0.575211 -0.0813592 1.10272 -0.0813592 1.42816 0.244078L6.13926 4.95518L10.8504 0.244078Z" fill="var(--fill-0, white)"/>
</svg>
