<svg preserveAspectRatio="none" width="100%" height="100%" overflow="visible" style="display: block;" viewBox="0 0 20 20" fill="none" xmlns="http://www.w3.org/2000/svg">
<g id="Group 1948755184">
<circle id="Ellipse 1735" opacity="0.4" cx="10" cy="10" r="10" fill="var(--fill-0, #00BFFF)"/>
<path id="Vector" d="M15 13.1705C15 13.3505 14.96 13.5405 14.87 13.7205C14.78 13.9005 14.67 14.0705 14.53 14.2305C14.28 14.5005 14.01 14.7005 13.71 14.8205C13.41 14.9505 13.08 15.0105 12.73 15.0105C12.22 15.0105 11.67 14.8905 11.1 14.6405C10.52 14.3905 9.95 14.0605 9.38 13.6505C8.8 13.2305 8.25999 12.7605 7.73999 12.2505C7.21999 11.7305 6.76003 11.1805 6.34003 10.6105C5.93003 10.0405 5.59999 9.47047 5.35999 8.90047C5.11999 8.33047 5 7.78047 5 7.26047C5 6.92047 5.05999 6.59047 5.17999 6.29047C5.29999 5.98047 5.49001 5.70046 5.76001 5.45046C6.08001 5.13046 6.42999 4.98047 6.79999 4.98047C6.93999 4.98047 7.08002 5.01047 7.21002 5.07047C7.34002 5.13047 7.45999 5.22046 7.54999 5.35046L8.70001 7.00047C8.79001 7.13047 8.86002 7.24046 8.90002 7.35046C8.95002 7.46046 8.96997 7.56047 8.96997 7.66047C8.96997 7.78047 8.92999 7.90046 8.85999 8.02046C8.78999 8.14046 8.70002 8.26046 8.58002 8.38046L8.20001 8.78046C8.14001 8.84046 8.12 8.90047 8.12 8.98047C8.12 9.02047 8.13001 9.06046 8.14001 9.10046C8.16001 9.14046 8.16999 9.17046 8.17999 9.20046C8.26999 9.37046 8.43002 9.58046 8.65002 9.84046C8.88002 10.1005 9.12 10.3705 9.38 10.6305C9.65 10.9005 9.90999 11.1405 10.18 11.3705C10.44 11.5905 10.66 11.7405 10.83 11.8305C10.86 11.8405 10.89 11.8605 10.92 11.8705C10.96 11.8905 11 11.8905 11.05 11.8905C11.14 11.8905 11.2 11.8605 11.26 11.8005L11.64 11.4205C11.77 11.2905 11.89 11.2005 12 11.1405C12.12 11.0705 12.23 11.0305 12.36 11.0305C12.46 11.0305 12.56 11.0505 12.67 11.1005C12.78 11.1505 12.9 11.2105 13.02 11.3005L14.68 12.4805C14.81 12.5705 14.9 12.6805 14.96 12.8005C14.97 12.9105 15 13.0305 15 13.1705Z" fill="var(--fill-0, #00BFFF)"/>
</g>
</svg>
