<svg preserveAspectRatio="none" width="100%" height="100%" overflow="visible" style="display: block;" viewBox="0 0 16.6664 16.6664" fill="none" xmlns="http://www.w3.org/2000/svg">
<path id="draw" fill-rule="evenodd" clip-rule="evenodd" d="M7.5 0C11.6421 0 15 3.35786 15 7.5C15 9.2708 14.3849 10.8971 13.3586 12.1802L16.4225 15.2441C16.7476 15.5696 16.7478 16.0972 16.4225 16.4225C16.0972 16.7478 15.5696 16.7476 15.2441 16.4225L12.1802 13.3586C10.8971 14.3849 9.2708 15 7.5 15C3.35786 15 0 11.6421 0 7.5C0 3.35786 3.35786 0 7.5 0ZM7.5 1.66667C4.27834 1.66667 1.66667 4.27834 1.66667 7.5C1.66667 10.7217 4.27834 13.3333 7.5 13.3333C9.07501 13.3333 10.5032 12.708 11.5527 11.6935C11.5731 11.6677 11.5957 11.6433 11.6195 11.6195C11.6433 11.5957 11.6677 11.5731 11.6935 11.5527C12.708 10.5032 13.3333 9.07501 13.3333 7.5C13.3333 4.27834 10.7217 1.66667 7.5 1.66667Z" fill="var(--fill-0, white)"/>
</svg>
