<svg preserveAspectRatio="none" width="100%" height="100%" overflow="visible" style="display: block;" viewBox="0 0 21.9982 19.9998" fill="none" xmlns="http://www.w3.org/2000/svg">
<g id="Union">
<path d="M10.6055 0.0975515C12.7523 -0.204459 14.9396 0.199114 16.8369 1.24794C18.7342 2.29679 20.2389 3.93449 21.125 5.91298C22.011 7.89156 22.23 10.1048 21.749 12.2186C21.268 14.3326 20.113 16.2332 18.458 17.6337C16.803 19.0341 14.7377 19.8587 12.5732 19.9833C10.4088 20.1079 8.26277 19.5254 6.45801 18.3241C4.65333 17.1228 3.28683 15.3679 2.56641 13.3231C2.38315 12.8024 2.65701 12.2313 3.17773 12.0477C3.69843 11.8644 4.26942 12.1376 4.45312 12.6581C5.02939 14.2938 6.12189 15.698 7.56543 16.6591C9.00921 17.6201 10.7265 18.0858 12.458 17.9862C14.1895 17.8866 15.842 17.2275 17.166 16.1073C18.4899 14.987 19.4139 13.4663 19.7988 11.7753C20.1836 10.0842 20.0086 8.31323 19.2998 6.73036C18.591 5.14764 17.3868 3.83799 15.8691 2.99892C14.3512 2.15986 12.6012 1.8364 10.8838 2.07802C9.16659 2.31967 7.57403 3.11273 6.34668 4.33779C6.33969 4.34477 6.33239 4.35249 6.3252 4.35927L3.52441 6.99111H7C7.55228 6.99111 8 7.43882 8 7.99111C7.99995 8.54335 7.55226 8.99111 7 8.99111H1C0.992481 8.99111 0.985018 8.98932 0.977539 8.98915C0.96743 8.98892 0.957364 8.98871 0.947266 8.98818C0.925908 8.98707 0.904771 8.98572 0.883789 8.98329C0.861241 8.98066 0.838758 8.97769 0.816406 8.97353C0.808854 8.97213 0.801437 8.97022 0.793945 8.96865C0.774936 8.96466 0.756093 8.96007 0.737305 8.95497C0.720934 8.95052 0.704502 8.94655 0.688477 8.9413C0.673895 8.93654 0.659896 8.93015 0.645508 8.9247C0.632754 8.91985 0.61992 8.9154 0.607422 8.91005C0.559344 8.88955 0.512732 8.86514 0.467773 8.83681C0.455227 8.8289 0.442826 8.82084 0.430664 8.8124C0.41866 8.80406 0.407212 8.79495 0.395508 8.78603C0.38185 8.77563 0.368562 8.76488 0.355469 8.7538C0.345115 8.74503 0.335262 8.73571 0.325195 8.72646C0.309904 8.71242 0.294666 8.69844 0.280273 8.68349C0.277635 8.68075 0.274099 8.67846 0.271484 8.67568C0.264816 8.66858 0.259351 8.66046 0.25293 8.65322C0.240967 8.63973 0.229003 8.62632 0.217773 8.6122C0.206559 8.5981 0.195887 8.58377 0.185547 8.56923C0.177694 8.55819 0.169519 8.5474 0.162109 8.53603C0.151205 8.51929 0.140654 8.50246 0.130859 8.48525C0.124445 8.47399 0.118289 8.46259 0.112305 8.45107C0.104639 8.43628 0.0976946 8.42121 0.0908203 8.40615C0.0824602 8.38787 0.0746536 8.36933 0.0673828 8.35048C0.0636418 8.34075 0.0600655 8.331 0.0566406 8.32118C0.049787 8.3016 0.0437339 8.28173 0.0380859 8.26161C0.0341811 8.24767 0.0306313 8.23369 0.0273438 8.21962C0.0237864 8.20443 0.0204337 8.18918 0.0175781 8.17372C0.0143942 8.15649 0.0110625 8.13931 0.00878906 8.12197C0.00663053 8.10547 0.00427364 8.0889 0.00292969 8.07216C0.00167254 8.05657 0.00150547 8.04091 0.000976562 8.02529C0.000594201 8.01393 9.6917e-07 8.00255 0 7.99111V1.99111C0 1.43882 0.447715 0.991106 1 0.991106C1.55228 0.991106 2 1.43882 2 1.99111V5.67861L4.95508 2.90224C6.48652 1.38257 8.4685 0.398211 10.6055 0.0975515Z" fill="var(--fill-0, white)"/>
<path d="M11 3.99111C11.5523 3.99111 12 4.43882 12 4.99111V10.3729L15.4473 12.0966C15.9412 12.3436 16.1415 12.9444 15.8945 13.4384C15.6475 13.9323 15.0467 14.1326 14.5527 13.8856L10.5527 11.8856C10.214 11.7163 10 11.3698 10 10.9911V4.99111C10 4.43882 10.4477 3.99111 11 3.99111Z" fill="var(--fill-0, white)"/>
</g>
</svg>
