<svg preserveAspectRatio="none" width="100%" height="100%" overflow="visible" style="display: block;" viewBox="0 0 26 26" fill="none" xmlns="http://www.w3.org/2000/svg">
<g id="Pointer Copy" filter="url(#filter0_d_2398_4526)">
<mask id="path-1-outside-1_2398_4526" maskUnits="userSpaceOnUse" x="2.00009" y="1" width="22" height="22" fill="black">
<rect fill="white" x="2.00009" y="1" width="22" height="22"/>
<path fill-rule="evenodd" clip-rule="evenodd" d="M10.692 22C10.692 22 7.29854 19.5732 6.10467 17.7143C4.9108 15.8553 2.64848 13.4872 3.04643 12C3.44439 10.5128 4.9108 10.0442 6.10467 11.1595C7.29854 12.2749 8.10276 14.6915 8.89868 14.3197C9.69459 13.948 9.09765 10.416 8.30174 8.37111C7.50583 6.32627 6.67602 2 8.30174 2C9.92746 2 9.92746 3.42857 10.692 5.57143C11.4566 7.71429 10.8596 10.5714 11.4566 10.5714C12.0535 10.5714 12.2813 10.0723 12.2813 9.14286C12.2813 8.89027 12.3343 8.67678 12.4419 8.4998C12.7304 8.02554 13.411 7.81343 14.5148 7.81343C16.0305 7.81343 15.2794 10.5714 16.0439 10.5714C16.8085 10.5714 16.8085 10.63 16.8085 9.14286C16.8085 7.6557 17.5174 7.81343 19.0466 7.81343C20.5757 7.81343 19.8354 10.5714 20.6313 10.5714C21.4272 10.5714 20.6313 9.14286 21.3958 9.14286C22.1604 9.14286 22.925 9.36818 22.925 12.7143C22.925 16.0604 23.3543 16.2271 22.1604 17.7143C20.9665 19.2014 19.8667 20.5714 19.8667 20.5714C19.8667 20.5714 19.8667 22 19.0466 22C18.2264 22 17.8034 20.5714 16.8085 20.5714C15.8136 20.5714 15.2794 22 15.2794 22H10.692ZM15.2794 17.7143C15.2794 18.1013 15.6341 19.1429 16.044 19.1429C16.4662 19.1429 16.8085 18.1078 16.8085 17.7143V14.8572C16.8085 14.4702 16.4539 13.4286 16.044 13.4286C15.6217 13.4286 15.2794 14.4637 15.2794 14.8572V17.7143ZM18.3375 17.7884C18.3375 18.1754 18.6922 19.217 19.1021 19.217C19.5243 19.217 19.8667 18.1819 19.8667 17.7884V14.9313C19.8667 14.5443 19.512 13.5027 19.1021 13.5027C18.6798 13.5027 18.3375 14.5378 18.3375 14.9313V17.7884ZM12.2211 17.7143C12.2211 18.1013 12.5757 19.1429 12.9856 19.1429C13.4079 19.1429 13.7502 18.1077 13.7502 17.7143V14.8571C13.7502 14.4702 13.3956 13.4286 12.9856 13.4286C12.5634 13.4286 12.2211 14.4637 12.2211 14.8571V17.7143Z"/>
</mask>
<path fill-rule="evenodd" clip-rule="evenodd" d="M10.692 22C10.692 22 7.29854 19.5732 6.10467 17.7143C4.9108 15.8553 2.64848 13.4872 3.04643 12C3.44439 10.5128 4.9108 10.0442 6.10467 11.1595C7.29854 12.2749 8.10276 14.6915 8.89868 14.3197C9.69459 13.948 9.09765 10.416 8.30174 8.37111C7.50583 6.32627 6.67602 2 8.30174 2C9.92746 2 9.92746 3.42857 10.692 5.57143C11.4566 7.71429 10.8596 10.5714 11.4566 10.5714C12.0535 10.5714 12.2813 10.0723 12.2813 9.14286C12.2813 8.89027 12.3343 8.67678 12.4419 8.4998C12.7304 8.02554 13.411 7.81343 14.5148 7.81343C16.0305 7.81343 15.2794 10.5714 16.0439 10.5714C16.8085 10.5714 16.8085 10.63 16.8085 9.14286C16.8085 7.6557 17.5174 7.81343 19.0466 7.81343C20.5757 7.81343 19.8354 10.5714 20.6313 10.5714C21.4272 10.5714 20.6313 9.14286 21.3958 9.14286C22.1604 9.14286 22.925 9.36818 22.925 12.7143C22.925 16.0604 23.3543 16.2271 22.1604 17.7143C20.9665 19.2014 19.8667 20.5714 19.8667 20.5714C19.8667 20.5714 19.8667 22 19.0466 22C18.2264 22 17.8034 20.5714 16.8085 20.5714C15.8136 20.5714 15.2794 22 15.2794 22H10.692ZM15.2794 17.7143C15.2794 18.1013 15.6341 19.1429 16.044 19.1429C16.4662 19.1429 16.8085 18.1078 16.8085 17.7143V14.8572C16.8085 14.4702 16.4539 13.4286 16.044 13.4286C15.6217 13.4286 15.2794 14.4637 15.2794 14.8572V17.7143ZM18.3375 17.7884C18.3375 18.1754 18.6922 19.217 19.1021 19.217C19.5243 19.217 19.8667 18.1819 19.8667 17.7884V14.9313C19.8667 14.5443 19.512 13.5027 19.1021 13.5027C18.6798 13.5027 18.3375 14.5378 18.3375 14.9313V17.7884ZM12.2211 17.7143C12.2211 18.1013 12.5757 19.1429 12.9856 19.1429C13.4079 19.1429 13.7502 18.1077 13.7502 17.7143V14.8571C13.7502 14.4702 13.3956 13.4286 12.9856 13.4286C12.5634 13.4286 12.2211 14.4637 12.2211 14.8571V17.7143Z" fill="var(--fill-0, white)"/>
<path d="M10.692 22L10.1103 22.8134L10.3712 23H10.692V22ZM3.04643 12L4.01244 12.2585V12.2585L3.04643 12ZM6.10467 11.1595L5.42199 11.8903V11.8903L6.10467 11.1595ZM8.89868 14.3197L8.47545 13.4137V13.4137L8.89868 14.3197ZM8.30174 8.37111L9.23364 8.00839V8.00839L8.30174 8.37111ZM8.30174 2V1V1V2ZM10.692 5.57143L9.75017 5.90747L10.692 5.57143ZM11.4566 10.5714L11.4566 11.5714V11.5714L11.4566 10.5714ZM12.2813 9.14286L11.2813 9.14286L12.2813 9.14286ZM12.4419 8.4998L11.5875 7.9802V7.9802L12.4419 8.4998ZM14.5148 7.81343V6.81343V6.81343V7.81343ZM16.0439 10.5714V9.57143V9.57143V10.5714ZM16.8085 9.14286H15.8085H16.8085ZM19.0466 7.81343V6.81343H19.0466L19.0466 7.81343ZM20.6313 10.5714V11.5714V11.5714V10.5714ZM21.3958 9.14286V8.14286V8.14286V9.14286ZM22.925 12.7143H21.925H22.925ZM22.1604 17.7143L22.9402 18.3403V18.3403L22.1604 17.7143ZM19.8667 20.5714L19.0869 19.9454L18.8667 20.2197V20.5714H19.8667ZM19.0466 22V21H19.0466L19.0466 22ZM16.8085 20.5714V19.5714V20.5714ZM15.2794 22V23H15.973L16.216 22.3503L15.2794 22ZM10.692 22C11.2737 21.1866 11.2738 21.1866 11.2738 21.1867C11.2738 21.1867 11.2739 21.1867 11.2739 21.1867C11.2739 21.1867 11.2738 21.1867 11.2737 21.1866C11.2735 21.1865 11.2731 21.1862 11.2725 21.1857C11.2713 21.1849 11.2693 21.1834 11.2665 21.1814C11.2609 21.1774 11.2522 21.1711 11.2405 21.1626C11.2172 21.1457 11.1821 21.1201 11.1365 21.0866C11.0454 21.0196 10.9126 20.9208 10.7491 20.7963C10.4216 20.5468 9.9732 20.1956 9.48972 19.7889C8.49303 18.9507 7.4532 17.9635 6.94609 17.1739L6.10467 17.7143L5.26325 18.2547C5.95001 19.324 7.20385 20.4797 8.20237 21.3195C8.7165 21.752 9.19111 22.1237 9.53716 22.3873C9.71045 22.5193 9.85215 22.6247 9.95124 22.6976C10.0008 22.734 10.0397 22.7624 10.0667 22.7819C10.0802 22.7917 10.0907 22.7993 10.098 22.8046C10.1017 22.8072 10.1045 22.8093 10.1066 22.8107C10.1076 22.8115 10.1085 22.8121 10.1091 22.8125C10.1094 22.8127 10.1097 22.8129 10.1099 22.8131C10.11 22.8132 10.1101 22.8132 10.1101 22.8133C10.1102 22.8133 10.1103 22.8134 10.692 22ZM6.10467 17.7143L6.94609 17.1739C6.62699 16.677 6.24168 16.1539 5.87192 15.6527C5.49405 15.1404 5.12886 14.6464 4.81388 14.1679C4.49652 13.6858 4.25986 13.2632 4.12335 12.9038C3.98299 12.5342 3.99049 12.3405 4.01244 12.2585L3.04643 12L2.08042 11.7415C1.90339 12.4031 2.04446 13.0631 2.25366 13.6139C2.46672 14.1749 2.79564 14.7394 3.14335 15.2676C3.49344 15.7994 3.89281 16.3389 4.26246 16.84C4.64023 17.3521 4.98541 17.8221 5.26325 18.2547L6.10467 17.7143ZM3.04643 12L4.01244 12.2585C4.1383 11.7882 4.38602 11.6133 4.55502 11.5644C4.71816 11.5172 5.02962 11.5237 5.42199 11.8903L6.10467 11.1595L6.78734 10.4288C5.98585 9.68001 4.96717 9.36314 3.99915 9.64322C3.03699 9.92161 2.35252 10.7247 2.08042 11.7415L3.04643 12ZM6.10467 11.1595L5.42199 11.8903C5.90028 12.3371 6.30212 13.0514 6.81063 13.8395C7.03151 14.1818 7.30412 14.5843 7.61293 14.8717C7.91009 15.1482 8.55122 15.5858 9.3219 15.2258L8.89868 14.3197L8.47545 13.4137C8.84817 13.2396 9.09031 13.5145 8.97552 13.4076C8.87238 13.3117 8.72008 13.1099 8.49118 12.7552C8.10013 12.1491 7.50293 11.0973 6.78734 10.4288L6.10467 11.1595ZM8.89868 14.3197L9.3219 15.2258C9.72876 15.0357 9.94291 14.6931 10.0535 14.4349C10.1663 14.1713 10.2204 13.8855 10.2477 13.6252C10.3026 13.1005 10.2682 12.4742 10.1893 11.8479C10.0305 10.5871 9.66341 9.11254 9.23364 8.00839L8.30174 8.37111L7.36984 8.73384C7.73599 9.67453 8.06527 10.9883 8.20498 12.0978C8.27534 12.6565 8.29062 13.1107 8.25855 13.4168C8.25093 13.4895 8.24142 13.5457 8.23204 13.5871C8.22743 13.6074 8.22322 13.6226 8.21992 13.6331C8.2166 13.6438 8.21465 13.6482 8.2149 13.6477C8.21512 13.6471 8.21831 13.6397 8.22568 13.6273C8.23305 13.6148 8.24563 13.5955 8.26496 13.5724C8.30474 13.5248 8.37311 13.4615 8.47545 13.4137L8.89868 14.3197ZM8.30174 8.37111L9.23364 8.00839C8.86701 7.06646 8.48592 5.56972 8.39063 4.3414C8.34189 3.713 8.37751 3.26212 8.45741 3.00949C8.49516 2.89013 8.52071 2.88738 8.48378 2.92176C8.42477 2.9767 8.3441 3 8.30174 3V2V1C7.85295 1 7.44259 1.15849 7.1209 1.45801C6.82128 1.73698 6.65115 2.08819 6.55052 2.40637C6.35365 3.02882 6.34164 3.78731 6.39662 4.49608C6.50879 5.94211 6.94056 7.63093 7.36984 8.73384L8.30174 8.37111ZM8.30174 2V3C8.55606 3 8.64765 3.05335 8.68235 3.0775C8.7281 3.10934 8.80934 3.18697 8.91761 3.41345C9.03017 3.6489 9.13327 3.95955 9.26821 4.40143C9.39694 4.82301 9.54909 5.34388 9.75017 5.90747L10.692 5.57143L11.6339 5.23538C11.4527 4.72755 11.3181 4.26628 11.181 3.81732C11.0501 3.38866 10.9082 2.94038 10.722 2.55084C10.5315 2.15232 10.2601 1.73887 9.82476 1.43589C9.37834 1.12522 8.86028 1 8.30174 1V2ZM10.692 5.57143L9.75017 5.90747C10.0701 6.80421 10.116 7.89599 10.1374 8.89633C10.1471 9.35277 10.1523 9.85147 10.2015 10.2229C10.225 10.4005 10.2707 10.6611 10.3943 10.9016C10.5346 11.1746 10.8701 11.5714 11.4566 11.5714L11.4566 10.5714L11.4566 9.57143C11.8939 9.57143 12.1174 9.87899 12.1731 9.9874C12.2121 10.0632 12.2005 10.0838 12.1841 9.96017C12.1535 9.72888 12.1481 9.37937 12.1369 8.85367C12.1164 7.88973 12.0785 6.48151 11.6339 5.23538L10.692 5.57143ZM11.4566 10.5714L11.4566 11.5714C11.7476 11.5714 12.0547 11.5095 12.3405 11.3431C12.6279 11.1758 12.832 10.9386 12.9705 10.6849C13.2262 10.2167 13.2813 9.65016 13.2813 9.14286H12.2813L11.2813 9.14286C11.2813 9.33783 11.2691 9.48317 11.251 9.58786C11.2325 9.69492 11.2126 9.73103 11.2151 9.72647C11.2221 9.71373 11.2573 9.65946 11.3341 9.61475C11.4092 9.571 11.464 9.57143 11.4566 9.57143L11.4566 10.5714ZM12.2813 9.14286H13.2813C13.2813 9.08615 13.2873 9.05205 13.2915 9.03499C13.2955 9.01916 13.2984 9.0161 13.2964 9.0194L12.4419 8.4998L11.5875 7.9802C11.3651 8.34603 11.2813 8.74884 11.2813 9.14286L12.2813 9.14286ZM12.4419 8.4998L13.2964 9.0194C13.2812 9.04425 13.2917 8.99181 13.4828 8.92944C13.6857 8.86324 14.0138 8.81343 14.5148 8.81343V7.81343V6.81343C13.912 6.81343 13.3479 6.86967 12.8624 7.0281C12.3652 7.19034 11.8911 7.48109 11.5875 7.9802L12.4419 8.4998ZM14.5148 7.81343V8.81343C14.5463 8.81343 14.5185 8.81856 14.4708 8.79001C14.4269 8.76372 14.4161 8.73861 14.4275 8.75773C14.4702 8.82907 14.5235 8.99606 14.5709 9.33208C14.604 9.56715 14.6485 10.0561 14.7221 10.3693C14.7622 10.5396 14.8389 10.8061 15.0159 11.0463C15.2294 11.3358 15.5824 11.5714 16.0439 11.5714V10.5714V9.57143C16.3144 9.57143 16.5236 9.72083 16.6258 9.85956C16.6917 9.94888 16.6898 9.99991 16.6691 9.91167C16.6212 9.70781 16.6154 9.50721 16.5513 9.05278C16.5014 8.6993 16.4105 8.17679 16.1438 7.731C16.0006 7.49156 15.7938 7.25098 15.4979 7.07386C15.1981 6.89449 14.8623 6.81343 14.5148 6.81343V7.81343ZM16.0439 10.5714V11.5714C16.1707 11.5714 16.436 11.5791 16.6488 11.544C16.9536 11.4937 17.3455 11.3333 17.5861 10.9022C17.7563 10.5972 17.7829 10.2556 17.7948 10.052C17.8089 9.81194 17.8085 9.50131 17.8085 9.14286L16.8085 9.14286H15.8085C15.8085 9.52799 15.8081 9.76771 15.7983 9.9349C15.7935 10.0155 15.788 10.0501 15.7865 10.0577C15.7847 10.0672 15.7938 10.0097 15.8397 9.9275C15.8937 9.83076 15.9813 9.73071 16.1021 9.65719C16.2104 9.59131 16.3005 9.57442 16.3231 9.57069C16.3425 9.5675 16.3379 9.57014 16.2785 9.5712C16.217 9.57229 16.1557 9.57143 16.0439 9.57143V10.5714ZM16.8085 9.14286L17.8085 9.14286C17.8085 8.9943 17.8175 8.88994 17.8291 8.81877C17.8406 8.74771 17.8523 8.72427 17.8499 8.72934C17.8267 8.77933 17.7634 8.83387 17.7236 8.84971C17.7226 8.85009 17.7461 8.84089 17.8104 8.83154C17.8747 8.82219 17.9615 8.81518 18.0818 8.81157C18.3465 8.80363 18.6184 8.81343 19.0466 8.81343V7.81343L19.0466 6.81343C18.7102 6.81343 18.3201 6.80352 18.0218 6.81247C17.7185 6.82157 17.3394 6.85015 16.9847 6.99121C16.5764 7.15352 16.2403 7.44747 16.0364 7.88614C15.8561 8.27391 15.8085 8.71307 15.8085 9.14286H16.8085ZM19.0466 7.81343V8.81343C19.0812 8.81343 19.057 8.81928 19.0124 8.79291C18.9713 8.76864 18.9618 8.74581 18.9741 8.76595C19.0188 8.83904 19.0738 9.0067 19.1254 9.34375C19.1619 9.58221 19.2121 10.0691 19.2944 10.3893C19.339 10.5632 19.4232 10.8303 19.6094 11.0686C19.8319 11.3534 20.1842 11.5714 20.6313 11.5714V10.5714V9.57143C20.8794 9.57143 21.0807 9.70324 21.1854 9.83729C21.2538 9.92476 21.2532 9.97634 21.2315 9.89171C21.1809 9.69477 21.1714 9.49215 21.1024 9.04111C21.0484 8.68865 20.952 8.16682 20.6806 7.72279C20.5348 7.48436 20.3261 7.24606 20.0297 7.07096C19.7298 6.89377 19.3942 6.81343 19.0466 6.81343V7.81343ZM20.6313 10.5714V11.5714C20.8812 11.5714 21.1705 11.5139 21.4341 11.3297C21.6985 11.145 21.8418 10.8992 21.9175 10.6934C21.9891 10.4988 22.0105 10.3137 22.0191 10.187C22.0278 10.0578 22.0262 9.92985 22.0253 9.84617C22.0242 9.74685 22.0238 9.69414 22.0262 9.65077C22.0288 9.60538 22.0322 9.62997 22.013 9.6867C21.9905 9.75298 21.9262 9.89359 21.7697 10.009C21.6107 10.1263 21.4582 10.1429 21.3958 10.1429L21.3958 9.14286V8.14286C21.1424 8.14286 20.8474 8.20408 20.5825 8.39946C20.3201 8.59302 20.1863 8.84523 20.1186 9.04544C20.054 9.2361 20.0362 9.41694 20.0294 9.53896C20.0224 9.663 20.0245 9.78886 20.0254 9.86812C20.0264 9.963 20.0262 10.0136 20.0236 10.0519C20.0209 10.0926 20.0182 10.0637 20.0405 10.003C20.0669 9.93114 20.1359 9.79699 20.2885 9.69034C20.4402 9.58432 20.5803 9.57143 20.6313 9.57143V10.5714ZM21.3958 9.14286V10.1429C21.5513 10.1429 21.5835 10.1579 21.5782 10.1557C21.5437 10.1416 21.5501 10.1228 21.5912 10.1909C21.7235 10.41 21.925 11.0544 21.925 12.7143H22.925H23.925C23.925 11.0281 23.7441 9.88677 23.303 9.1567C23.0574 8.75013 22.7293 8.46596 22.3364 8.30498C21.9728 8.15602 21.6226 8.14286 21.3958 8.14286V9.14286ZM22.925 12.7143H21.925C21.925 13.5732 21.9526 14.2287 21.9743 14.7404C21.9967 15.2698 22.0092 15.5894 21.9925 15.8466C21.9778 16.0723 21.942 16.2129 21.8753 16.3577C21.7987 16.524 21.6615 16.7383 21.3806 17.0883L22.1604 17.7143L22.9402 18.3403C23.2562 17.9467 23.5131 17.5825 23.6918 17.1946C23.8803 16.7854 23.961 16.3963 23.9883 15.9761C24.0135 15.5876 23.9932 15.1451 23.9725 14.6557C23.951 14.1486 23.925 13.5284 23.925 12.7143H22.925ZM22.1604 17.7143L21.3806 17.0883C20.7837 17.8318 20.2102 18.5461 19.7861 19.0745C19.574 19.3387 19.3992 19.5564 19.2774 19.7081C19.2165 19.7839 19.1689 19.8433 19.1365 19.8836C19.1203 19.9038 19.1079 19.9193 19.0996 19.9297C19.0954 19.9349 19.0922 19.9388 19.0901 19.9414C19.089 19.9428 19.0883 19.9437 19.0877 19.9444C19.0874 19.9447 19.0872 19.945 19.0871 19.9452C19.087 19.9452 19.087 19.9453 19.087 19.9453C19.0869 19.9454 19.0869 19.9454 19.0869 19.9454C19.0869 19.9454 19.0869 19.9454 19.8667 20.5714C20.6465 21.1974 20.6465 21.1974 20.6465 21.1974C20.6466 21.1974 20.6466 21.1974 20.6466 21.1974C20.6466 21.1973 20.6467 21.1973 20.6467 21.1972C20.6469 21.197 20.6471 21.1968 20.6473 21.1964C20.6479 21.1958 20.6487 21.1948 20.6497 21.1935C20.6518 21.1908 20.655 21.1869 20.6592 21.1817C20.6675 21.1713 20.6799 21.1559 20.6961 21.1357C20.7285 21.0953 20.7761 21.036 20.837 20.9601C20.9588 20.8085 21.1336 20.5908 21.3457 20.3266C21.7699 19.7982 22.3433 19.0839 22.9402 18.3403L22.1604 17.7143ZM19.8667 20.5714C18.8667 20.5714 18.8667 20.5712 18.8667 20.5709C18.8667 20.5708 18.8667 20.5705 18.8667 20.5704C18.8667 20.57 18.8667 20.5697 18.8667 20.5694C18.8667 20.5688 18.8667 20.5683 18.8667 20.5679C18.8667 20.5671 18.8667 20.5665 18.8667 20.5663C18.8667 20.5658 18.8667 20.5665 18.8667 20.5683C18.8666 20.572 18.8664 20.5801 18.866 20.5918C18.865 20.6156 18.8629 20.6531 18.8585 20.6994C18.8491 20.7968 18.8317 20.91 18.803 21.0098C18.7711 21.1211 18.7454 21.1447 18.763 21.1242C18.7771 21.1078 18.812 21.0731 18.8717 21.0434C18.9349 21.0119 18.9982 21 19.0466 21V22V23C19.5878 23 20.0047 22.7472 20.2785 22.4293C20.5268 22.141 20.6548 21.8075 20.7254 21.5616C20.7993 21.3042 20.833 21.0604 20.8494 20.8899C20.8577 20.8023 20.8621 20.7281 20.8643 20.6738C20.8654 20.6465 20.866 20.6238 20.8663 20.6066C20.8665 20.598 20.8666 20.5907 20.8667 20.5848C20.8667 20.5818 20.8667 20.5793 20.8667 20.577C20.8667 20.5759 20.8667 20.5749 20.8667 20.5739C20.8667 20.5735 20.8667 20.573 20.8667 20.5726C20.8667 20.5724 20.8667 20.5721 20.8667 20.572C20.8667 20.5717 20.8667 20.5714 19.8667 20.5714ZM19.0466 22L19.0466 21C19.1527 21 19.1865 21.0516 19.1084 20.9903C19.0144 20.9165 18.9167 20.8102 18.7248 20.6042C18.442 20.3005 17.804 19.5714 16.8085 19.5714V20.5714V21.5714C16.8097 21.5714 16.8106 21.5711 16.8176 21.5736C16.8271 21.577 16.8509 21.5873 16.8912 21.6154C16.985 21.6806 17.0908 21.7843 17.2613 21.9673C17.4021 22.1184 17.6261 22.3692 17.8731 22.5633C18.1362 22.7698 18.5304 23 19.0466 23V22ZM16.8085 20.5714V19.5714C15.8082 19.5714 15.1654 20.2775 14.8601 20.7003C14.6888 20.9376 14.5629 21.1685 14.4804 21.3368C14.4385 21.4222 14.4062 21.4948 14.3835 21.5485C14.3721 21.5754 14.363 21.5978 14.3562 21.6148C14.3528 21.6234 14.35 21.6306 14.3478 21.6365C14.3466 21.6394 14.3457 21.642 14.3448 21.6442C14.3444 21.6453 14.344 21.6463 14.3437 21.6472C14.3435 21.6477 14.3433 21.6481 14.3432 21.6485C14.3431 21.6488 14.343 21.6491 14.3429 21.6492C14.3428 21.6494 14.3427 21.6497 15.2794 22C16.216 22.3503 16.2159 22.3505 16.2158 22.3508C16.2158 22.3509 16.2157 22.3512 16.2156 22.3513C16.2155 22.3517 16.2154 22.352 16.2153 22.3523C16.2151 22.3528 16.2149 22.3533 16.2147 22.3538C16.2144 22.3546 16.2142 22.3551 16.2141 22.3553C16.2139 22.3558 16.2142 22.355 16.215 22.3531C16.2165 22.3492 16.2199 22.3409 16.225 22.3287C16.2354 22.3043 16.2526 22.2653 16.2764 22.2168C16.3252 22.1172 16.395 21.991 16.4815 21.8712C16.5707 21.7477 16.6558 21.6614 16.726 21.612C16.7585 21.5891 16.7807 21.5791 16.7923 21.575C16.8022 21.5715 16.8062 21.5714 16.8085 21.5714V20.5714ZM15.2794 22V21H10.692V22V23H15.2794V22ZM15.2794 17.7143H14.2794C14.2794 18.1022 14.4247 18.6058 14.5971 18.9864C14.6885 19.1881 14.8192 19.4274 14.9996 19.6332C15.1579 19.8138 15.5089 20.1429 16.044 20.1429V19.1429V18.1429C16.2114 18.1429 16.3365 18.1972 16.4064 18.2389C16.4722 18.2783 16.5026 18.3138 16.5036 18.3149C16.5065 18.3182 16.4972 18.3079 16.4789 18.2775C16.4614 18.2484 16.4408 18.2094 16.4188 18.161C16.3742 18.0625 16.3354 17.9501 16.3089 17.8484C16.2959 17.7986 16.2875 17.7578 16.2829 17.7286C16.2776 17.6958 16.2794 17.693 16.2794 17.7143H15.2794ZM16.044 19.1429V20.1429C16.572 20.1429 16.9232 19.8264 17.0899 19.6383C17.274 19.4306 17.4056 19.1889 17.4968 18.9859C17.6702 18.5999 17.8085 18.099 17.8085 17.7143H16.8085H15.8085C15.8085 17.697 15.8099 17.7026 15.8047 17.7361C15.8 17.7663 15.7919 17.8076 15.7792 17.8574C15.7534 17.959 15.7157 18.07 15.6724 18.1663C15.6253 18.2713 15.5921 18.313 15.5933 18.3117C15.5958 18.3088 15.6273 18.2729 15.6937 18.2341C15.7645 18.1928 15.8854 18.1429 16.044 18.1429V19.1429ZM16.8085 17.7143H17.8085V14.8572H16.8085H15.8085V17.7143H16.8085ZM16.8085 14.8572H17.8085C17.8085 14.4692 17.6633 13.9657 17.4908 13.5851C17.3994 13.3833 17.2688 13.144 17.0884 12.9382C16.9301 12.7576 16.5791 12.4286 16.044 12.4286V13.4286V14.4286C15.8765 14.4286 15.7514 14.3743 15.6816 14.3325C15.6158 14.2932 15.5853 14.2576 15.5844 14.2565C15.5815 14.2532 15.5908 14.2636 15.6091 14.2939C15.6266 14.3231 15.6472 14.3621 15.6691 14.4105C15.7137 14.509 15.7526 14.6214 15.7791 14.723C15.7921 14.7729 15.8004 14.8137 15.8051 14.8429C15.8103 14.8757 15.8085 14.8785 15.8085 14.8572H16.8085ZM16.044 13.4286V12.4286C15.516 12.4286 15.1647 12.7451 14.9981 12.9331C14.8139 13.1409 14.6824 13.3825 14.5912 13.5855C14.4177 13.9716 14.2794 14.4725 14.2794 14.8572H15.2794H16.2794C16.2794 14.8745 16.2781 14.8688 16.2832 14.8354C16.2879 14.8052 16.2961 14.7639 16.3087 14.7141C16.3345 14.6124 16.3722 14.5015 16.4155 14.4051C16.4627 14.3002 16.4959 14.2585 16.4947 14.2598C16.4922 14.2627 16.4606 14.2985 16.3943 14.3373C16.3234 14.3787 16.2026 14.4286 16.044 14.4286V13.4286ZM15.2794 14.8572H14.2794V17.7143H15.2794H16.2794V14.8572H15.2794ZM18.3375 17.7884H17.3375C17.3375 18.1764 17.4828 18.6799 17.6552 19.0605C17.7466 19.2622 17.8773 19.5016 18.0577 19.7074C18.216 19.888 18.567 20.217 19.1021 20.217V19.217V18.217C19.2695 18.217 19.3947 18.2713 19.4645 18.3131C19.5303 18.3524 19.5607 18.388 19.5617 18.3891C19.5646 18.3924 19.5553 18.382 19.537 18.3517C19.5195 18.3225 19.4989 18.2835 19.477 18.2351C19.4323 18.1366 19.3935 18.0242 19.367 17.9226C19.354 17.8727 19.3457 17.8319 19.341 17.8027C19.3357 17.7699 19.3375 17.7671 19.3375 17.7884H18.3375ZM19.1021 19.217V20.217C19.6301 20.217 19.9813 19.9005 20.148 19.7125C20.3322 19.5047 20.4637 19.2631 20.5549 19.0601C20.7283 18.674 20.8667 18.1731 20.8667 17.7884H19.8667H18.8667C18.8667 17.7711 18.868 17.7767 18.8628 17.8102C18.8582 17.8404 18.85 17.8817 18.8373 17.9315C18.8115 18.0332 18.7738 18.1441 18.7305 18.2405C18.6834 18.3454 18.6502 18.3871 18.6514 18.3858C18.6539 18.3829 18.6854 18.3471 18.7518 18.3083C18.8227 18.2669 18.9435 18.217 19.1021 18.217V19.217ZM19.8667 17.7884H20.8667V14.9313H19.8667H18.8667V17.7884H19.8667ZM19.8667 14.9313H20.8667C20.8667 14.5434 20.7214 14.0398 20.549 13.6592C20.4576 13.4575 20.3269 13.2182 20.1465 13.0124C19.9882 12.8318 19.6372 12.5027 19.1021 12.5027V13.5027V14.5027C18.9347 14.5027 18.8095 14.4484 18.7397 14.4066C18.6739 14.3673 18.6434 14.3318 18.6425 14.3307C18.6396 14.3274 18.6489 14.3377 18.6672 14.3681C18.6847 14.3972 18.7053 14.4362 18.7272 14.4846C18.7719 14.5831 18.8107 14.6955 18.8372 14.7971C18.8502 14.847 18.8585 14.8878 18.8632 14.917C18.8685 14.9498 18.8667 14.9526 18.8667 14.9313H19.8667ZM19.1021 13.5027V12.5027C18.5741 12.5027 18.2228 12.8192 18.0562 13.0073C17.872 13.215 17.7405 13.4567 17.6493 13.6596C17.4759 14.0457 17.3375 14.5466 17.3375 14.9313H18.3375H19.3375C19.3375 14.9486 19.3362 14.943 19.3414 14.9095C19.346 14.8793 19.3542 14.838 19.3669 14.7882C19.3927 14.6865 19.4304 14.5756 19.4736 14.4793C19.5208 14.3743 19.554 14.3326 19.5528 14.3339C19.5503 14.3368 19.5188 14.3727 19.4524 14.4115C19.3815 14.4528 19.2607 14.5027 19.1021 14.5027V13.5027ZM18.3375 14.9313H17.3375V17.7884H18.3375H19.3375V14.9313H18.3375ZM12.2211 17.7143H11.2211C11.2211 18.1022 11.3663 18.6058 11.5388 18.9864C11.6302 19.1881 11.7609 19.4274 11.9412 19.6332C12.0995 19.8138 12.4506 20.1429 12.9856 20.1429V19.1429V18.1429C13.1531 18.1429 13.2782 18.1972 13.3481 18.2389C13.4139 18.2782 13.4443 18.3138 13.4453 18.3149C13.4482 18.3182 13.4388 18.3079 13.4206 18.2775C13.403 18.2484 13.3824 18.2094 13.3605 18.161C13.3159 18.0625 13.2771 17.9501 13.2506 17.8484C13.2375 17.7985 13.2292 17.7578 13.2245 17.7286C13.2193 17.6958 13.2211 17.6929 13.2211 17.7143H12.2211ZM12.9856 19.1429V20.1429C13.5137 20.1429 13.8649 19.8263 14.0316 19.6383C14.2157 19.4306 14.3472 19.1889 14.4384 18.9859C14.6119 18.5999 14.7502 18.099 14.7502 17.7143H13.7502H12.7502C12.7502 17.6969 12.7516 17.7026 12.7464 17.736C12.7417 17.7663 12.7335 17.8076 12.7209 17.8574C12.6951 17.959 12.6574 18.07 12.6141 18.1663C12.5669 18.2713 12.5337 18.313 12.5349 18.3116C12.5375 18.3088 12.569 18.2729 12.6354 18.2341C12.7062 18.1927 12.8271 18.1429 12.9856 18.1429V19.1429ZM13.7502 17.7143H14.7502V14.8571H13.7502H12.7502V17.7143H13.7502ZM13.7502 14.8571H14.7502C14.7502 14.4692 14.605 13.9657 14.4325 13.585C14.3411 13.3833 14.2104 13.144 14.0301 12.9382C13.8718 12.7576 13.5207 12.4286 12.9856 12.4286V13.4286V14.4286C12.8182 14.4286 12.6931 14.3742 12.6232 14.3325C12.5574 14.2932 12.527 14.2576 12.526 14.2565C12.5231 14.2532 12.5325 14.2636 12.5507 14.2939C12.5683 14.3231 12.5889 14.3621 12.6108 14.4104C12.6554 14.509 12.6942 14.6214 12.7207 14.723C12.7338 14.7729 12.7421 14.8136 12.7468 14.8429C12.752 14.8757 12.7502 14.8785 12.7502 14.8571H13.7502ZM12.9856 13.4286V12.4286C12.4576 12.4286 12.1064 12.7451 11.9397 12.9331C11.7556 13.1409 11.6241 13.3825 11.5329 13.5855C11.3594 13.9716 11.2211 14.4725 11.2211 14.8571H12.2211H13.2211C13.2211 14.8745 13.2197 14.8688 13.2249 14.8354C13.2296 14.8051 13.2378 14.7638 13.2504 14.714C13.2762 14.6124 13.3139 14.5014 13.3572 14.4051C13.4044 14.3001 13.4376 14.2584 13.4364 14.2598C13.4338 14.2626 13.4023 14.2985 13.3359 14.3373C13.2651 14.3787 13.1442 14.4286 12.9856 14.4286V13.4286ZM12.2211 14.8571H11.2211V17.7143H12.2211H13.2211V14.8571H12.2211Z" fill="var(--stroke-0, black)" mask="url(#path-1-outside-1_2398_4526)"/>
</g>
<defs>
<filter id="filter0_d_2398_4526" x="0" y="0" width="26" height="26" filterUnits="userSpaceOnUse" color-interpolation-filters="sRGB">
<feFlood flood-opacity="0" result="BackgroundImageFix"/>
<feColorMatrix in="SourceAlpha" type="matrix" values="0 0 0 0 0 0 0 0 0 0 0 0 0 0 0 0 0 0 127 0" result="hardAlpha"/>
<feOffset dy="1"/>
<feGaussianBlur stdDeviation="1"/>
<feColorMatrix type="matrix" values="0 0 0 0 0 0 0 0 0 0 0 0 0 0 0 0 0 0 1 0"/>
<feBlend mode="normal" in2="BackgroundImageFix" result="effect1_dropShadow_2398_4526"/>
<feBlend mode="normal" in="SourceGraphic" in2="effect1_dropShadow_2398_4526" result="shape"/>
</filter>
</defs>
</svg>
