<svg preserveAspectRatio="none" width="100%" height="100%" overflow="visible" style="display: block;" viewBox="0 0 100 16.9451" fill="none" xmlns="http://www.w3.org/2000/svg">
<g id="Group 1">
<g id="Group">
<path id="Vector" d="M19.9497 8.03151C20.6878 7.17265 21.2875 5.98882 21.2875 4.78177C21.2875 4.29431 21.2183 3.80685 21.0799 3.3426C20.8031 2.27482 20.1573 1.41596 19.2347 0.812437C18.4275 0.27855 17.4357 0 16.2825 0H10.3088L9.8244 2.32125H16.2594C16.9513 2.32125 17.5049 2.46052 17.897 2.73907L17.9431 2.7855C18.3813 3.06405 18.6812 3.45866 18.8196 3.96933L18.8426 4.03897C18.9118 4.29431 18.9579 4.54964 18.9579 4.80498C18.9579 5.54778 18.2891 6.56913 17.6433 7.05659L16.5362 7.89224L17.5741 8.84395C17.8047 9.05286 18.0123 9.3082 18.1507 9.56354L18.1738 9.58675C18.4736 10.0974 18.635 10.7009 18.635 11.2813C18.635 13.115 17.1359 14.6239 15.3138 14.6239C15.1984 14.6239 14.8755 14.6239 14.5526 14.6239C14.1836 14.6239 13.8376 14.6239 13.6992 14.6239H7.26424L6.77988 16.9451H13.6992C13.8376 16.9451 14.1836 16.9451 14.5526 16.9451C14.8986 16.9451 15.2215 16.9451 15.3368 16.9451C18.4275 16.9451 20.9646 14.4149 20.9646 11.2813C20.9646 10.2831 20.6878 9.28499 20.1804 8.40291C20.0881 8.26364 20.0189 8.14758 19.9497 8.03151Z" fill="url(#paint0_linear_8113_4290)"/>
<path id="Vector_2" d="M9.17968 12.3018H7.91113C6.98855 12.3018 6.15823 11.6287 5.97371 10.7234L5.74306 9.67882H8.62613L8.14177 7.35757H5.02806C4.10548 7.35757 3.27516 6.68441 3.09065 5.77912L2.86 4.64171H9.45645C10.379 4.64171 11.2094 5.31487 11.3939 6.22016L11.6245 7.31115H13.9771L13.6542 5.7327C13.239 3.73643 11.4861 2.29725 9.45645 2.29725H0L0.830323 6.24337C1.13016 7.63612 2.07581 8.75032 3.29823 9.28421L3.71339 11.1876C4.12855 13.1839 5.88145 14.6231 7.88806 14.6231H9.64097L9.17968 12.3018Z" fill="url(#paint1_linear_8113_4290)"/>
</g>
<g id="Union">
<path d="M30.7435 10.0021V13.7148H28.4V3.52318H36.0528V5.4159H30.7435V8.10939H35.4307V10.0021H30.7435Z" fill="var(--fill-0, white)"/>
<path fill-rule="evenodd" clip-rule="evenodd" d="M41.8829 12.7414V13.7148H43.9951V9.24502C43.9951 8.05115 43.6671 7.17273 43.0113 6.60977C42.3555 6.04681 41.4345 5.76532 40.2482 5.76532C39.631 5.76532 39.0234 5.84783 38.4254 6.01283C37.8275 6.17784 37.3163 6.41079 36.892 6.71168L37.7021 8.29866C37.9818 8.07542 38.3193 7.9007 38.7147 7.77452C39.1198 7.63863 39.5297 7.57069 39.9444 7.57069C40.552 7.57069 41.0005 7.70658 41.2898 7.97835C41.5888 8.25013 41.7383 8.62867 41.7383 9.11399H39.9444C39.1536 9.11399 38.5122 9.2159 38.0204 9.41973C37.5285 9.61386 37.1668 9.88563 36.9354 10.2351C36.7135 10.5845 36.6026 10.9921 36.6026 11.458C36.6026 11.9045 36.7184 12.3073 36.9498 12.6665C37.1813 13.0256 37.514 13.3119 37.948 13.5255C38.382 13.7293 38.9028 13.8312 39.5104 13.8312C40.1952 13.8312 40.7545 13.7002 41.1885 13.4381C41.4815 13.2612 41.713 13.029 41.8829 12.7414ZM41.7383 11.2397V10.4389H40.1903C39.6599 10.4389 39.2934 10.5262 39.0909 10.701C38.898 10.8757 38.8015 11.0941 38.8015 11.3561C38.8015 11.6473 38.9125 11.8803 39.1343 12.055C39.3657 12.22 39.6792 12.3025 40.0746 12.3025C40.4507 12.3025 40.7883 12.2151 41.0873 12.0404C41.3862 11.856 41.6032 11.5891 41.7383 11.2397Z" fill="var(--fill-0, white)"/>
<path d="M46.4415 13.5983C47.0587 13.7536 47.7001 13.8312 48.3655 13.8312C49.1467 13.8312 49.8074 13.7245 50.3475 13.5109C50.8972 13.2974 51.3167 13.0062 51.6061 12.6374C51.8954 12.2588 52.0401 11.8269 52.0401 11.3416C52.0401 10.8951 51.9533 10.536 51.7797 10.2642C51.6061 9.9827 51.3794 9.7643 51.0997 9.609C50.8297 9.444 50.5259 9.31782 50.1883 9.23046C49.8508 9.1431 49.5132 9.08001 49.1757 9.04119C48.8478 8.99266 48.544 8.93927 48.2643 8.88103C47.9846 8.8228 47.7579 8.74515 47.5843 8.64809C47.4204 8.55102 47.3384 8.40543 47.3384 8.2113C47.3384 7.99777 47.4541 7.82305 47.6856 7.68716C47.9171 7.55128 48.2836 7.48333 48.7851 7.48333C49.1419 7.48333 49.5084 7.52701 49.8845 7.61437C50.2703 7.69202 50.6513 7.84246 51.0274 8.06571L51.7797 6.44962C51.4132 6.22637 50.9551 6.05651 50.4053 5.94004C49.8556 5.82356 49.3155 5.76532 48.7851 5.76532C48.0328 5.76532 47.3866 5.87695 46.8465 6.10019C46.3065 6.31373 45.8917 6.60977 45.6024 6.98831C45.3227 7.36686 45.1829 7.80364 45.1829 8.29866C45.1829 8.74515 45.2649 9.10913 45.4288 9.39061C45.6024 9.67209 45.8291 9.89534 46.1087 10.0603C46.3884 10.2254 46.6971 10.3515 47.0346 10.4389C47.3722 10.5165 47.7049 10.5796 48.0328 10.6282C48.3704 10.6767 48.679 10.7252 48.9587 10.7738C49.2384 10.8223 49.4602 10.8951 49.6241 10.9921C49.7977 11.0795 49.8845 11.2154 49.8845 11.3998C49.8845 11.6231 49.7736 11.7978 49.5518 11.9239C49.3396 12.0501 48.9731 12.1132 48.4523 12.1132C47.9798 12.1132 47.4975 12.0453 47.0057 11.9094C46.5235 11.7638 46.1039 11.5794 45.7471 11.3561L44.9948 12.9868C45.3517 13.2294 45.8339 13.4333 46.4415 13.5983Z" fill="var(--fill-0, white)"/>
<path d="M54.4741 13.1324C54.9852 13.5983 55.6989 13.8312 56.6151 13.8312C56.9623 13.8312 57.295 13.7924 57.6133 13.7148C57.9412 13.6274 58.2209 13.5012 58.4524 13.3362L57.8448 11.7347C57.594 11.9288 57.2902 12.0259 56.9334 12.0259C56.6344 12.0259 56.3981 11.9385 56.2245 11.7638C56.0509 11.5794 55.9641 11.3222 55.9641 10.9921V7.80364H57.9026V6.05651H55.9641V4.14923H53.7073V6.05651H52.5066V7.80364H53.7073V11.0213C53.7073 11.9531 53.9629 12.6568 54.4741 13.1324Z" fill="var(--fill-0, white)"/>
<path fill-rule="evenodd" clip-rule="evenodd" d="M62.2642 13.3944C62.7561 13.6856 63.3444 13.8312 64.0291 13.8312C64.7621 13.8312 65.4179 13.6662 65.9966 13.3362C66.5849 12.9965 67.0478 12.5257 67.3854 11.9239C67.7326 11.3222 67.9062 10.6136 67.9062 9.79828C67.9062 8.97324 67.7326 8.25983 67.3854 7.65805C67.0478 7.05626 66.5849 6.59036 65.9966 6.26034C65.4179 5.93033 64.7621 5.76532 64.0291 5.76532C63.3733 5.76532 62.7995 5.91092 62.3076 6.20211C62.0769 6.33868 61.8695 6.50834 61.6855 6.7111V2.91168H59.4287V13.7148H61.5843V12.8103C61.7789 13.0466 62.0055 13.2413 62.2642 13.3944ZM64.6367 11.7056C64.3474 11.8803 64.0146 11.9676 63.6385 11.9676C63.2624 11.9676 62.9248 11.8803 62.6259 11.7056C62.3269 11.5308 62.0906 11.2833 61.917 10.963C61.7434 10.633 61.6566 10.2448 61.6566 9.79828C61.6566 9.34208 61.7434 8.95383 61.917 8.63353C62.0906 8.31322 62.3269 8.06571 62.6259 7.891C62.9248 7.71628 63.2624 7.62893 63.6385 7.62893C64.0146 7.62893 64.3474 7.71628 64.6367 7.891C64.9357 8.06571 65.172 8.31322 65.3456 8.63353C65.5288 8.95383 65.6204 9.34208 65.6204 9.79828C65.6204 10.2448 65.5288 10.633 65.3456 10.963C65.172 11.2833 64.9357 11.5308 64.6367 11.7056Z" fill="var(--fill-0, white)"/>
<path fill-rule="evenodd" clip-rule="evenodd" d="M70.6165 13.3071C71.2627 13.6565 72.0005 13.8312 72.8299 13.8312C73.6496 13.8312 74.3826 13.6565 75.0288 13.3071C75.675 12.9577 76.1813 12.4821 76.5478 11.8803C76.9143 11.2688 77.0975 10.5748 77.0975 9.79828C77.0975 9.00236 76.9143 8.30351 76.5478 7.70172C76.1813 7.09994 75.675 6.62918 75.0288 6.28946C74.3826 5.94004 73.6496 5.76532 72.8299 5.76532C72.0005 5.76532 71.2627 5.94004 70.6165 6.28946C69.98 6.62918 69.4736 7.10479 69.0975 7.71628C68.731 8.31807 68.5478 9.01207 68.5478 9.79828C68.5478 10.5748 68.731 11.2688 69.0975 11.8803C69.4736 12.4821 69.98 12.9577 70.6165 13.3071ZM73.8425 11.7056C73.5436 11.8803 73.206 11.9676 72.8299 11.9676C72.4537 11.9676 72.1162 11.8803 71.8172 11.7056C71.5182 11.5308 71.2771 11.2833 71.0939 10.963C70.9203 10.633 70.8335 10.2448 70.8335 9.79828C70.8335 9.34208 70.9203 8.95383 71.0939 8.63353C71.2771 8.31322 71.5182 8.06571 71.8172 7.891C72.1162 7.71628 72.4537 7.62893 72.8299 7.62893C73.206 7.62893 73.5436 7.71628 73.8425 7.891C74.1415 8.06571 74.3778 8.31322 74.5514 8.63353C74.725 8.95383 74.8118 9.34208 74.8118 9.79828C74.8118 10.2448 74.725 10.633 74.5514 10.963C74.3778 11.2833 74.1415 11.5308 73.8425 11.7056Z" fill="var(--fill-0, white)"/>
<path fill-rule="evenodd" clip-rule="evenodd" d="M82.9624 12.7414V13.7148H85.0745V9.24502C85.0745 8.05115 84.7466 7.17273 84.0907 6.60977C83.4349 6.04681 82.5139 5.76532 81.3276 5.76532C80.7104 5.76532 80.1028 5.84783 79.5048 6.01283C78.9069 6.17784 78.3957 6.41079 77.9714 6.71168L78.7815 8.29866C79.0612 8.07542 79.3988 7.9007 79.7942 7.77452C80.1992 7.63863 80.6091 7.57069 81.0238 7.57069C81.6314 7.57069 82.0799 7.70658 82.3692 7.97835C82.6682 8.25013 82.8177 8.62867 82.8177 9.11399H81.0238C80.233 9.11399 79.5916 9.2159 79.0998 9.41973C78.6079 9.61386 78.2463 9.88563 78.0148 10.2351C77.793 10.5845 77.682 10.9921 77.682 11.458C77.682 11.9045 77.7978 12.3073 78.0293 12.6665C78.2607 13.0256 78.5934 13.3119 79.0274 13.5255C79.4614 13.7293 79.9822 13.8312 80.5898 13.8312C81.2746 13.8312 81.834 13.7002 82.268 13.4381C82.561 13.2612 82.7924 13.029 82.9624 12.7414ZM82.8177 11.2397V10.4389H81.2698C80.7393 10.4389 80.3728 10.5262 80.1703 10.701C79.9774 10.8757 79.881 11.0941 79.881 11.3561C79.881 11.6473 79.9919 11.8803 80.2137 12.055C80.4452 12.22 80.7586 12.3025 81.154 12.3025C81.5302 12.3025 81.8677 12.2151 82.1667 12.0404C82.4657 11.856 82.6827 11.5891 82.8177 11.2397Z" fill="var(--fill-0, white)"/>
<path d="M88.4011 5.8818H86.2456V13.7148H88.5023V10.0167C88.5023 9.26928 88.6904 8.72088 89.0665 8.37146C89.4523 8.01232 89.9538 7.83276 90.5711 7.83276C90.6579 7.83276 90.7398 7.83761 90.817 7.84732C90.8941 7.84732 90.981 7.85217 91.0774 7.86188V5.76532C90.3444 5.76532 89.7224 5.91092 89.2112 6.20211C88.8838 6.38241 88.6137 6.61847 88.4011 6.91029V5.8818Z" fill="var(--fill-0, white)"/>
<path fill-rule="evenodd" clip-rule="evenodd" d="M93.4322 13.3362C94.0205 13.6662 94.6811 13.8312 95.4141 13.8312C96.0988 13.8312 96.6823 13.6856 97.1645 13.3944C97.4232 13.2413 97.6498 13.0466 97.8445 12.8103V13.7148H100V2.91168H97.7432V6.6986C97.5641 6.50136 97.3615 6.33586 97.1356 6.20211C96.6437 5.91092 96.0699 5.76532 95.4141 5.76532C94.6811 5.76532 94.0205 5.93033 93.4322 6.26034C92.8439 6.59036 92.3761 7.05626 92.0289 7.65805C91.6913 8.25983 91.5226 8.97324 91.5226 9.79828C91.5226 10.6136 91.6913 11.3222 92.0289 11.9239C92.3761 12.5257 92.8439 12.9965 93.4322 13.3362ZM96.8029 11.7056C96.5039 11.8803 96.1712 11.9676 95.8047 11.9676C95.4286 11.9676 95.091 11.8803 94.792 11.7056C94.493 11.5308 94.2519 11.2833 94.0687 10.963C93.8951 10.633 93.8083 10.2448 93.8083 9.79828C93.8083 9.34208 93.8951 8.95383 94.0687 8.63353C94.2519 8.31322 94.493 8.06571 94.792 7.891C95.091 7.71628 95.4286 7.62893 95.8047 7.62893C96.1712 7.62893 96.5039 7.71628 96.8029 7.891C97.1019 8.06571 97.3381 8.31322 97.5117 8.63353C97.695 8.95383 97.7866 9.34208 97.7866 9.79828C97.7866 10.2448 97.695 10.633 97.5117 10.963C97.3381 11.2833 97.1019 11.5308 96.8029 11.7056Z" fill="var(--fill-0, white)"/>
</g>
</g>
<defs>
<linearGradient id="paint0_linear_8113_4290" x1="19.3625" y1="15.1996" x2="7.2126" y2="3.12711" gradientUnits="userSpaceOnUse">
<stop stop-color="#00EFFD"/>
<stop offset="0.25" stop-color="#0BB2F2"/>
<stop offset="0.5" stop-color="#1483EA"/>
<stop offset="0.7" stop-color="#1A62E5"/>
<stop offset="0.88" stop-color="#1E4DE1"/>
<stop offset="1" stop-color="#1F46E0"/>
</linearGradient>
<linearGradient id="paint1_linear_8113_4290" x1="12.1225" y1="13.3534" x2="3.60767" y2="2.1474" gradientUnits="userSpaceOnUse">
<stop stop-color="#00EFFD"/>
<stop offset="0.25" stop-color="#0BB2F2"/>
<stop offset="0.5" stop-color="#1483EA"/>
<stop offset="0.7" stop-color="#1A62E5"/>
<stop offset="0.88" stop-color="#1E4DE1"/>
<stop offset="1" stop-color="#1F46E0"/>
</linearGradient>
</defs>
</svg>
