<svg preserveAspectRatio="none" width="100%" height="100%" overflow="visible" style="display: block;" viewBox="0 0 419 71" fill="none" xmlns="http://www.w3.org/2000/svg">
<g id="Group 1">
<g id="Group">
<path id="Vector" d="M83.5895 33.6521C86.6819 30.0534 89.1946 25.0932 89.1946 20.0356C89.1946 17.9932 88.9047 15.9507 88.3248 14.0055C87.1651 9.53151 84.4592 5.93288 80.5936 3.40411C77.2112 1.16712 73.0557 0 68.2236 0H43.1938L41.1643 9.72603H68.127C71.0262 9.72603 73.3456 10.3096 74.9885 11.4767L75.1817 11.6712C77.0179 12.8384 78.2742 14.4918 78.8541 16.6315L78.9507 16.9233C79.2406 17.9932 79.4339 19.063 79.4339 20.1329C79.4339 23.2452 76.6313 27.5247 73.9254 29.5671L69.2867 33.0685L73.6355 37.0562C74.6019 37.9315 75.4717 39.0014 76.0515 40.0712L76.1481 40.1685C77.4045 42.3082 78.081 44.837 78.081 47.2685C78.081 54.9521 71.7993 61.274 64.1647 61.274C63.6815 61.274 62.3286 61.274 60.9756 61.274C59.4294 61.274 57.9798 61.274 57.3999 61.274H30.4373L28.4078 71H57.3999C57.9798 71 59.4294 71 60.9756 71C62.4252 71 63.7782 71 64.2614 71C77.2112 71 87.8416 60.3986 87.8416 47.2685C87.8416 43.0863 86.6819 38.9041 84.5559 35.2082C84.1693 34.6247 83.8794 34.1384 83.5895 33.6521Z" fill="url(#paint0_linear_4001_2045)"/>
<path id="Vector_2" d="M38.4629 51.5446H33.1476C29.282 51.5446 25.803 48.7241 25.0298 44.9309L24.0634 40.5542H36.1435L34.114 30.8282H21.0676C17.202 30.8282 13.7229 28.0076 12.9498 24.2145L11.9834 19.4487H39.6225C43.4882 19.4487 46.9672 22.2693 47.7403 26.0624L48.7067 30.6337H58.564L57.2111 24.02C55.4716 15.6556 48.1269 9.62543 39.6225 9.62543H0L3.47905 26.1597C4.73538 31.9953 8.69763 36.6638 13.8196 38.9008L15.5591 46.8761C17.2986 55.2405 24.6433 61.2706 33.051 61.2706H40.3957L38.4629 51.5446Z" fill="url(#paint1_linear_4001_2045)"/>
</g>
<g id="Union">
<path d="M128.815 41.9088V57.4648H118.996V14.7621H151.061V22.6926H128.815V33.9783H148.455V41.9088H128.815Z" fill="var(--fill-0, white)"/>
<path fill-rule="evenodd" clip-rule="evenodd" d="M175.49 53.3865V57.4648H184.339V38.7366C184.339 33.7343 182.965 30.0537 180.217 27.6949C177.47 25.3361 173.61 24.1567 168.64 24.1567C166.054 24.1567 163.508 24.5023 161.003 25.1937C158.497 25.8851 156.355 26.8612 154.577 28.1219L157.972 34.7713C159.144 33.8359 160.558 33.1039 162.215 32.5752C163.912 32.0058 165.629 31.7211 167.367 31.7211C169.913 31.7211 171.792 32.2905 173.004 33.4292C174.257 34.568 174.883 36.1541 174.883 38.1875H167.367C164.053 38.1875 161.366 38.6146 159.305 39.4686C157.244 40.282 155.729 41.4208 154.759 42.8848C153.83 44.3489 153.365 46.057 153.365 48.0092C153.365 49.88 153.85 51.5677 154.82 53.0725C155.79 54.5773 157.184 55.777 159.002 56.6717C160.821 57.5258 163.003 57.9528 165.549 57.9528C168.418 57.9528 170.762 57.4038 172.58 56.3057C173.808 55.5643 174.778 54.5913 175.49 53.3865ZM174.883 47.0941V43.7389H168.398C166.175 43.7389 164.639 44.1049 163.791 44.837C162.983 45.569 162.579 46.4841 162.579 47.5821C162.579 48.8022 163.043 49.7783 163.973 50.5103C164.942 51.2017 166.256 51.5474 167.913 51.5474C169.489 51.5474 170.903 51.1814 172.156 50.4493C173.408 49.6766 174.318 48.5582 174.883 47.0941Z" fill="var(--fill-0, white)"/>
<path d="M194.59 56.9767C197.176 57.6274 199.863 57.9528 202.652 57.9528C205.925 57.9528 208.693 57.5054 210.956 56.6107C213.259 55.716 215.017 54.4959 216.229 52.9505C217.442 51.3644 218.048 49.5546 218.048 47.5211C218.048 45.6504 217.684 44.1456 216.957 43.0069C216.229 41.8274 215.28 40.9124 214.108 40.2617C212.976 39.5703 211.703 39.0416 210.289 38.6756C208.875 38.3096 207.46 38.0452 206.046 37.8825C204.672 37.6792 203.399 37.4555 202.227 37.2115C201.055 36.9675 200.106 36.6421 199.378 36.2354C198.691 35.8287 198.348 35.2187 198.348 34.4053C198.348 33.5106 198.833 32.7785 199.803 32.2092C200.773 31.6398 202.308 31.3551 204.409 31.3551C205.905 31.3551 207.44 31.5381 209.016 31.9041C210.633 32.2295 212.229 32.8599 213.805 33.7953L216.957 27.0238C215.421 26.0884 213.502 25.3767 211.198 24.8887C208.895 24.4007 206.632 24.1567 204.409 24.1567C201.257 24.1567 198.55 24.6244 196.287 25.5597C194.024 26.4545 192.286 27.6949 191.074 29.281C189.902 30.8671 189.316 32.6972 189.316 34.7713C189.316 36.6421 189.66 38.1672 190.347 39.3466C191.074 40.526 192.024 41.4614 193.196 42.1528C194.368 42.8442 195.661 43.3729 197.075 43.7389C198.489 44.0643 199.884 44.3286 201.257 44.5319C202.672 44.7353 203.965 44.9386 205.137 45.142C206.309 45.3453 207.238 45.6504 207.925 46.0571C208.653 46.4231 209.016 46.9924 209.016 47.7652C209.016 48.7005 208.551 49.4326 207.622 49.9613C206.733 50.49 205.197 50.7543 203.015 50.7543C201.035 50.7543 199.015 50.4697 196.954 49.9003C194.933 49.2903 193.175 48.5175 191.68 47.5821L188.528 54.4146C190.023 55.4313 192.044 56.2854 194.59 56.9767Z" fill="var(--fill-0, white)"/>
<path d="M228.246 55.0246C230.388 56.9767 233.378 57.9528 237.217 57.9528C238.672 57.9528 240.066 57.7901 241.4 57.4648C242.774 57.0988 243.946 56.57 244.915 55.8787L242.37 49.1682C241.319 49.9816 240.046 50.3883 238.551 50.3883C237.298 50.3883 236.308 50.0223 235.581 49.2903C234.853 48.5175 234.49 47.4398 234.49 46.0571V32.6972H242.612V25.3767H234.49V17.3852H225.034V25.3767H220.003V32.6972H225.034V46.1791C225.034 50.0833 226.105 53.0318 228.246 55.0246Z" fill="var(--fill-0, white)"/>
<path fill-rule="evenodd" clip-rule="evenodd" d="M260.887 56.1227C262.948 57.3428 265.413 57.9528 268.282 57.9528C271.353 57.9528 274.101 57.2614 276.526 55.8787C278.991 54.4552 280.93 52.4828 282.345 49.9613C283.799 47.4398 284.527 44.4709 284.527 41.0547C284.527 37.5978 283.799 34.6087 282.345 32.0872C280.93 29.5657 278.991 27.6135 276.526 26.2308C274.101 24.848 271.353 24.1567 268.282 24.1567C265.534 24.1567 263.13 24.7667 261.069 25.9868C260.102 26.559 259.233 27.2699 258.462 28.1195V12.1999H249.006V57.4648H258.038V53.675C258.854 54.6652 259.803 55.4811 260.887 56.1227ZM270.828 49.0462C269.616 49.7783 268.221 50.1443 266.645 50.1443C265.069 50.1443 263.655 49.7783 262.402 49.0462C261.15 48.3142 260.16 47.2771 259.432 45.935C258.705 44.5523 258.341 42.9255 258.341 41.0547C258.341 39.1433 258.705 37.5165 259.432 36.1744C260.16 34.8323 261.15 33.7953 262.402 33.0632C263.655 32.3312 265.069 31.9652 266.645 31.9652C268.221 31.9652 269.616 32.3312 270.828 33.0632C272.081 33.7953 273.071 34.8323 273.798 36.1744C274.566 37.5165 274.95 39.1433 274.95 41.0547C274.95 42.9255 274.566 44.5523 273.798 45.935C273.071 47.2771 272.081 48.3142 270.828 49.0462Z" fill="var(--fill-0, white)"/>
<path fill-rule="evenodd" clip-rule="evenodd" d="M295.883 55.7567C298.591 57.2208 301.682 57.9528 305.157 57.9528C308.592 57.9528 311.663 57.2208 314.371 55.7567C317.078 54.2926 319.2 52.2998 320.735 49.7783C322.271 47.2161 323.039 44.3083 323.039 41.0547C323.039 37.7198 322.271 34.7917 320.735 32.2702C319.2 29.7487 317.078 27.7762 314.371 26.3528C311.663 24.8887 308.592 24.1567 305.157 24.1567C301.682 24.1567 298.591 24.8887 295.883 26.3528C293.216 27.7762 291.095 29.769 289.519 32.3312C287.983 34.8527 287.215 37.7605 287.215 41.0547C287.215 44.3083 287.983 47.2161 289.519 49.7783C291.095 52.2998 293.216 54.2926 295.883 55.7567ZM309.4 49.0462C308.148 49.7783 306.733 50.1443 305.157 50.1443C303.581 50.1443 302.167 49.7783 300.914 49.0462C299.661 48.3142 298.651 47.2771 297.883 45.935C297.156 44.5523 296.792 42.9255 296.792 41.0547C296.792 39.1433 297.156 37.5165 297.883 36.1744C298.651 34.8323 299.661 33.7953 300.914 33.0632C302.167 32.3312 303.581 31.9652 305.157 31.9652C306.733 31.9652 308.148 32.3312 309.4 33.0632C310.653 33.7953 311.643 34.8323 312.37 36.1744C313.098 37.5165 313.461 39.1433 313.461 41.0547C313.461 42.9255 313.098 44.5523 312.37 45.935C311.643 47.2771 310.653 48.3142 309.4 49.0462Z" fill="var(--fill-0, white)"/>
<path fill-rule="evenodd" clip-rule="evenodd" d="M347.612 53.3865V57.4648H356.462V38.7366C356.462 33.7343 355.088 30.0537 352.34 27.6949C349.592 25.3361 345.733 24.1567 340.763 24.1567C338.177 24.1567 335.631 24.5023 333.125 25.1937C330.62 25.8851 328.478 26.8612 326.7 28.1219L330.095 34.7713C331.266 33.8359 332.681 33.1039 334.338 32.5752C336.035 32.0058 337.752 31.7211 339.49 31.7211C342.036 31.7211 343.915 32.2905 345.127 33.4292C346.38 34.568 347.006 36.1541 347.006 38.1875H339.49C336.176 38.1875 333.489 38.6146 331.428 39.4686C329.367 40.282 327.852 41.4208 326.882 42.8848C325.953 44.3489 325.488 46.057 325.488 48.0092C325.488 49.88 325.973 51.5677 326.943 53.0725C327.912 54.5773 329.307 55.777 331.125 56.6717C332.943 57.5258 335.126 57.9528 337.671 57.9528C340.541 57.9528 342.884 57.4038 344.703 56.3057C345.931 55.5643 346.9 54.5913 347.612 53.3865ZM347.006 47.0941V43.7389H340.52C338.298 43.7389 336.762 44.1049 335.914 44.837C335.105 45.569 334.701 46.4841 334.701 47.5821C334.701 48.8022 335.166 49.7783 336.095 50.5103C337.065 51.2017 338.379 51.5474 340.035 51.5474C341.611 51.5474 343.026 51.1814 344.279 50.4493C345.531 49.6766 346.44 48.5582 347.006 47.0941Z" fill="var(--fill-0, white)"/>
<path d="M370.401 24.6447H361.369V57.4648H370.825V41.9698C370.825 38.8383 371.613 36.5404 373.189 35.0763C374.805 33.5716 376.907 32.8192 379.493 32.8192C379.857 32.8192 380.2 32.8395 380.523 32.8802C380.847 32.8802 381.21 32.9005 381.614 32.9412V24.1567C378.543 24.1567 375.937 24.7667 373.795 25.9868C372.423 26.7423 371.292 27.7314 370.401 28.9541V24.6447Z" fill="var(--fill-0, white)"/>
<path fill-rule="evenodd" clip-rule="evenodd" d="M391.481 55.8787C393.946 57.2614 396.714 57.9528 399.785 57.9528C402.654 57.9528 405.099 57.3428 407.119 56.1227C408.203 55.4811 409.153 54.6652 409.968 53.6751V57.4648H419V12.1999H409.544V28.0671C408.794 27.2406 407.945 26.5472 406.998 25.9868C404.937 24.7667 402.533 24.1567 399.785 24.1567C396.714 24.1567 393.946 24.848 391.481 26.2308C389.016 27.6135 387.056 29.5657 385.601 32.0872C384.187 34.6087 383.48 37.5978 383.48 41.0547C383.48 44.4709 384.187 47.4398 385.601 49.9613C387.056 52.4828 389.016 54.4552 391.481 55.8787ZM405.604 49.0462C404.351 49.7783 402.957 50.1443 401.422 50.1443C399.846 50.1443 398.431 49.7783 397.179 49.0462C395.926 48.3142 394.916 47.2771 394.148 45.935C393.421 44.5523 393.057 42.9255 393.057 41.0547C393.057 39.1433 393.421 37.5165 394.148 36.1744C394.916 34.8323 395.926 33.7953 397.179 33.0632C398.431 32.3312 399.846 31.9652 401.422 31.9652C402.957 31.9652 404.351 32.3312 405.604 33.0632C406.857 33.7953 407.847 34.8323 408.574 36.1744C409.342 37.5165 409.726 39.1433 409.726 41.0547C409.726 42.9255 409.342 44.5523 408.574 45.935C407.847 47.2771 406.857 48.3142 405.604 49.0462Z" fill="var(--fill-0, white)"/>
</g>
</g>
<defs>
<linearGradient id="paint0_linear_4001_2045" x1="81.1289" y1="63.6862" x2="30.2209" y2="13.1026" gradientUnits="userSpaceOnUse">
<stop stop-color="#00EFFD"/>
<stop offset="0.25" stop-color="#0BB2F2"/>
<stop offset="0.5" stop-color="#1483EA"/>
<stop offset="0.7" stop-color="#1A62E5"/>
<stop offset="0.88" stop-color="#1E4DE1"/>
<stop offset="1" stop-color="#1F46E0"/>
</linearGradient>
<linearGradient id="paint1_linear_4001_2045" x1="50.7933" y1="55.9506" x2="15.1162" y2="8.99756" gradientUnits="userSpaceOnUse">
<stop stop-color="#00EFFD"/>
<stop offset="0.25" stop-color="#0BB2F2"/>
<stop offset="0.5" stop-color="#1483EA"/>
<stop offset="0.7" stop-color="#1A62E5"/>
<stop offset="0.88" stop-color="#1E4DE1"/>
<stop offset="1" stop-color="#1F46E0"/>
</linearGradient>
</defs>
</svg>
